/* XPM */
static char *result[] = {
/* columns rows colors chars-per-pixel */
"65 65 63 1 ",
"  c #003E00",
". c #014500",
"X c #064C00",
"o c #094E00",
"O c #0C5301",
"+ c #0D550A",
"@ c #115601",
"# c #155902",
"$ c #1B5D03",
"% c #15570A",
"& c #215E00",
"* c #215E17",
"= c #1E6206",
"- c #246403",
"; c #296601",
": c #266906",
"> c #2D6D01",
", c #256609",
"< c #266B08",
"1 c #2A6E09",
"2 c #306F01",
"3 c #306E0C",
"4 c #2E7004",
"5 c #2D7209",
"6 c #307101",
"7 c #377905",
"8 c #397C06",
"9 c #33750A",
"0 c #38740B",
"q c #347B0A",
"w c #397E09",
"e c #266117",
"r c #2B671C",
"t c #2E6C19",
"y c #437D15",
"u c #3C8007",
"i c #36810A",
"p c #3D840A",
"a c #3F890C",
"s c #41870B",
"d c #428C0C",
"f c #46920D",
"g c #49950E",
"h c #4C9A0E",
"j c #509F0F",
"k c #478217",
"l c #458E10",
"z c #498D11",
"x c #469010",
"c c #4C9611",
"v c #4E9D10",
"b c #519E12",
"n c #53951E",
"m c #4FA10F",
"M c #51A10F",
"N c #56A90F",
"B c #52A310",
"V c #5AA716",
"C c #56A810",
"Z c #5AA816",
"A c #5A9F21",
"S c #5BA123",
"D c #62AA25",
/* pixels */
"VVBVVVVv00000000000000000000000009zVVVs+,000000009003%5VVVVBc$%%r",
"BBBbbmvf7422266>62>6266>622666262>sBbvqO-6266222662>;O<bBvBBx$O+e",
"mmBBmm-->6662662>>>>262626622222226w876;>64226622>;@O@<CBBBBhfiO*",
"gccvBg=#>46466227>7766266222266627667992>6666>67>>;@##5MBBvgvmd#r",
"==$-77>;22222627fgbM7>2642>26626djbjbvs6226246ugqO:gfcgMBmf=<vbfA",
"ooO@4>4622>264>6gMMMu>6626226266dMjMjvs2>6264>pvq.<NBBhbBmao=bmVS",
"ca1;4666hgjf7;fjMhp8662266>62>6607dMBjbhp264pbvBvfhBBBbBv=<fp-5mS",
"Bf76>>>7bMMh62jjNh8>>>226226662222dNBMjvd>14dBbBBBjBBBBNgo<Cf+=BD",
"7617hvjf-&cvhvBf1=lvbh822>22262>22;$pCBbiX9jvBBBBvvmBml#$O#76>,$t",
"2668vvBg#OfvBmBf<OdBBh8>2622222626:oiBBgqX9NBBMCBBmvvvaoOO#666;O*",
"2266uuMBli<9vBq<idvBdw726662>7dhhgddvva-$O9MCvi<iBc,<,5dp-1>624;y",
"266666ghbv-#cf=#agvvu6226222>6fbbMhbbvaOOO5vvgiO5Mpo@O<vh16626>6y",
"26626>::vf&O=-OO=-78624626666278fMMBbbcd5o$-,=$O#:5fqO<mh>6>6>62y",
"22624>OOvv-OOOOOoO;666222>2>6226fMBNNNBB8 .XOOOXX.:Mf.-Bh26>>>>2y",
"22>666;>q7#OOO=:>;>62626662622668u7:::::qfcd5O:dfggBbggbh@<hggd2y",
"2626666414@ooO;>>66266626>62>62>66&ooooOqbmvq.5vbMMMMjbjhX-MMBg6y",
"666666>664ipaadd7662>226pffdw62626>--;;;uCBjfqq5sMg<qjBBhadBg554k",
">66>2>6666gjjjMg86626666fMjMs>2662>>>>26svvBMvaO9Mdo<jMBBjjvf##>y",
"662622266>55vBBbgd76dgffhBBBs>4622>4642641iCBBl;7pq:9hvBjMf11;:6y",
"66626>626>@@hNBBBv82fBbBMbCCs>622226666>-o9NBBf>1664uBCBjbd.O>2>y",
"22222>6666;=55hMbv1#fBjBMhp5662662646>62;-8Md5426>4649pBjBvpq=:fn",
"666226626>2>OXbNCv- fNBNNb5.-6662662262661dMp.$626>6:O<BNBBhfo$hD",
">62222266>22;;wu91sdvvu98i2->666226262>>>67u7-;6>666>;;99BBBBdfmD",
"6>6>24622222622;OolBBv-.&>22>>4662622664>66>6662662446;X#CBBMMMMD",
"ddfd6666>627ddddpiq5vvaqdddfdd8>>626udu622>22>2662>266>-:NBMBBMMD",
"hMhg666266>7hjjjMg<.xvvvMhjMmvp66226dBd72666222626>626>68MBMMbvBD",
"Bfq5626>66sfMBMMBv:o19gBBBMMBmgd7>ufhMd>uffdu>26>646667dfBBbvqqBD",
"Bf$O2>62>7hMBBBMNg:OoofBBCBCCBmvp;dNMhd>dMjCf>22226626uBjMMCgO=BD",
"i9--266627udMBMba9$o&-7qpduw8qcmgdgBBMgdgBhpw>66666226uBBBg89-:dn",
"oO>222622>>7bBMg-Xoo->#X-;O.XOaCBBBBBBBMbBf;>>26222666uBBBd.O412y",
"-;>22>622226ussw1--;>>;-udds,oaBjMf9dBMbl9wgddp6>62666uBBvd;;626y",
"6666226266622>>266662267gMNM0XaBBMu iCMv8.6CMMf2266>66uvBmf26266y",
"266262626262626266262626udhBd5qifBu.wBfqqqaBvau>6622667qpBmpd>62y",
"26>>>>>24226266>6>66>>6227gCbg1.aNp.iVaoqbvBf>46666>>>-o$CBvg6>2y",
"27udsp62626266226>622626>68ahBa18a5X1a1OwCga82>6667udp8$;dlBhdi6y",
">7hMMM7426266>62622226664>#.dNbvqoOOoooO8Bs.$62>26pMBhf;;o=BBbg2y",
"pdjbap666>66262666222222>2;$wfdw:o#---&&6du$-67d8>7sdhvpp&1BBjf2y",
"NbjfO.>>262>2664624622>62>66>>#.oo-7>466>>6664aMd>-.=vBCM>uMBjg6y",
"vvdp55ui66wu626>6>6>wswssi722>;$&&;66>466262667apu819afBjudBBMbpn",
"vd=$gvhg67hg7266226>gMjjMg8266>>>>>46226244626-@qBvvaO<BMjBhMBvvD",
"pi5qvhgd67bvss66>6ushMMMgd8>66>>2>>6226226267d7$qBBBg9uBBMBvhaabD",
"O=vvBB7726hbbj8>>7gjMjBBs>>666662222226664>2dMd>dCBBBBBBBCBBfO=BD",
"O=vmfd1>27gMMhd866cMMvffu666266>22622222227ufMd>uffBBBMgfdgBg&<gA",
"O=xfOo>6>7hBjjNgu7gMMv:.->>2>666662>222262uNMMf>-.-NMbf6;o-Bg616y",
"$=pa&$>626sdjbfd97pdvj818uuu7266627swssw7>pNMvl-;9iBBBd>2$:gd7>2y",
"4-oo66666>oOvh$X->O fBCCBNCBp>6>2>dCNMCMd>pBBMao5CMMBmf>266>22>2y",
"4>$->6666>$-df,$$;::gBBBMvgd8>262>pghMMjd7sfcMf:ibMBvdp>66626226y",
"26>>466>66>2622<##agvMBhMg5o-6626266sMMMMjs.9MhvbBBmfO=>22266626y",
"66666>662666>2w85<pdaaaaff5#;6662664pagBBBd.<ffMBBhpi$-66262>666y",
"2662662262626>hhmf<@@@+O>611>6666664=@iBBbs.O@5bBBdO$>>>46262662y",
"662>6287622688bMMh<o=-:->44426226266-O5fvbd-:-iBvfpO$>6622642666y",
">266>>Bv7>27hBMMBg:.amBBu>646266>6666>=XqMBMBbMb8.$66222622626>6y",
"62666>gf7727bBBbva<=cmvxi664>662644666:-iNbMBBBhl$,7742626622266y",
"666662#$fg87jMMg1#fgvv5O-26662266662>6pfbMBMBBbBBfggf62266>6262>y",
"2678w7@OhmuwvBCf5=fmca5-67746>7w722678fBMMgdgdgBBvvld64426626>66y",
"68hMjh$@vBMMMBBMvvBV<XavBv8>27fhu>24dBbMMhdoOO5bBmfo=>6464622266y",
"78ghBB:$vBBBBMBBBBBB9#fBMg8>66dvp667dChvvBdO##9vbhdo$>4626626>66y",
"va$=vMjvBBjjjbMBBBMBMgBm5O-2>>$OiMBjhMaOqCbgu266267>>66662>6>666y",
"va#@fbBBBhmbvBjbMBBBBBMg5=176>-$sMBBBmu$8Bjbd>224>>6>64667662267k",
"Bf$OoohjBg#Ovv-OdhMmBh:.dMBB9XdNMMjMBBBBMjf>2222626666447Mh>268jD",
"Bd#OOOhjBg-=fh-#dhBmbh1Oabhg5OphvvhmmBBBMjf66822>>67674>7Bg;>7iMD",
"Ba$#>>bg=#;;774-#=fBp6>>dh9#;:=@@#:7fBbBbbbjjgiO-27hgca@-BfO-cvBD",
"xa==78gf=#;6264>$#fg8>46df5O;6-@$$17dgfgbbhfgji@-6wggml$<bf#1vmBD",
"=4dfgg88>;246266;;78624>774>24>:8fggq#$=iCd@:87;>6;=5vmfcvmffMBBD",
"O=fBBB7>>>22>626626626>6662>>>>6fBhBqoOO8Cd.-22226-O:hBBjjMBBBMBD"
};
