/* XPM */
static char *result[] = {
/* columns rows colors chars-per-pixel */
"65 65 159 2 ",
"   c #000000",
".  c #090200",
"X  c #0E0A00",
"o  c #0D0C0C",
"O  c #130D00",
"+  c #171100",
"@  c #1A1400",
"#  c #101010",
"$  c #002500",
"%  c #002D00",
"&  c #003600",
"*  c #033A00",
"=  c #0B3D00",
"-  c #26220D",
";  c #2A250F",
":  c #3B310F",
">  c #3A3111",
",  c #3A363A",
"<  c #3B383B",
"1  c #004400",
"2  c #0E4101",
"3  c #004800",
"4  c #114401",
"5  c #154B03",
"6  c #194D02",
"7  c #16470A",
"8  c #174A0A",
"9  c #005500",
"0  c #0C5100",
"q  c #005A00",
"w  c #095A00",
"e  c #125400",
"r  c #1C5404",
"t  c #165E00",
"y  c #1D5C03",
"u  c #1F5B08",
"i  c #1C4E13",
"p  c #1F5113",
"a  c #205601",
"s  c #255D01",
"d  c #225D08",
"f  c #245518",
"g  c #0D6700",
"h  c #0F6800",
"j  c #1E6000",
"k  c #156D00",
"l  c #177100",
"z  c #1B7400",
"x  c #276001",
"c  c #296303",
"v  c #256D00",
"b  c #2D6B06",
"n  c #266309",
"m  c #2B640A",
"M  c #2C6D09",
"N  c #306F07",
"B  c #306F09",
"V  c #2A7300",
"C  c #237D00",
"Z  c #2E7C00",
"A  c #2F720A",
"S  c #307107",
"D  c #317409",
"F  c #357B0B",
"G  c #387F0B",
"H  c #366D13",
"J  c #397214",
"K  c #63591C",
"L  c #776C24",
"P  c #4C4D4D",
"I  c #545454",
"U  c #596557",
"Y  c #5A6957",
"T  c #5C6958",
"R  c #5E7457",
"E  c #5F7857",
"W  c #607957",
"Q  c gray42",
"!  c #767577",
"~  c #8F7E1D",
"^  c #897925",
"/  c #268000",
"(  c #2B8500",
")  c #2D8B00",
"_  c #368700",
"`  c #348D00",
"'  c #398D00",
"]  c #37800C",
"[  c #3A840C",
"{  c #3E8B0D",
"}  c #329100",
"|  c #3D9300",
" . c #3E8B10",
".. c #408E0E",
"X. c #409700",
"o. c #419900",
"O. c #43940F",
"+. c #46990F",
"@. c #418017",
"#. c #428C10",
"$. c #468919",
"%. c #439211",
"&. c #499712",
"*. c #469910",
"=. c #499A13",
"-. c #4B921B",
";. c #4F981C",
":. c #529E1D",
">. c #54A11E",
",. c #958317",
"<. c #928118",
"1. c #9E8B1A",
"2. c #A69017",
"3. c #A9931A",
"4. c #BDA51E",
"5. c #958420",
"6. c #9C8C24",
"7. c #978A31",
"8. c #A08F26",
"9. c #A08F29",
"0. c #A0902D",
"q. c #B49E25",
"w. c #B29E2A",
"e. c #A19230",
"r. c #AC9B32",
"t. c #B6A026",
"y. c #BCA625",
"u. c #B6A229",
"i. c #DDBE1A",
"p. c #DFC019",
"a. c #E7C207",
"s. c #E8C307",
"d. c #E6C20A",
"f. c #E8C308",
"g. c #EBC80D",
"h. c #E3C215",
"j. c #E1C119",
"k. c #E8C718",
"l. c #F7D415",
"z. c #F9D616",
"x. c #FDDB1B",
"c. c #EFD12B",
"v. c #F3D424",
"b. c #FCDB27",
"n. c #F0D12A",
"m. c #F7D92B",
"M. c #F9D92A",
"N. c #ECD137",
"B. c #E9D039",
"V. c #F7DA31",
"C. c #8F8F8F",
"Z. c #879184",
"A. c #929692",
"S. c #949D92",
"D. c #96A492",
"F. c #98AC92",
"G. c #A9B3A7",
"H. c #C3C1C3",
"J. c #DDDCDD",
/* pixels */
"=.=.=.=.&.=.=.%.m m m m m m m m m m m m m t Z.! I I I I I I I I I I I I I I I C.J.G.9 m m m m m m m m m d 7 n =.=.=.=.=. .8 7 7 f ",
"O.%.O.%.O.{ { { c c x x c s c s x x s x s w Z.! P I I I I I I I I I I I I I P C.J.G.9 s x s s s c s c s s 4 d %.%.%.O.O.[ 6 4 4 p ",
"O.O.%.+.O.O.r r s s s x c s s s x x s x c y T <   o # o o # # # o o o o o o   Q H.D.9 x x s c c s s a 4 5 4 d *.%.+.O.O...] A 4 f ",
"{ { { ..O.O.5 5 s c x x c c s c s c b b c s Y <     .                   .     Q H.S.9 x c s c c s s a 5 5 5 d O.O.%.O.{ { %.[ 4 f ",
"6 r 6 r M b s s s c s s s s c c [ { { { b j Y <     . + @ @ @ @ @ @ @ X       Q H.D.9 x s n S { B = a { [ [ ..O.+. .] r u %. .[ -.",
"= = 4 4 s s x x s s s s s c c c [  .+.+.S y U <     O K 5.,.,.,.,.,.5.K       Q H.S.9 x x x D O.m = d &.O.%.O.O.+.%.] = r %.+.%.-.",
"#.F s s s x x c ......[ c s G #.O.O.D b c j Y ,     O r.N.n.c.c.n.n.B.7.      Q H.S.9 x S ..O.O...[ ..O.O.O.O.O.{ 5 u { A y n O.:.",
"..[ b s s s s c #.O.O...c s ..&.O.O.b s x y Y <     O w.m.x.b.x.x.x.m.9.      Q H.S.9 x G O.O.O.O.O.O.O.*.O.&.+.{ = u *.] 5 r +.;.",
"c c x b { ..O.[ a 6 [ O.O.O.O.[ d r G %.O.' R ,     O w.M.x.x.x.b.x.V.e.      Q H.A.q O.O.O.%.O.+.O.%.%.O.O.F 5 5 4 5 b x x u 5 f ",
"x x x b ..%.O.{ 5 4 [ O.O.O.%.[ y 2 ] %.%.' R <     O w.m.x.x.x.x.x.b.0.      Q H.A.q +.O.O.+.O.O.O.%.%. .O.A 2 2 2 5 x x x s 2 i ",
"x x x x b S O.%.G D d d O.O.m u A G ..%.F v T <     O q.b.x.x.x.x.x.m.8.      Q H.A.q +.%.O.G a M +.[ u u y n F F r s x x s s s H ",
"s x x s c x [ #.%.#.r 5 ] [ r 5 F [ O...b j Y <     O w.M.x.x.x.x.x.V.0.      Q H.A.9 O.{  .A = n { D 2 4 4 d O.{ s s x s s s s H ",
"x x x x x s y y ..{ 6 4 r r 4 4 6 r b B c j Y ,     O w.M.x.x.x.x.x.m.0.      Q H.A.* u r r 6 4 5 u n [ M 2 d { ..s s s x s s s H ",
"x x c s x s 4 4 O.{ r 4 4 4 4 4 = 4 s s x y Y <     . y.b.x.x.x.x.x.m.8.      Q H.A.$ * = 4 = = = * y O.G = u O...s x s s s s s H ",
"c s s x x x s d b b 5 4 4 4 r r s r s s x j U <     X q.b.x.x.x.x.x.V.0.      Q H.F.C G n = d [ [ [ [ O.O.[ [ #...4 a ....{ G s H ",
"c x x x x x s s s s 4 2 = 2 a s x x x x x j Y <     O q.M.x.x.x.x.x.b.0.      Q H.F.} O.M & n ..%.O.O.%.O.O.O.O.{ * r O.O.+.[ x H ",
"s s s c s s s c x c S D F F G F b s x x x y Y <     . y.b.x.x.x.x.x.V.0.      Q H.F.}  .[ A M n D +.{ u A O.O.O. .F ] +.[ n n x H ",
"s c c s c s c s s c [ %.O.{ O.{ A c x x x j Y <     . q.b.x.x.x.x.x.m.0.      Q H.F.} O.%.%.D 4 m O.] = u O.O.O.+. .O. .] 5 5 x H ",
"s s s c c s s c x x d n { +.+.%.{ ] c s D _ R ,     O w.M.x.x.x.x.x.m.8.      Q H.S.k +.O.O.F a c D M r m O.O.O.O.O.[ u d y y x H ",
"c c c s c s s s x s 4 5  .+.O.O.O.{ S x [ | W ,     O w.M.x.b.x.x.x.m.8.      Q H.A.q +.+.*.[ s x x n x S +.+.%.O.O.F * 4 x s s H ",
"x x x x s s c s x s a u n n ..O.O.{ n 5 [ o.W ,     . y.b.x.x.x.x.x.V.e.      Q H.S.g O.G n m s s n x x n n D %.O.O.#.S b r d [ $.",
"x x x s s c c s x s x s 4 = ..+.+.O.r $ [ o.W ,     . t.b.x.x.x.x.x.M.9.      Q H.S.k *.D * 6 s s s x x r 2 s &.+.+.%.O.] & 6 ..:.",
"s x s c s s s c x x s x a a N S n n F G ..| W ,     X w.b.x.x.x.x.x.m.9.      Q H.D.q D c a s c s x x x x s y d M O.O.O.O.G [ O.:.",
"x s c s c c c s x x x s x s s a 2 = [ +.O.' T ,     O u.M.x.x.z.x.x.V.e.      Q H.S.9 x s c s s x x x x x x a * 5 +.O.O.O.+.O.O.:.",
"G G G D c c s c s c s c D G G G A M M n { | R ,     O q.b.x.x.x.x.x.m.0.      Q H.S.9 s s c s c c s x x x x s r s O.O.+.O.O.O.O.:.",
"#.O...#.c s c s c s c c ..O.O...O.{ y = G | W ,     X t.b.x.x.x.x.x.M.0.      Q H.S.9 c c s c s s x x x x s s s b O.%.O.O.O.%.O.:.",
"O.[ c m c s c s x c G @.O.O.O.O.%.{ y = d v Y ,     O w.M.x.x.x.x.x.b.6.      Q H.D.C [ N s s c s c x x s x b [ [ O.O.O.{ M D %.>.",
"*.G 6 4 s s s s x c ..O.O.&.O.&.+.{ d 4 2 3 U <     O w.M.x.x.x.x.x.V.0.      Q H.F.} O.[ s s s s s x x x x S O.O.O.*.+.[ 2 r *.>.",
"M m a a s s s c x x N G O.O.O...F m 6 4 6 e U <     O q.M.x.x.z.x.x.M.0.      Q H.F.) F N s s c c s c s x x S O.O.O.{ M M r s D $.",
"* 5 s s s x c s x x s N ..O.O...y = = = a y Y <     X q.b.x.x.x.x.x.m.0.      Q H.F.C a s s s c s c s c x x D O.O.O.G * 2 d x s H ",
"a a s s x s x c x s c c N D D D d r a r s y Y <     X q.b.x.x.x.x.x.m.6.      Q H.S.h [ G G D s c s s c s x A O.O.O.[ 6 r n x x H ",
"x x x x x x x x x x x s s s s s s x x x s y Y <     O q.v.l.l.l.z.z.v.6.      Q H.A.9 +.&.O.@.s s c s s x x S O.O.O.{ x s x x x H ",
"c s s s x s x x s c s c s c c s x s x x x t Y <     O 3.k.g.g.g.g.g.k.<.      Q H.D.z +.{ F D s x x s x x x n M D O.{ G A s x x H ",
"s c s s s s x x c s c s c s s s x s x x x j U <     O 2.j.s.d.d.d.d.i.~       Q H.F.} O.[ s x x x x s s s s s = r =.+.O.{ x s x H ",
"s c D F D D c x s c s c s c s c x x x x x j Y <     + 2.h.s.d.d.d.s.j.<.      Q H.F.( D M s x x x x N S D D b 5 r D G *.O.D S s H ",
"s N ..O.+.O.c x x s c s c s s c x x x s x j Y <     @ 2.h.s.d.d.d.s.j.<.      Q H.F.z & 6 x s s s x S &.O...[ y s = r %.O.O.{ x H ",
"D G O...D D c x x x x s c s c c x s x x x j Y ,     + 2.h.s.f.d.s.s.h.<.      Q H.D.h 5 s x b F N s c F G ..{ F S 6 n +.%.O.[ s H ",
"+.+.O.G = & x s x x s x s c s s x x x x s y U <     + 2.j.s.d.d.d.a.j.<.      Q H.S.9 s x x D %.[ s r & 6 ..+.+.%.s S O.O.O...x H ",
"%.#.G B a n D N s c N N c s x c c s x s A V T ,     O 2.h.s.d.d.d.s.j.~       Q H.D.9 x s x b D D D N n m D [ *.O.S F O.O.O.O.S G ",
"O.G 6 6 #.......c s #.#.c x x s s s c s { | E ,     O 2.j.d.d.d.d.s.j.<.      Q H.S.9 x n x a 4 n O.O.{ F 4 u *.O.O...O.O.O.O...:.",
"A A n M O.O.{ F x c O...D F c x c s S D ..o.W ,     + 2.j.s.d.d.d.s.j.~       Q H.S.9 x b D b e M +.O.O.[ M S O.O.O.O.O...F G %.:.",
"2 r { O.%.+.c s x x ....O.O.c s s c [ O.O.X.W ,     O 2.k.s.d.d.d.d.p.<.      Q H.S.9 x D O.[ x F +.O.+.O.O.O.O.O.O.+.O.[ 4 r #.>.",
"2 r  . .] ] x x s b { O.O...D N c c ..&.O.X.W ,     O 2.h.s.d.d.d.d.p.<.      Q H.S.q S [ +.G s S [ [ O.%.+.O.[ [ [ [ O.] r r { -.",
"4 r { [ 2 = d x x n ..O.O.O.+.O.D c [ O.O._ R ,     O 2.h.s.d.d.d.s.d.~       Q H.S.k %.O. .G s r * d +.O.O.[ s s = r %.{ c s x H ",
"5 r D D r 5 x x s c F ] O.O.[ F b n D G ..' W ,     + 2.j.d.d.d.d.d.h.~       Q H.D.z +.O.O.G r u n A +.O.O.[ s s 5 d [ ] x x s H ",
"x u 2 = x c x x s s = 2 {  .5 = r s 4 % G o.W ,     + 2.h.d.d.d.d.d.j.~       Q H.S.k O.O.O.F 2 n +.+.O.%...[ s c c x s s s x x H ",
"s d r 6 x x x x x s 6 r G [ r 5 a u d r [ X.W ,     + 2.h.s.d.d.d.s.j.<.      Q H.D.k [ [ O.[ d S +.O.O...G D s s c x x x x x x H ",
"x s x s s x x x x x s x c x x d 5 4 G { ..| W ,     + 2.h.s.d.d.d.s.j.<.      Q H.F.l * M %.O.{ ..O.O.O.G 4 r s c s x x x x x x H ",
"x x x x x s c s c s c c s s N N n u A G F Z T <     O 2.h.s.d.d.s.s.h.<.      Q H.F.k = d ] [ O.O.O...F M 6 r x s x x x s c s c H ",
"x s x x x s s c s c s c s s #...{ [ u 5 2 1 U <     O 2.k.s.d.d.d.a.j.<.      Q H.F.z * 2 5 n O.%.+.G 2 6 x s s x s c s c s c s H ",
"x x x x x x b b c s c c c N ..O.O.{ y 2 6 e U ,     O 2.h.s.d.d.d.s.j.~       Q H.D.z r u r M O...[ A 4 6 s c s x s c x s c s c H ",
"s x x x s s O...c c s c ..O.O.O.O.{ u & [ | W ,     O 2.j.d.d.d.d.s.j.<.      Q H.F.} O.O.O.O...M & 5 x x x x s x x x x s c s s H ",
"x s x x s c [ [ b b x b ..&.O.O.{ [ n 5 ] | W ,     O 2.k.s.d.d.d.s.p.~       Q H.F.} O.O.O.O.O.G 5 u b c x x x s c s c s c s c H ",
"x x s x c c 4 6 [ { b c O.O.&.[ u 5 G { O.' R ,     O 2.j.s.d.d.d.s.j.<.      Q H.F.} O.O.O.O.O. .{ { { [ c s x c s c s c s s s H ",
"x x c N N c 5 5 { O.S N O.O.O.{ n u { *.{ Z T <     O 2.h.s.d.d.s.s.p.<.      Q H.F.` [ ] [ { O.O.O.O.G G s s s s c s c s c s c H ",
"x N O.O.O...5 5 { O.O.O.O.O.O.O.{ %.%.%.s 3 U ,     O 2.h.s.d.d.d.s.h.~       Q H.F.z * 5 4 n O.O.%.[ = 5 x x x c s c c s s s c J ",
"n b ....#.O.r 6 O.O.O.O.O.O.O.O.O.*.O.%.n 0 U ,     X 2.p.a.d.d.d.s.h.~       Q H.F.l 4 5 4 n ..{ O.F = 5 x x s s c s c s s c s H ",
"O.F 5 6 #.O.{ ..O.O...O.O.O.O.O.O.O.O.+.{ | W ,     + 2.h.a.d.a.d.d.j.~       Q H.F.` { D s x c x s c s s x x x c s c s s c s c H ",
"O.G 5 6 [ O.O.O.O.O.....O.O.O.O.O.O.+.O.%.o.W ,     + 2.h.s.a.a.d.s.j.<.      Q H.F.` ..F s x x x x x x x x x x s c c s s s c c J ",
"O.[ 5 4 = * O.O.O.{ 5 4 { ..6 5 F O.O.O.+.` R ,     + 2.h.s.a.a.d.d.i.<.      Q H.F./ s s x x x x x x x x x x s b &...s s s N &.>.",
"O.F 5 4 4 4 ..O...{ r r [ ..r 5 F  .%.O.O._ R ,     @ 1.p.h.h.i.h.d.i.~       Q H.F./ n x n x s x x x c b x c s n O.[ s c s N O.:.",
"O.F 5 5 s s O.{ 6 5 s s b c s d 5 5 [ %.S v Y <     X ^ y.4.4.4.4.y.u.L       Q H.F.`  ...{ D 4 r x S { { [ F 4 a O.[ = a #...O.:.",
"] F u 6 x b { ] r 4 s s x x s d e 5 F { M t Y <     X ; > > : : : : > -       Q H.F.( [ { ..A 4 r s b { { O.G 5 d *.[ 5 s ..O.O.:.",
"r r G [ [ { M b s s s x x x s s s s c b c x Y <       . . . .   . .     .     Q H.F.C 5 s b x s s s y r n O.%.[ [ O.%.[ [ O.O.&.:.",
"2 r  .%.*.%.n x x s x x s x x x x x x x x j Y ,         .                 .   Q H.F.l = r c s x x x s = u { %.%.+.O.O.O.O.*.O.O.>."
};
