/* XPM */
static char *result[] = {
/* columns rows colors chars-per-pixel */
"65 65 227 2 ",
"   c #000000",
".  c #0A0503",
"X  c #0B000D",
"o  c #0B0A0A",
"O  c #170507",
"+  c #1D1700",
"@  c #14120F",
"#  c #0F0211",
"$  c #120B13",
"%  c #141318",
"&  c #271C04",
"*  c #211A1B",
"=  c #003500",
"-  c #023A00",
";  c #0B3E00",
":  c #0D3F08",
">  c #1D3614",
",  c #342A04",
"<  c #3A2E0F",
"1  c #213818",
"2  c #3D3313",
"3  c #1C1C2C",
"4  c #231923",
"5  c #252324",
"6  c #333132",
"7  c #433A0F",
"8  c #004500",
"9  c #0E4201",
"0  c #004C00",
"q  c #114401",
"w  c #154B03",
"e  c #194E02",
"r  c #16490A",
"t  c #015300",
"y  c #0B5600",
"u  c #025B00",
"i  c #0C5A00",
"p  c #1C5304",
"a  c #195606",
"s  c #1E5B04",
"d  c #1F5113",
"f  c #205701",
"g  c #255E01",
"h  c #215C08",
"j  c #274C15",
"k  c #235714",
"l  c #006300",
"z  c #046C00",
"x  c #196A00",
"c  c #007A00",
"v  c #1A7A00",
"b  c #276001",
"n  c #296303",
"m  c #226E00",
"M  c #2D6A05",
"N  c #256209",
"B  c #2D640A",
"V  c #2C6C09",
"C  c #257700",
"Z  c #2E710A",
"A  c #317409",
"S  c #347709",
"D  c #357C0B",
"F  c #306513",
"G  c #366E13",
"H  c #387114",
"J  c #34482B",
"K  c #3E612C",
"L  c #6E5B06",
"P  c #7A6A0E",
"I  c #6D621B",
"U  c #776916",
"Y  c #786A17",
"T  c #44423B",
"R  c #575938",
"E  c #655F3E",
"W  c #466432",
"Q  c #746B2A",
"!  c #6D6530",
"~  c #444244",
"^  c #4C4A4C",
"/  c #4B5647",
"(  c #565B4D",
")  c #515151",
"_  c #575A56",
"`  c #5E5D5E",
"'  c #526748",
"]  c #6C6D4E",
"[  c #656459",
"{  c #666466",
"}  c #6A6766",
"|  c #707765",
" . c #8B7815",
".. c #8B7D22",
"X. c #248500",
"o. c #278900",
"O. c #2D8D00",
"+. c #368800",
"@. c #37810C",
"#. c #3A840C",
"$. c #3D8B0D",
"%. c #2E9000",
"&. c #359200",
"*. c #3A9400",
"=. c #3C9A00",
"-. c #3D8A10",
";. c #408E0E",
":. c #439702",
">. c #43940F",
",. c #46980F",
"<. c #438815",
"1. c #489515",
"2. c #499914",
"3. c #529E1D",
"4. c #54A01E",
"5. c #67944B",
"6. c #72AB4D",
"7. c #76906E",
"8. c #998518",
"9. c #988519",
"0. c #B39B15",
"q. c #BBA31E",
"w. c #928427",
"e. c #998C36",
"r. c #9F9236",
"t. c #A69425",
"y. c #AA9726",
"u. c #AC9928",
"i. c #B19D24",
"p. c #A99930",
"a. c #B9A738",
"s. c #BCAA3B",
"d. c #DDBE0F",
"f. c #DEBE10",
"g. c #D8BB19",
"h. c #E0BF0F",
"j. c #CCB52B",
"k. c #D6BC25",
"l. c #C1AC30",
"z. c #CDB835",
"x. c #D5BE36",
"c. c #DDC01E",
"v. c #E5C307",
"b. c #E6C30A",
"n. c #E9C60B",
"m. c #EDC90E",
"M. c #E4C313",
"N. c #ECCA12",
"B. c #E2C51B",
"V. c #ECCD1A",
"C. c #F4D214",
"Z. c #F9D716",
"A. c #FCDA17",
"S. c #F5D51C",
"D. c #F8D71A",
"F. c #FDDC1C",
"G. c #DDC325",
"H. c #DCC32B",
"J. c #DDC532",
"K. c #E8CB26",
"L. c #E7CA2B",
"P. c #EFD126",
"I. c #EED229",
"U. c #F1D225",
"Y. c #F7D826",
"T. c #FBDC22",
"R. c #F3D52A",
"E. c #F6D92B",
"W. c #F9DC2B",
"Q. c #E6CB31",
"!. c #EDD334",
"~. c #EAD23A",
"^. c #F1D633",
"/. c #F5D934",
"(. c #F9DD35",
"). c #F2D73B",
"_. c #F2D83C",
"`. c #F8DE3D",
"'. c #FAE13C",
"]. c #9FA74D",
"[. c #8F9578",
"{. c #8BBA69",
"}. c #CEBB47",
"|. c #E1CC43",
" X c #F4DC44",
".X c #F7DF47",
"XX c #FCE444",
"oX c #F7E14B",
"OX c #FBE54B",
"+X c #FBE756",
"@X c #F6E35D",
"#X c #FDEB5C",
"$X c #F5E261",
"%X c #FDEB63",
"&X c #F9E768",
"*X c #FDEC6C",
"=X c #FFF06B",
"-X c #FEED72",
";X c #FEEE7C",
":X c #FFF273",
">X c #FFF079",
",X c #878C86",
"<X c #889A82",
"1X c #95988A",
"2X c #939693",
"3X c #949B92",
"4X c #989897",
"5X c #8BA584",
"6X c #96A193",
"7X c #9CA698",
"8X c #A9B89E",
"9X c #A6AEA3",
"0X c #B8BDB6",
"qX c #BAC4AC",
"wX c #BAC5B4",
"eX c #B9C7B4",
"rX c #FDED86",
"tX c #FFEF8C",
"yX c #FFF284",
"uX c #FFF08C",
"iX c #FFEF92",
"pX c #FEED99",
"aX c #FFF091",
"sX c #C5C8B4",
"dX c #BFC0C0",
"fX c #C2C6C1",
"gX c #C4CCC1",
/* pixels */
"2.2.2.2.2.2.2.;.F B B B B B B B B B B B B B n ' _ ) ) ) ) ) ) ) ) ) ) ) ) ) ) { | x B B B B B B B B B B h r B 2.2.2.2.2.<.r r r k ",
">.>.>.>.>.>.$.$.n b b b b b b b b b b b b b b 1 # o o o o o o o o o o o o o   5 J b g g n g b b n b g g g q h >.>.>.>.>.#.w r q d ",
">.>.>.>.>.>.p a b b b b b b g b b b g x s g b > #                             * J s b s g g g b g g g q q q h >.>.1.>.>.>.@.Z 9 j ",
"$.$.#.>.;.-.e w g b b b b b b g n B u 9XfX0XqX] . + + + + + + + + + + + + + + & | wXdXfX9Xy n n g g s q q w b >.>.>.>.$.$.>.@.q k ",
"p e w p M M g g n g g g b b g M #.+.6.} ^ T T E w.8. .8.8.8.9.9.9.8.9.9.8.8.9...! ~ ~ ^ / x D $.V q h #.#.#.;.>.>.>.#.e s >.>.#.<.",
"; q q q g g b b g g g g b b g n #.%.wX{   o . e.|.^.I.P.R.R.I.P.U.I.I.I.R.I.!.J.I   o $ 1 b Z $.V = h 2.>.>.,.>.>.>.D : p -.>.2.1.",
"#.D g g b g b n ;.;.;.#.n g ;.;.>.X.wX{       r.~.Y.F.F.F.F.F.F.F.F.F.F.F.F.W.G.Y     X j >.,.,.>.#.$.>.>.>.>.>.>.r s -.A s N >.3.",
">.#.M g g g g n ;.>.>.;.n g ;.;.>.X.wX{       p.!.T.F.F.T.F.F.F.A.A.A.A.A.T.T.G.Y     X j ,.$.,.>.>.>.>.>.>.,.,.$.; s ,.#.q a >.4.",
"n n b M ;.>.>.#.f e #.>.>.>.>.#.h 8 0X{       r.^.F.F.F.F.A.F.Z.m.b.b.N.A.F.T.G.U     o j ,.$.$.>.,.>.1.>.>.D w w q e M n g s e k ",
"b b b V $.>.>.#.w q #.>.>.>.>.#.s - 0X{       e.~.F.F.F.F.F.F.Z.m.v.b.m.D.F.T.G.U     X j =.,.,.>.>.>.;.$.$.D ; ; q w b g b h q j ",
"b b b b n S >.>.D S h h $.>.s t m z sX{       t.^.T.F.T.T.T.T.V.M.v.v.m.D.A.T.G.Y       R {.v t m 2.D a s h N @.D f f b g b g g F ",
"b b b b g b $.>.>.<.p w $.O.7.,X,X[.[.R , , O i.E.F.T.W.'.'.XX/.C.m.m.N.C.Z.A.B. .& , , E 1X,X,X7.X.D 9 q q h $.;.g g g b g g g G ",
"b b b b b b p s >.#.e q p 8 3X_ 6 6 * ].}.J.H.I.T.T.Y.'.#X:X*X+X'.D.A.D.m.n.n.M.B.Q.x.}.e.3 6 6 _ 5Xi #.S 9 h >.;.g g g b g b g G ",
"b b b b b b q q >.-.p q q = 2X~       s.~.W.T.F.A.T.W.OX-XyX>X%X'.D.A.D.m.v.v.n.C.T.E.!.p.      _ 0X8 2.D ; p >.;.g b g g g g b G ",
"b g g b b b g g M M w q q = 2X~       s._.D.F.F.A.A.T.OX-XaXtX-XoXW.T.S.N.b.v.n.C.F.F.I.t.      ` gXX.>.>.#.#.>.#.q g $.<.;.@.b G ",
"b b b b b g g g g g q 9 ; = 2X~       s.^.T.F.T.A.T.E.OX;XiXiX;X&X+XOX`.V.b.v.M.C.F.F.P.t.      ` gX%.>.>.>.>.>.$.- p >.>.>.#.b G ",
"b b b g b n g n b n A D A C 3X~       s./.F.F.F.F.F.E.OX>XaXpXiXrX;X;X%XU.h.v.n.C.F.F.U.t.      ` gXX.s V >.>.>.>.A D >.-.N N b G ",
"g b b b b g n g b n #.$.;.&.6X~       s./.T.F.F.F.D.E.OX>XiXpXpXiXyXyX%XI.v.v.n.C.F.F.U.t.      ` gXv : s $.>.>.>.>.>.;.#.9 a h G ",
"b b b b g n g g b b h N ;.&.6X~       s./.F.F.A.F.F.E.OX>XpXpXaXuX>X:X#XP.n.v.n.C.F.T.U.t.      ` fXu a n >.>.>.>.>.#.h N f g g H ",
"b b b b n g g n g b q w >.=.6X~       s./.F.F.F.F.T.E.OX>XaXuX;X*X+XOX'.V.h.h.n.C.F.F.R.t.      ` fXt g Z ,.2.>.>.>.D - 9 g g g F ",
"n g n g g n g n b g f p N x 3X~       s./.F.F.F.F.D.E.OX;XiXtX-X.X/.W.T.N.b.n.n.C.F.F.U.t.      ` fXt b b N A >.>.>.;.A V e h D <.",
"g n g n g g n g b b b g q - 3X~       s.^.F.F.F.F.F.E.OX-XtXtX-X XY.F.S.n.h.n.n.C.F.F.U.t.      ` fXt b h 9 h 2.,.>.>.>.@.; w >.3.",
"g n g g g g g n b b b g p 0 2X~       s./.F.F.F.F.F.R.OX>XiXaX-XoX/.(.E.N.n.v.n.C.F.F.U.t.      ` fXt b g g s g M 2.>.>.>.@.@.>.3.",
"b g n g n g n g b b b g g u 3X~       s.^.F.A.F.F.F.E.OX>XiXaXrX-X*X#XXXU.h.v.n.C.F.T.U.t.      ` gXt b b b f - e >.>.>.>.,.,.>.3.",
"S D D S n g n g n g n n D C 6X~       s.^.F.F.F.F.F.R..X-XiXpXpXiXrX>X#X^.v.v.b.C.F.F.U.t.      ` fXt b b b g f g >.>.>.,.>.>.>.3.",
">.>.;.<.n g g n g n g M $.*.6X~       l.^.T.F.F.F.F.W.OX:XpXpXpXpXrXyX*X^.v.v.n.C.F.F.U.t.      ` fXt b g g g b M >.>.>.>.>.>.>.3.",
">.#.M n g g g n g g S <.>.&.6X~       s.I.S.Z.Z.C.Z.U..X-XiXpXrXrX*X=X+XK.b.b.n.C.F.F.U.t.      ` fXt g b b M @.#.>.>.>.-.V A >.3.",
",.@.e q g g n g g M ;.>.>.*.6X~       u.K.m.n.n.m.N.M._.-XiXiX;X@X X'.E.V.v.b.n.C.F.T.U.t.      ` fXy b b b M >.>.>.,.,.#.9 a 2.3.",
"V N f f g g n g g n A D ;.:.6X~       y.G.b.v.b.v.b.f.).-XiXuX*X XY.F.Z.m.b.b.n.C.F.F.U.t.      ` fXt b b b A ,.>.>.$.V V p g S <.",
"; w g g b g g n n g g M ;.*.6X~       y.g.b.b.b.b.b.f.).-XuXtX%X`.F.A.Z.m.b.v.n.C.F.F.U.t.      ` fXt b b b Z >.>.>.D - 9 b g g G ",
"p f g b g g n g g g n M S m 3X~       u.G.b.b.n.n.b.f.).-XaXuX*X`.F.F.Z.m.v.b.n.C.F.F.U.t.      ` fXt b b b A >.>.>.#.e p b b b H ",
"b b b b n g g n n g g g g y 3X~       u.g.n.b.n.b.b.f.).*XuXuX*X`.T.F.Z.m.b.b.b.C.F.T.U.t.      ` fXt b g g A >.>.>.$.b b b b b G ",
"n g g g g g b b b b b g g i 3X~       u.h.h.v.h.b.b.d._.-XuXrX*X`.T.A.A.m.b.b.n.C.F.F.U.y.      ` fXt b g b b V S ,.$.D S g b g G ",
"g g g g g g b b b b b b b y 3X~       u.g.n.n.n.n.b.f._.-XtXtX*X`.F.F.A.m.b.v.n.C.F.F.U.t.      ` fXt g g g p 9 p ,.,.>.$.g g b G ",
"g M A S S S n b b g b b b u 3X~       u.B.n.v.v.b.b.d.).:XiXyX*X`.S.F.C.n.b.b.n.C.F.F.U.t.      ` fXu S S S M w p S @.>.;.D A g G ",
"g M ;.>.>.>.n g b n b g g i 3X~       i.g.h.h.n.b.b.d. X-XtXrX*X`.F.F.F.m.v.b.n.C.F.T.U.t.      ` fXl >.>.>.@.g s ; p ,.>.>.#.b G ",
"S D >.;.D A n g b g n g b i 3X~       u.c.b.n.v.b.h.d.).-XuXuX*X`.F.A.Z.m.h.n.n.C.F.F.U.t.      ` fXu D D >.$.S S e N ,.>.>.#.g H ",
",.,.,.D q = g g b g g g b i 3X~       u.g.b.b.n.n.b.d.).-XtXuX*X`.F.A.Z.m.n.v.n.C.F.F.U.t.      ` fX8 - p $.>.>.>.g A >.>.>.$.b H ",
">.>.D S g N S M g g A A b i 3X~       y.K.h.v.b.b.b.d._.-XiXrX*X.XF.A.Z.m.n.v.n.C.F.F.U.t.      ` gXl N N D D >.;.M D >.>.>.;.S H ",
">.D e e #.;.;.;.n g ;.;.M i 3X~       y.g.b.n.b.b.b.d._.-XuXuX*X`.F.A.A.m.h.v.n.C.F.T.U.t.      ` gXo.$.D w h ,.>.>.;.>.>.;.>.>.3.",
"A V h V >.>.#.D n n $.>.S x 3X~       y.c.b.b.b.b.M.M.).*XiXtX*X'.F.F.A.m.v.v.n.C.A.F.U.t.      ` gX%.>.#.N A ,.>.>.>.>.;.D D >.3.",
": a #.>.2.>.n n b n $.,.>.&.3X~       y.c.b.n.b.b.b.h.).-XpXiX*X(.S.A.C.m.h.v.m.C.A.F.U.t.      ` gX%.>.,.>.>.,.,.,.>.>.@.q a >.3.",
"q a -.>.#.#.b b g n $.>.>.*.6X~       y.k.b.b.b.v.b.f._.*XiXtX$XI.N.m.m.n.n.v.n.C.F.F.U.t.      ` gXX.>.>.>.;.#.#.D #.>.#.p p #.1.",
"; f #.#.q - g b b M $.>.>.*.6X~       y.B.b.v.n.v.h.d.).-XaXrX$XK.v.v.v.h.n.v.n.C.F.F.U.t.      ` fX8 >.2.>.#.g g ; p 2.$.b b n G ",
"e p S A e e g g b n S D >.&.6X~       u.g.M.n.h.n.b.d.).:XaXuX@XK.b.v.b.b.b.v.n.C.F.F.U.y.      ` fXl ,.>.>.#.g g e f <.D M g g G ",
"g h - q g n n g b g 9 9 $.+.6X~       u.B.b.h.n.v.b.d.).*XuXuX$XL.b.v.b.v.b.h.n.C.F.T.U.t.      ` gX&.>.>.>.#.g b b g g g g g g G ",
"g g p e g n g n b g p e D C 3X~       u.h.h.v.v.b.h.f._.:XuXyX$XL.b.b.b.b.n.v.n.C.F.F.U.t.      ` gX%.>.;.D S g g b g n n n g n G ",
"g g g g g g n g b g g g g x 3X~       i.g.n.n.v.n.b.f.).-XiXuX$XL.b.v.b.b.v.n.n.C.F.F.U.t.      ` gXO.>.#.q p g b b n g g g n g G ",
"g g n n g g n g g n n g n i 3X~       y.c.b.b.b.b.b.d.).*XuXuX$XL.b.v.b.b.b.b.b.N.F.F.U.t.      ` gXo.@.V e p g b b g n g g n g G ",
"n g n g n g g n n g n g g a 3X~       y.c.b.b.b.n.h.d.).-XiXuX$XL.v.n.v.b.b.b.n.Z.F.F.R.t.      ` dXv 8 e b g g b b b b g n g n G ",
"n g g g g n M M g g n g M m 3X~       u.G.b.b.n.b.b.f.).*XuXuX@XK.h.v.n.b.b.b.n.C.F.F.U.t.      ` gXz q e g b g b b b b g g n g G ",
"g n g n g n >.;.M g g M >.*.6X~       u.g.n.n.b.b.b.f.).:XyXyX$XL.v.v.b.b.b.v.n.C.F.T.R.t.      ` fX= b b b b b g b b b g n g n G ",
"g n g n g g D #.M n n n $.*.7X^ $ @   w.j.g.g.d.b.b.f.).%X;X;X@XL.B.M.M.M.n.n.n.V.K.K.J.p.X % X ` 0X8 A n b b b g n n g n g g n G ",
"n g g n n n w w ;.#.V n ;.&.8X| / [ ] ! I L L 0.f.M.b.V.W. X.X X X X X!.P.C.C.c.0.P  .Q ! [ ( ( ' *.$.>.#.n g b n g g n g n g n G ",
"g n M M M M q r ;.>.Z A ;.>.O.6.5.wXsX(       9.g.n.b.M.N.M.g.!.#X:X-X%X(.D.F.c.P       ` sX{.{.6.*.;.D D g b g g n n g g n g g G ",
"n M <.>.>.;.e w $.>.>.>.>.>.>.*.+.c sX{       w.k.b.b.b.M.d.h.I.%XyXyX*XOXT.T.G.P     $ = - i :.*.>.D ; w g b b n g g n g g g n H ",
"n V #.;.>.>.p e >.>.>.>.,.>.,.>.,.%.eX{   .   w.g.h.n.v.n.b.b.V.+X:X:X#XXXY.F.G.Y     o > q N >.>.;.D ; e g b g g n g n g n g n H ",
">.D p p $.>.$.>.>.>.>.>.>.>.>.>.-.%.eX{       w.k.n.v.h.b.v.h.V.'.XXOX'.W.T.T.G.Y     X > g b n g g n g g b b b n g g g n g n g H ",
">.D w q #.>.>.>.>.>.$.$.>.>.>.>.1.%.eX{       w.g.b.n.n.b.n.b.N.D.E.E.Y.T.F.T.K.Y     X > b b b g g b b g b b b n n n g g g n n H ",
">.D w q ; ; >.>.>.$.e w $.;.e q D O.eX{   .   w.k.g.h.h.h.h.h.n.S.T.Y.Y.T.Y./.k.Y     # 1 g b b b b b b b b b b n 2.;.g n n M >.4.",
",.@.w q q 9 ;.>.>.#.p e #.-.p w D X.wX} $ * $ ..a.q.q.q.q.q.q.l.j.j.z.x.j.z.z.a.Q % 5 5 J M g g g b b M M n g g n >.$.g g M M >.3.",
">.D w w g g ;.#.e q g g M M b h r r X.[.4X1X1XE , < < < < < < 2 2 2 2 2 2 2 2 7 ] 1X2X3X<XO.Z q p b Z ;.$.;.A q a >.#.q f <.;.>.3.",
"#.Z a p M M $.@.e w g g b g g g e e D *.n y 5.W           . . .         .     % W :.+.+.+.#.Z q p g M #.-.>.D w h >.D w g ;.>.>.3.",
"a s D #.$.$.M M g h g b b b g g h g n M n b n > X     .           .           4 W :.D e h M b g g g g p N ;.;.#.$.>.>.#.#.>.>.>.3.",
"q d #.>.>.>.n b b g b b g b b b b b g b b b M 1 # o o o o o o o o o o o o o . 5 K :.A - e n g b b b g ; h ;.>.>.>.>.2.>.>.>.>.>.3."
};
