/* XPM */
static char *result[] = {
/* columns rows colors chars-per-pixel */
"65 65 238 2 ",
"   c #010101",
".  c #0D0300",
"X  c #090605",
"o  c #05040A",
"O  c #0B0B0B",
"+  c #160B00",
"@  c #161000",
"#  c #1A1203",
"$  c #17190E",
"%  c #090713",
"&  c #151514",
"*  c #1A1915",
"=  c #1D1B1E",
"-  c #221D11",
";  c #142D00",
":  c #003900",
">  c #0C3E00",
",  c #1B2415",
"<  c #1F2A15",
"1  c #292407",
"2  c #2A240B",
"3  c #282511",
"4  c #24261A",
"5  c #303313",
"6  c #201F21",
"7  c #1E2121",
"8  c #242325",
"9  c #2A2D24",
"0  c #272928",
"q  c #312D2E",
"w  c #2A3627",
"e  c #33322A",
"r  c #373836",
"t  c #443908",
"y  c #473B11",
"u  c #443C15",
"i  c #094900",
"p  c #124401",
"a  c #164B03",
"s  c #194E03",
"d  c #164909",
"f  c #005600",
"g  c #075A00",
"h  c #1C5304",
"j  c #195705",
"k  c #1D5B01",
"l  c #1F5212",
"z  c #245D01",
"x  c #235B06",
"c  c #274714",
"v  c #225613",
"b  c #176300",
"n  c #276001",
"m  c #296302",
"M  c #2D6B05",
"N  c #2C640A",
"B  c #2A6808",
"V  c #306A06",
"C  c #2C7A00",
"Z  c #2F740A",
"A  c #327B03",
"S  c #337B0C",
"D  c #2A6210",
"F  c #366D13",
"G  c #396E13",
"H  c #3A7214",
"J  c #314923",
"K  c #3D4537",
"L  c #554705",
"P  c #544708",
"I  c #494117",
"U  c #534814",
"Y  c #6B5E14",
"T  c #41731F",
"R  c #786609",
"E  c #6F6119",
"W  c #786918",
"Q  c #48472A",
"!  c #5E5729",
"~  c #45483C",
"^  c #4F5535",
"/  c #655D28",
"(  c #605930",
")  c #507137",
"_  c #66602F",
"`  c #776C2A",
"'  c #6B6637",
"]  c #7B7337",
"[  c #454843",
"{  c #4D4D4D",
"}  c #534F4B",
"|  c #4C5546",
" . c #535A4B",
".. c #565555",
"X. c #585D50",
"o. c #58664E",
"O. c #5A754C",
"+. c #5D6A56",
"@. c #6A6D4A",
"#. c #686A56",
"$. c #68785C",
"%. c #696D66",
"&. c #75786A",
"*. c gray49",
"=. c #8B7709",
"-. c #837314",
";. c #378605",
":. c #3A850C",
">. c #3A8909",
",. c #3D8B0D",
"<. c #46860E",
"1. c #408E0D",
"2. c #43940F",
"3. c #45990A",
"4. c #468917",
"5. c #499615",
"6. c #499914",
"7. c #51971D",
"8. c #539E1D",
"9. c #54A01C",
"0. c #538E29",
"q. c #569824",
"w. c #5B883C",
"e. c #60A429",
"r. c #5D8146",
"t. c #648B49",
"y. c #6B934F",
"u. c #718D57",
"i. c #6F9553",
"p. c #7BAA55",
"a. c #7C8665",
"s. c #7B8278",
"d. c #7C9271",
"f. c #98830E",
"g. c #958316",
"h. c #AB9518",
"j. c #A8941A",
"k. c #B8A21D",
"l. c #968625",
"z. c #998C33",
"x. c #9E9137",
"c. c #A89729",
"v. c #A99A37",
"b. c #B9A422",
"n. c #B9A635",
"m. c #C8AD15",
"M. c #C5AD1F",
"N. c #CCB21B",
"B. c #D6B915",
"V. c #C5AE25",
"C. c #CCB423",
"Z. c #C9B327",
"A. c #D3BB24",
"S. c #D4BC2B",
"D. c #C8B432",
"F. c #D3BE3B",
"G. c #DFC219",
"H. c #E6C30B",
"J. c #E9C60B",
"K. c #EDCA0D",
"L. c #F1CD0D",
"P. c #F6D30E",
"I. c #E6C512",
"U. c #E8C612",
"Y. c #EDCC11",
"T. c #E5C61A",
"R. c #E6C81C",
"E. c #EACB1A",
"W. c #F1CE11",
"Q. c #EFD016",
"!. c #F4D212",
"~. c #F9D615",
"^. c #FBD916",
"/. c #F4D41B",
"(. c #F8D71A",
"). c #FDDB1A",
"_. c #DCC42E",
"`. c #DBC53A",
"'. c #E6CA23",
"]. c #E3C92A",
"[. c #EDD22D",
"{. c #F4D623",
"}. c #F6D927",
"|. c #FBDB23",
" X c #F3D72E",
".X c #F5DB2E",
"XX c #F9DD2B",
"oX c #EBD339",
"OX c #F5DA33",
"+X c #FADE34",
"@X c #F5DC3C",
"#X c #FCE234",
"$X c #FCE53B",
"%X c #FEE93F",
"&X c #8D8651",
"*X c #AB9E46",
"=X c #A79C4E",
"-X c #A39B54",
";X c #AEA357",
":X c #ADA459",
">X c #B4A95A",
",X c #888B75",
"<X c #8BAC6E",
"1X c #BDB46F",
"2X c #CBBA4E",
"3X c #C7BC6B",
"4X c #DDCB55",
"5X c #ECD544",
"6X c #F6DE42",
"7X c #F9E342",
"8X c #FDE848",
"9X c #FEEB4D",
"0X c #FEEB52",
"qX c #F8E55C",
"wX c #FFEC5D",
"eX c #D3C76E",
"rX c #D8CB74",
"tX c #E9DA6B",
"yX c #F0DF63",
"uX c #E7D975",
"iX c #F7E564",
"pX c #FEEB63",
"aX c #F4E46F",
"sX c #FCEB6C",
"dX c #EEE07A",
"fX c #F3E373",
"gX c #FAE972",
"hX c #F7E77A",
"jX c #878986",
"kX c #889384",
"lX c #939991",
"zX c #99A085",
"xX c #9DA897",
"cX c #A9B299",
"vX c #A5AAA3",
"bX c #ABACAC",
"nX c #ADB0AB",
"mX c #B5C49D",
/* pixels */
"6.6.6.6.2.5.6.5.N N N N N N N N F N k kX&...........................X.................*.vXf N N N N N N m d D 6.6.6.6.6.:.s d d l ",
"2.2.2.2.2.2.2.:.m z n n n n n n n n g kX%.{ { { { { { { } } { { { { { { { { { { { { { *.vXf n n n n n n h p k ,.2.6.2.2.:.d a p l ",
"2.2.2.2.2.2.h h n n n n n n n n n n b #.r   O O O O O O O O O O O O O O O O & O O O   ..kXf m n z z z p a p x 6.2.3.2.6.1.:.Z p l ",
",.,.,.1.2.,.s a z n n n n n z V M M M o.q       o o   .   X X   o o       o     .     } ,Xb M C x z x p a a x 2.2.2.2.,.,.2.Z d l ",
"h s s h V B z z n n n n n n f xXnXvXbX&.5 1 2 1 2 2 1 2 3 3 3 3 3 3 3 1 3 < 1 3 4 - 1 ^ ,XbXnXxXw.: x :.:.:.,.3.2.5.,.h l 1.2.:.5.",
"> > p p z z n n z n n n n n k #.{ K r ! -.c.j.j.x.v.*X=X=X=X=X=X=X=X=X;X>X;X=X=X-X-X-X&X^ r r ..s.: k 6.2.2.2.2.2.2.Z > j 2.2.2.7.",
":.S z z n n n m :.1.,.:.m b ;.^ = X . P D.oX[.[.oXqXiXfXfXfXuXfXfXdXtXhXaXaXaXaXfXuXdX3X# o   r $.;.;.3.2.3.2.2.,.h x ,.Z h x 2.8.",
"2.,.V z z z z M 2.2.9.q.H F 8.^ *     t A.XX|.|.+X9XwXwXwXwXpXwXqXqXwXwXqXqXwXwXiXpXgX3X+     q $.9.q.9.q.q.2.2.,.> k 6.Z a h 6.9.",
"m m m m 1.2.1.:.h f ,Xs.*.a.a.' U 5 t =.'.).|.|.XX.X.XoX#X@X@X@XoX@X#X#X@X@X@X.X$X6X7X2XY I I Q @.s.s.s.jXxXC a s p a M n z z s v ",
"n n n B 1.2.2.:.a i r 0 0 9 , ` n.`.S.E.}.|.).).).Q.E.T.R.R.R.R.R.R.T.T.R.R.T.T.G.'.T._.4XrXeX1XQ = 0 0 q +.C > > p a n n n h p l ",
"n n n B V V 2.>.A 4.w o   .   W _..X|.|.(.).^.).).K.I.H.H.H.H.H.H.I.I.J.H.H.H.H.I.I.H.'.8XgXhXrXu       * [ M ;.C d x n n n z x N ",
"n n n n n n 0.0.0.<XQ .   .   -.R.}.).).).).).^.(.K.J.J.J.J.J.J.J.J.J.H.K.J.H.J.H.H.J.'.$X8XpX4XU       * | ) 0.0.4.h n n n z z F ",
"n n n n M M o.X. .+.! Y E W E k./.).).^.P.!.W.!.W.!.Q.P.~.P.P.P.P.P.!.!.!.Y.P.P.W.!.!./.{.[.oX`.c.` ' ] ' X. .X.X.u.k z z z m z F ",
"z n n n w.w.9 = = % x.`.].].].{.|.).).(.J.J.J.H.K.!.^.^.).).).).^.^.).).^.).).).).(.^.(.E.I.G.].5XtXuXuXeX] % = 8 K n z z z z z F ",
"n n z z t.y.,       n.{.XX|.(.).).).).~.J.H.H.H.K.~.).).).).|.).).{.).).|.|.).).).).).^.K.H.I.R.6XsXhXhXuX]     X 9 x ,.:.1.:.z F ",
"n n n n y.i.,       c.}.(.).).(.).).).!.J.H.H.H.K.^.).).|.XXXXXX#X.X#XOXXXXXXX|.).).).^.K.H.H.R.@XpXgXgXuX]     O 9 s 3.2.2.<.z F ",
"z n n n r.y.,       c.}.).^.).).).).).!.J.H.H.H.K.(.^.).XX$X8X8X8X8X8X9X8X8X$X|.).).).^.K.H.J.R.$XpXgXgXtX]     O w ;.2.,.n x n S ",
"n n n n i.p.,       b.{.|.).).).).).).~.J.H.H.H.L.^.).).|.%X0XwXpXpXpXpXqX0X%X|.).).).(.K.H.H.R.@XwXgXgXtX]     O w >.2.S a s x H ",
"k m n k cXmX9       k.}.).).|.).).).).~.J.H.H.H.L.!.).).XX%X9XwXqXwXwXwXwX0X8XXXXX|.|.(.I.H.I.I.#XwXwXpXyX]       e p.k b k z m G ",
"t.c c d &X,XQ U U y M.(.).).).^.(.~.~.L.W.L.L.L.!.!.^.(./..X$X7X$X7X7X7X7X$X$X$X$X#X+X}./.I.Y.W.}.$X6X6X5Xx.u ( Q  .$.; c c c c J ",
"vX4 $ $ e 4 c.b.k.m.T.(.).).(.!.K.J.J.P.~.~.^.^.~.!.L.L.Q./.{.(.{.(.{.{.{.[.#X8X0X8X8X7XXX/.^.~.E.E.'.'.A.`.2X3X3X&X8 $ $ $ , , , ",
"bX& o   @   Z.R.E.W./.(.).).(.!.J.H.H.K.).).).).).P.L.L.L.P.~.P.Q.Q.P.!.!.Q..X9XwXwXwX9X.X).^.).Y.H.H.I.G.[.pXhXuX:X  o o o % & & ",
"bX&     @   V.W.L.L.^.).).).).!.J.H.H.K.^.).).).^.L.L.L.L.P.P.P.P.P.P.P.P.W. X9XwXsXwX9X.X|.).).Y.H.H.J.I. XwXgXfX:X        O O O ",
"bX&     @   V.Y.L.L.^.).).).).!.K.H.H.L.^.).).).^.P.L.L.L.P.P.P.P.P.P.P.~.^. X0XpXsXpX9X+X).).^.K.H.H.H.I. XwXgXfX:X    .   O O O ",
"bX&     @   C.Y.L.L.~.).).).).!.H.H.H.K.).).).).^.P.L.L.P.P.P.P.P.~.P.P.^.!..X9XwXpXpX8X+X|.).^.Y.H.H.J.U. XwXgXaX;X        O O O ",
"bX&     @   C.K.L.L.^.).).).).~.J.H.H.K.).).).).^.P.L.L.L.P.P.P.P.P.P.P.P.!.#X9XpXsXwX0X+X|.).).Y.H.H.H.U. XwXgXaX;X        O O O ",
"bX&     @   C.Y.L.L.~.^.).).).Y.H.H.H.K.).).).).^.L.L.L.L.L.P.P.P.P.P.P.P.Q..X9XsXpXpX8X+X|.).^.Y.H.H.H.U. XwXgXaX;X        O O O ",
"bX&     @   A.Y.L.K.^.).).).).Y.H.H.H.W.).).).).^.P.L.L.P.P.P.P.P.P.P.P.P.Q..X9XwXpXpX0X+X|.).).K.H.H.J.I. XwXgXaX;X        O O O ",
"nX&     @   C.W.L.K.^.).).).).!.J.H.H.K.^.).).).^.P.L.L.L.P.P.P.P.P.P.P.!.Q.#X9XpXpXpX0X#X).).(.K.H.H.H.I. XwXgXaX:X        O O O ",
"bX&     @   C.Y.L.L.^.^.).).).!.J.H.H.K.^.).).).~.!.L.L.L.L.P.P.P.P.P.P.P.Q..X9XpXpXpX9X$X).).^.Y.H.H.H.I. XwXsXaX:X      X O O O ",
"bX&     @   V.K.L.K.~.^.).).).!.J.H.H.K.^.).).).^.W.L.L.L.P.P.P.P.P.P.P.^.Q..X0XpXpXpX9X$X|.).^.J.H.B.H.I.OXwXsXaX:X        O O O ",
"bX&     @   C.K.L.L.~.).).).).~.J.H.H.K.^.).).).^.!.L.L.L.P.P.P.P.P.P.P.P.Q..X9XpXpXpX0X+X(.).^.L.H.B.H.U. XwXsXaX;X      X O O O ",
"bX&     @   C.K.L.K.^.).).).).Y.H.H.H.L.).).).).^.P.L.L.L.P.P.P.P.P.P.P.P.!..X9XwXpXpX0X#X|.).^.W.H.J.H.U. XwXsXfX:X        O O O ",
"bX&     @   C.W.L.P.^.).).).).Y.H.H.H.L.).).).).~.L.L.L.P.P.P.P.P.P.P.P.P.^..X9XpXpXpX9X#X|.).^.K.H.H.H.U. XwXgXaX:X        O O O ",
"bX&     @   C.W.L.K.^.).).).).!.J.H.H.!.).).).).^.P.L.L.L.P.P.P.P.P.P.P.^.Q..X9XpXpXpX9X#X{.).).K.H.H.H.H. XwXgXaX;X        O O O ",
"bX&     @   C.K.L.L.).).).).).!.J.H.H.L.).).).).).P.L.L.L.P.P.P.P.^.P.P.P.Q..X9XwXpXpX0X.X|.).^.W.H.H.H.I..XwXgXaX:X        O O O ",
"vX&     @   C.Y.L.L.~.^.).).).!.H.H.H.L.^.).).).^.L.K.L.L.L.P.P.^.P.P.P.P.Q..X9XpXpXwX0X#X|.).^.K.H.H.H.I.[.wXgXaX:X        O O O ",
"bX&     #   C.K.L.K.^.^.).).).!.J.H.H.L.).).).).~.P.L.L.L.P.P.P.P.P.P.P.P.Q..X9XsXpXpX9X#X|.).).W.H.H.H.I.[.iXgXaX:X      X O O O ",
"bX&     #   N.K.L.K.^.^.).).).P.H.H.H.K.^.).).).(.P.L.K.P.P.P.P.P.P.P.P.!.Q..X9XsXpXwX9X#X|.).^.K.H.H.H.I. XpXgXaX:X        O O % ",
"bX&     @   C.K.L.P.^.).).).).W.J.H.H.K.^.).).).).P.L.L.L.P.P.P.P.P.P.P.P.Q.#X9XpXpXwX9X.X|.).^.K.H.H.J.I. XwXgXaX;X      X O O O ",
"bX*     @   Z.Y.P.K.^.).).).).P.H.H.H.K.(.).).).~.K.W.K.L.P.P.P.P.P.P.P.P.Q..X9XwXpXpX9X#X|.).^.K.H.H.H.I. XwXsXaX:X        O O O ",
"bX&     @   C.Y.K.K.~.).).).).P.J.H.H.W.~.).).).~.P.K.P.L.P.P.P.P.P.P.P.P.Q..X9XpXpXpX9X#X}.).^.K.H.J.H.I. XwXsXaX;X        O O O ",
"vX&     #   C.W.P.K.^.).).).).P.J.H.H.K.).).).).^.!.L.K.K.P.P.P.P.P.P.P.!.Q..X9XpXpXpX0X#X).).^.K.H.J.H.I. XwXsXaX:X        O O O ",
"bX&     @   C.Y.K.W.^.).).).).P.J.H.H.L.^.).).).^.P.L.K.L.P.P.P.^.P.P.P.P./..X9XpXpXwX9X#X).).^.K.H.H.H.T. XpXgXaX>X        o     ",
"xX0 = * - O V.N.B.B.Q.^.^.^.).P.J.J.J.L.^.).).).~.P.K.P.P.P.P.P.P.P.P.P.P.P.XX%XwXwX9X8X.X).^.^.Y.H.J.J.T.[.4XtXrX-X% = = = 8 8 6 ",
"w. .[ | #.#.E Y R Y N.~.^.~.~.Q.!.!.P.Q.P.!.Q.P.!.~.~.P.~.P.P.P.P.P.P.P.P.L.{.#X%X%X$X#XQ.Q.P.Q.!.Y.!.E.R.b.] ' @.' | | | |  . .X.",
"b O.) O.cXcX9       h.K.P.P.L.P.^.).).P.J.H.K.H.K.~.).^.^.~.K.K.L.L.L.P.L.L.!.).).|.|.|.Y.H.H.J.~.).{.).].=.    . Q w.t.r.r.r.r.u.",
"z k k s <X<X4       h.I.L.W.L.!.).^.).P.J.H.H.H.K.~.).).).P.K.P.L.L.L.L.L.L.!.).).|.).^.Y.H.J.J.~.).).|.].R     o 0 k b k k z b C ",
"m n n n w.w.<       h.I.K.W.K.~.).).).~.J.H.H.H.J.~.).).).P.P.P.~.P.P.L.L.L.~.).).).^.~.K.H.H.J.~.).|.|.].-.    O w n n n n k z T ",
"n n n n w.t.,       j.R.K.K.K.^.).).).~.J.H.H.H.K.~.).).).).^.~.~.~.~.~.^.^.^.).).).).~.K.H.H.J.!.(.|.|.'.R     O 9 n n n n n n F ",
"n n n n t.i.,       h.G.W.K.K.~.).).).~.K.H.H.H.K.~.).).).).).^.^.^.).).).^.^.).).).).~.K.H.H.J.~.).XX|.].W     O 9 m n n n n n F ",
"n n n z y.i.7 & O   j.B.U.I.B.!.).).).~.J.H.J.H.K.~.^.).^.).).^.).).).).).).).).^.).^.~.K.H.J.J.Y.{.[.[.S.W   O & q n n n n z n F ",
"n n m n G G K K [ [ -.g.g.f.f.B.!.(.^.!.K.K.K.L.P.~.!.~.~.~.P.^.~.~.~.!.~.~.~.~.~.^.~.!.W.L.Y.B.h.j.l.l.l./ [ ~ K | n z n n n m F ",
"n n B m n k O.$.a.zX~ 3 $ 1 # =.T.!.P.!.~.~.~.~.~.K.K.J.K.J.J.K.J.L.K.J.L.J.K.J.J.J.J.W.~.^.|.A.R # - - 2 o.lXO.t.) n n n n n n F ",
"n n m Z M B v s 7.e.c     .   R B.!.L.!.).).).).~.K.H.H.H.H.H.H.H.H.H.H.H.H.H.H.J.H.H.J.).|. XS.L       * | <.G G x n n n n n z F ",
"n M ,.,.2.,.a a 2.3.w * & $ o W k.A.B.Y.(.).).).~.K.H.H.H.H.J.H.H.H.J.H.H.H.H.H.I.H.J.E.E.[.`.n.P o & & 0 ..x z z m n n n n n m F ",
"B V :.1.2.2.h s 1.3.#.| [ ^ | / W W W j.B.).~.~.~.J.L.J.J.K.K.J.J.K.L.J.J.J.L.L.W.U.Q.N.=.-.-.` _ ~ [ [ { a.k n n m n n z n n n F ",
"2.S s a 2.2.,.1.2.3.2.4.>.p.<X) *     L m.W.L.L.L.L.K.K.L.J.L.L.L.L.L.L.K.K.P.~.).).XXV.2 o   e $.H V x N V n n m z n n n n n n F ",
"2.S a a :.1.2.2.2.2.1.2.3.5.6.^ *     L M.R.I.U.L.Y.Y.K.L.W.W.K.L.K.K.Y.W.U.U.)./. X Xn.+     e @.n z n z n n n m m m n z z n m H ",
"2.:.a p > > 2.2.2.1.a p 1.1.i | r = 6 P c.V.V.M.V.M.M.M.M.M.V.N.m.V.M.M.C.C.C.C.D.F.F.z.5 6 6 [ &.k n n n n n n m 6.,.n n n Z 6.9.",
"2.S a p p p 2.2.,.:.h a :.,.i lXkXjX,X@.U u y y y y y y u y y u y u y u y y u u I Q u ! &X,XjXlXvXf B B B n n z n 2.:.z z M Z 2.8.",
"2.S s a z z 2.:.j a z z n m x z h k ;.+.q     . .     .   .           .   .   .       { d.;.A i j n B 2.,.,.S p j 6.S p x :.,.2.8.",
":.S h h z V 1.S s a z z z n n k a a ;.+.q                                             { kX;.M p h n V ,.,.2.S a x 2.:.a x 1.2.2.8.",
"s l Z :.,.1.V z z z n n n n n z z z b #.r   O O O O O O O O O O O O O O O O O O O O   ..kXb B z z z z h x 2.2.:.,.2.1.:.,.2.2.2.8.",
"p j ,.2.2.2.m n n z n n n n n n n n b #.r   O O O O O O O O O O O O O O O O O O O O   ..kXf z z n n x p x ,.2.2.2.2.2.2.2.2.2.2.8."
};
