/* XPM */
static char *result[] = {
/* columns rows colors chars-per-pixel */
"65 65 231 2 ",
"   c #010100",
".  c #090501",
"X  c #090905",
"o  c #04040C",
"O  c #0C0B0B",
"+  c #140803",
"@  c #0F120D",
"#  c #1B1605",
"$  c #12110E",
"%  c #191609",
"&  c #0C0C12",
"*  c #121111",
"=  c #1C1B17",
"-  c #241B0D",
";  c #003C00",
":  c #0C3E00",
">  c #1A2414",
",  c #2C2609",
"<  c #31270B",
"1  c #342A0C",
"2  c #3B320F",
"3  c #2A2716",
"4  c #312C10",
"5  c #382F11",
"6  c #262526",
"7  c #2A2A29",
"8  c #2C382A",
"9  c #36392A",
"0  c #353534",
"q  c #373C35",
"w  c #393B36",
"e  c #383839",
"r  c #393939",
"t  c #463B0F",
"y  c #0A4601",
"u  c #124401",
"i  c #164B02",
"p  c #194E03",
"a  c #164909",
"s  c #005500",
"d  c #065A00",
"f  c #185603",
"g  c #1B5304",
"h  c #165B00",
"j  c #1D5C01",
"k  c #1D5608",
"l  c #1F5013",
"z  c #255D01",
"x  c #215904",
"c  c #394A1C",
"v  c #235515",
"b  c #186C00",
"n  c #276001",
"m  c #296303",
"M  c #2C6B05",
"N  c #266508",
"B  c #2D640A",
"V  c #2C7603",
"C  c #347703",
"Z  c #30750B",
"A  c #347B0C",
"S  c #366D13",
"D  c #397513",
"F  c #3C4436",
"G  c #3E5330",
"H  c #3A6720",
"J  c #4D410C",
"K  c #54480E",
"L  c #4D4417",
"P  c #544813",
"I  c #5C5218",
"U  c #6B5B11",
"Y  c #766716",
"T  c #4B4726",
"R  c #57522C",
"E  c #47483A",
"W  c #465736",
"Q  c #625927",
"!  c #625C35",
"~  c #496934",
"^  c #746825",
"/  c #6D6639",
"(  c #746B30",
")  c #4B4B47",
"_  c #4B5245",
"`  c #565746",
"'  c #565555",
"]  c #595957",
"[  c #605F55",
"{  c #55664A",
"}  c #587048",
"|  c #5C6557",
" . c #6E6D48",
".. c #656659",
"X. c #687756",
"o. c #75785B",
"O. c #666564",
"+. c #6E776B",
"@. c #757C68",
"#. c #727272",
"$. c #757E71",
"%. c #816F14",
"&. c #85751B",
"*. c #8A7818",
"=. c #937E14",
"-. c #897B28",
";. c #857A35",
":. c #827939",
">. c #368702",
",. c #328306",
"<. c #3A850D",
"1. c #3D8A0D",
"2. c #369100",
"3. c #3C9300",
"4. c #408F0E",
"5. c #419600",
"6. c #43940F",
"7. c #46980F",
"8. c #489313",
"9. c #499814",
"0. c #529E1D",
"q. c #54A11E",
"w. c #4F8333",
"e. c #688D4C",
"r. c #719358",
"t. c #758967",
"y. c #7B956C",
"u. c #7B8372",
"i. c #9A8517",
"p. c #AE971A",
"a. c #978626",
"s. c #9D903E",
"d. c #AB9723",
"f. c #AC9A2C",
"g. c #B9A325",
"h. c #B6A436",
"j. c #C5AA14",
"k. c #CDB118",
"l. c #D7B918",
"z. c #C0AA21",
"x. c #CBB428",
"c. c #D7BD23",
"v. c #CCB738",
"b. c #D3BD36",
"n. c #DDC21C",
"m. c #E6C30B",
"M. c #E9C50C",
"N. c #ECCA0E",
"B. c #F2CE0D",
"V. c #F6D10E",
"C. c #F8D30E",
"Z. c #E6C615",
"A. c #EDCC12",
"S. c #E3C51A",
"D. c #EBCB1A",
"F. c #F1CF11",
"G. c #F5D212",
"H. c #F9D613",
"J. c #FCDA16",
"K. c #F3D31B",
"L. c #F8D71B",
"P. c #FDDB1B",
"I. c #DCC326",
"U. c #D8C138",
"Y. c #E7CB26",
"T. c #E4CB2C",
"R. c #EFD226",
"E. c #F4D623",
"W. c #F6D925",
"Q. c #FBDC23",
"!. c #F2D52B",
"~. c #F6D92C",
"^. c #FADD2C",
"/. c #E2CA31",
"(. c #EBD031",
"). c #F5DA33",
"_. c #FADE33",
"`. c #FEE12D",
"'. c #FCE134",
"]. c #FBE33B",
"[. c #918850",
"{. c #A39644",
"}. c #A69C57",
"|. c #A89E52",
" X c #B9AB4C",
".X c #B5A852",
"XX c #828777",
"oX c #879876",
"OX c #83A272",
"+X c #B4AA64",
"@X c #C7BB5F",
"#X c #C5BC75",
"$X c #D6C44D",
"%X c #F2DE4F",
"&X c #EBD958",
"*X c #FCE544",
"=X c #FAE549",
"-X c #FCE649",
";X c #FEE94D",
":X c #F8E556",
">X c #FEEA53",
",X c #FEEB5C",
"<X c #D4C66B",
"1X c #D7CC79",
"2X c #DDD17E",
"3X c #E9D96B",
"4X c #E9DA72",
"5X c #FEEB62",
"6X c #F2E06F",
"7X c #FDEA6A",
"8X c #EEE073",
"9X c #F3E273",
"0X c #F6E578",
"qX c #868A83",
"wX c #969D8E",
"eX c #969992",
"rX c #999D95",
"tX c #9D9E9C",
"yX c #99A78C",
"uX c #9DA598",
"iX c #9FB990",
"pX c #A2AA99",
"aX c #A6B49D",
"sX c #A1A3A1",
"dX c #AEB5A8",
"fX c #B7BBB4",
"gX c #AFC294",
"hX c #B2C3A7",
"jX c #DCD485",
"kX c #C3C4C2",
"lX c #C8C9C7",
/* pixels */
"9.9.9.9.9.9.9.6.B B B B B B B B B B B B m A o.O.] ' ' ' ' ' ' ' ' ' ' ' ' ' ' ' ..u.e.j M B B B B B B B B u x 9.9.9.9.9.1.p a a v ",
"6.6.6.6.6.6.4.<.M z m z m z m m n n m n f r.@.r + @ O O O O O O O O O O O X X o = q W n n n n n n n n z x u x 7.7.7.6.9.Z g a u v ",
"6.6.6.6.6.6.x g z z m z z z z z z j j j s r.+.r                             .   $ 9 W f j j j j j j x i u u x 7.6.7.6.6.6.A Z u v ",
"1.<.1.6.4.4.i i z z z m m z d oXfXkXkXkXlXfX$.w $ % % % % % % % % % % % % % % % # ` yXlXkXkXkXkXdXe.f u u p N 7.6.6.6.1.1.1.Z a l ",
"p g p g M M z z n n n n z h oXXXO.] ' ' ' ' { / :.:.:.:.:.:.:.:.:.:.:.:.:.:.:.:.;. ...' ' ' ' ] ] { h 4.1.<.1.6.6.6.1.i N 6.6.Z 0.",
": : u u z z z z z z z z m z t.) = O $ $ O & R +X4X9X9X9X9X9X9X9X9X9X9X9X9X9X9X8X<Xs.3 o $ $ * * > 8 f 7.6.6.6.6.6.7.Z : k 1.7.6.0.",
"<.A z z z z m m <.1.4.,.h s r._ $           !  X4X7X7X7X7X7X7X5X7X7X5X5X7X5X7X7X3X[.-         o = c 2.3.3.5.7.6.1.p N 1.Z k N 6.0.",
"6.<.M n z z z M 6.7.2.aXfXfXwX` +           I  X:X,X>X>X>X>X;X>X>X>X>X>X>X;X>X,X%Xf.< . .       3 o.hXfXaXe.5.7.6.y k 7.Z u k 6.q.",
"M M n M 1.6.1.<.g p 6.} E 0 7 [.#X2X2X2X2X4X&X&X=X*X].'.^.`.^.`.~.^.^._.~.^.).^.).(.b.U.U.U.U.b.h.Q 7 0 ) X.,.i a u u M n z k g v ",
"z n n M 1.6.7.<.i u 3.W =   + XXjX0X0X0X0X7X&X=X].'.~.W.P.Q.W.Q.Q.Q.Q.Q.Q.Q.Q.Q.P.Q.W.^.~.!.).).v.I     7 { V : u u i n n n g u v ",
"z n n n Z Z 6.2.,.b iX..=   # }.3X7X5X5X5X,X;X].).W.Q.P.L.L.P.J.P.P.P.P.P.P.J.L.P.L.P.P.P.P.P.W.x.U     8 X.w.,.V k k M n z z x v ",
"n n n z z z >.yXXXu.qX..L t I .X&X>X;X=X-X*X'.`.R.K.L.K.G.G.G.G.C.G.J.G.G.G.H.G.G.J.P.P.P.P.P.W.I.i.2 L R  .@.u.t.f n n n z z x 4.",
"z m z z n n h #.r 7 6 / #X1X<X&X=X).].).`.~.K.D.Z.N.M.M.M.M.M.M.M.M.M.m.M.M.M.M.M.G.H.P.P.P.P.P.E.T.b.v.[.T 7 7 9 n n z z z n z S ",
"m z z m n n y { 6     ( <X0X5X>X*X'.).).`.L.K.M.m.M.m.m.m.m.m.m.m.m.m.m.m.m.m.m.M.N.J.P.P.P.P.P.P.W.Q.(.h.t     @ s B z z z z m S ",
"n n m d n j x { &     ! <X5X>X*X'.^.W.Q.P.J.G.F.M.m.m.m.m.m.m.m.m.m.m.m.m.m.m.m.m.B.J.P.P.P.P.P.P.P.P.E.g.2     c gXs 3.>.4.A m S ",
"n z x pX ._ _ ..( { ^ |.&X:X*X].`.P.`.K.G.F.F.G.F.F.A.A.N.F.G.N.F.F.F.F.A.A.V.A.G.A.F.G.H.H.P.P.P.P.Q.K.l.a.^ Q / +.F { +.5.4.m S ",
"n n j sX) 6 = _ +X1X4X&X%X=X_.^.^.P.P.A.m.M.B.G.J.J.J.P.J.J.P.P.J.J.J.J.J.J.J.J.J.J.N.m.N.V.J.P.P.P.P.P.R.T.b.v.{.o = 7 ) M N x S ",
"z n j rX0 O   T <X0X7X%X*X_.^.Q.P.P.J.N.m.m.N.L.P.P.P.P.Q.P.P.P.Q.Q.J.J.P.P.P.P.L.G.N.m.M.F.J.P.P.P.P.P.P.Q.^.!.h.    $ F i p z S ",
"n n z rXe O   P <X0X5X;X_.~.Q.Q.P.P.L.F.m.m.B.H.P.Q.Q.Q.Q.W.W.^.`.`.`.`.`.Q.P.P.P.G.M.m.M.V.J.P.P.P.P.P.P.P.P.!.f.    * q x g n S ",
"n n n rXe O   L <X0X,X-X_.^.Q.K.F.A.F.G.G.G.L.P.P.P.^.].*X-X-X*X=X].*X-X*X'.`.P.P.J.H.K.A.F.F.F.G.J.P.P.P.P.P.!.h.    * q z z z S ",
"n m j rXF X   L <X0X5X-X^.L.P.A.m.m.M.H.P.P.P.P.P.Q.'.;X,X5X5X,X,X,X,X,X,X*X`.P.P.P.P.P.L.F.N.m.M.G.P.P.P.P.P.!.f.    $ q y k A 8.",
"s s s wX9 o   L <X7X,X_.^.Q.P.M.m.m.B.G.P.P.P.P.Q.^.'.;X,X,X5X,X,X5X5X5X>X-X`.P.P.P.P.P.P.F.M.m.N.G.P.Q.P.`.P.!.d.    O T H s 2.5.",
"dXwXwXqXE     I <X:X>X_.Q.P.J.F.M.m.N.J.P.P.P.^.Q.~.].=X>X>X>X>X>X>X:X>X*X].`.J.J.J.J.P.J.G.N.m.A.K.Q.Q.P.Q.P.W.g.    & ` yXeXyXiX",
"qXO.O.' [.}.|. X&X=X*X~.D.N.A.G.L.G.J.P.P.P.^.].*X-X].)._.^.).).~.'.).~.`.W.G.H.H.H.P.P.J.H.L.H.P.).*X*X].Q.P.`.T.d.i.a. ...O.O.uX",
"0     , }.4X9X:X=X_._.K.M.M.Z.G.J.P.P.P.P.Q.'.-X,X>X].Q.J.G.G.H.G.K.G.G.H.G.B.B.F.G.L.P.P.P.P.P.^.].,X,X;X'.Q.P.K.E.Y.U.-.      #.",
"e o   , |.8X7X>X*X)._.D.M.m.m.H.P.L.P.P.P.Q.'.;X5X,X].W.G.C.C.V.V.G.V.V.V.V.B.B.B.G.J.J.P.P.P.P.^.-X5X5X;X'.P.P.P.P.L./.-.    O #.",
"r X   , |.8X5X;X].~.Q.K.M.m.m.H.P.P.P.P.P.Q.].;X,X,X].W.C.V.V.V.V.V.V.C.V.G.V.B.B.V.J.P.P.J.P.`.^.*X5X,X>X'.Q.P.P.J.L.T.-.    $ #.",
"r O   3 |.9X5X=X_.Q.Q.G.M.m.M.G.P.P.P.P.P.Q.'.;X,X,X].E.G.V.V.C.C.V.V.C.H.V.B.B.V.C.L.P.P.P.P.P.^.-X5X,X;X'.P.P.L.G.G.Y.*.    $ #.",
"r X   4 |.8X5X-X).Q.P.G.M.m.m.H.P.P.P.P.P.`.'.>X5X,X*XE.V.C.C.C.V.C.H.C.V.V.V.B.V.V.L.P.P.P.P.Q.^.-X5X,X-X^.Q.P.J.C.V.n.&.    * #.",
"r X   3 |.8X5X*X^.P.P.F.M.m.m.L.P.J.P.P.P.P.'.;X,X,X].W.C.V.C.C.C.C.V.C.C.V.B.B.F.C.J.P.P.P.P.P.^.*X5X,X;X'.P.P.H.C.B.n.&.    * #.",
"r X   4 |.9X5X*X~.P.P.G.m.m.M.H.J.P.P.J.P.Q.].;X,X,X].W.C.C.C.C.C.C.C.C.C.V.B.B.N.C.P.P.P.P.P.Q.^.*X,X5X;X'.P.P.G.C.V.n.&.    O #.",
"r X   4 |.6X5X-X_.Q.P.F.M.m.M.H.P.P.P.J.P.Q.'.>X5X,X*XW.V.C.H.V.V.C.C.C.C.C.B.B.V.C.P.P.P.P.P.P.`.-X,X,X>X_.Q.J.J.C.V.n.&.  . * #.",
"q X   4 |.8X5X;X`.Q.L.F.M.m.N.G.J.P.P.P.P.Q.].;X5X,X].E.V.C.V.V.V.V.V.V.C.C.C.B.B.H.J.J.P.P.P.Q.`.].,X5X>X^.Q.P.J.C.V.n.0..   $ #.",
"q X   4 |.8X5X*X~.P.P.G.m.m.M.H.P.P.J.P.P.Q.'.>X5X:X*XP.C.C.V.C.C.H.C.V.C.C.B.B.B.H.J.J.P.P.P.P.`.*X5X,X;X`.Q.P.J.C.V.n.=..   $ #.",
"0 X   4 |.8X5X*X`.Q.P.G.M.m.M.G.J.P.P.P.P.`.'.;X,X:X*XW.C.C.C.C.C.V.V.C.C.C.V.B.B.G.J.P.P.P.P.Q.`.-X5X,X;X'.P.J.J.V.V.n.&.    $ #.",
"r o   4 |.4X5X=X~.Q.P.F.m.m.M.H.J.P.P.P.P.Q.].;X,X,X].W.H.C.C.C.C.V.V.C.C.V.B.B.G.G.J.P.P.P.P.P.`.;X,X5X;X].P.J.J.V.V.n.&.    $ #.",
"r X   4 |.6X5X*X^.Q.P.A.M.m.N.K.P.P.P.P.J.Q.].;X5X,X].P.C.C.C.C.C.C.C.H.V.V.V.B.B.G.J.P.P.P.P.Q._.-X5X5X>X'.Q.J.J.V.F.n.&.    * #.",
"r O   4 .X9X5X*X^.Q.L.G.m.m.m.G.J.P.P.P.J.`.'.;X,X,X].Q.C.C.C.H.C.C.V.V.V.V.B.B.B.G.J.P.P.P.P.P.`.*X,X5X>X'.Q.P.H.C.V.n.&.    $ #.",
"r X   4 |.9X5X*X^.P.P.F.M.m.m.L.P.P.P.P.P.Q.'.;X,X,X*XW.G.C.C.G.V.V.C.C.C.V.B.B.B.B.J.P.P.P.P.Q.^.=X,X5X>X'.W.J.H.C.F.S.&.    $ #.",
"r o   4 |.8X5X*X).P.P.G.m.m.N.G.P.P.P.P.P.Q.'.>X5X,X].W.H.B.B.C.V.V.C.C.C.C.B.B.B.J.J.P.P.P.P.Q.^.*X5X,X;X`.P.P.J.C.V.n.&.  . O #.",
"0     , }.0X7X;X`.L.L.G.M.m.N.G.P.P.P.P.P.L.'.;X,X,X].L.G.C.B.C.C.C.C.C.C.V.B.B.B.B.J.J.P.P.P.J.^.-X5X5X;X'.P.P.J.C.H.I.&.      #.",
"O.) ) E [.@X$X$XR.`.J.G.N.N.A.G.J.J.J.P.P.`.`.*X>X;X_.E.B.C.C.C.H.B.V.V.V.H.V.V.B.J.J.P.P.Q.`.`.'.*X>X>X].^.L.L.B.j.j.g.^ E ) ) eX",
"qX$.t.XXE , , U I.`.K.H.J.J.G.F.B.N.B.H.L.P.`.`.^.Q.L.H.B.V.B.B.B.B.B.B.B.B.J.J.J.P.P.P.W.'.-X;X;X].`.`.Q.L.H.D.k.# - < ! pX@.u.pX",
"; s ,.yX9     K g.~.L.L.P.P.G.F.m.m.N.F.P.P.P.J.Q.P.H.B.B.B.B.B.B.B.B.B.B.J.J.P.P.P.P.P.`.*X>X,X>X].W.P.P.C.V.D.p.  . o ) dXs h V ",
"i g V rXr O   K x.R.L.J.J.P.J.N.m.m.N.G.P.P.P.P.P.P.G.C.B.B.B.B.B.B.B.B.B.B.J.P.P.P.J.P.`.].>X,X>X].P.P.H.C.C.D.d.    * q d N z S ",
"m g ; eXr O   K U.W.P.P.P.J.J.G.N.N.F.F.G.J.J.P.P.P.J.G.V.V.G.B.H.B.V.G.B.J.P.P.P.Q.'.'.].].;X;X*X'.Q.P.H.C.C.G.p.    * F j z z S ",
"n z i eXr O   K g.`.P.P.P.P.P.P.P.J.H.F.M.N.F.J.P.P.P.P.P.H.P.P.J.J.J.P.J.J.P.P.P.`.;X>X;X].'.Q.`.P.P.P.P.C.C.D.d..   * F n z m S ",
"n n z rX0 o   K x.`.P.P.P.P.P.P.P.P.H.F.M.m.A.J.P.P.P.P.P.P.P.P.J.J.P.P.J.P.P.P.Q.'.;X,X>X].`.Q.P.P.P.P.H.C.H.D.d.    $ w n z n S ",
"n n n uXr *   P h.(.R.E.P.P.P.P.P.P.H.N.M.m.N.P.P.W.Q.P.^.Q.Q.Q.Q.Q.Q.^.P.W.Q.Q.^.].>X,X;X].^.P.P.P.P.P.L.A.Z.l.d.  X * F m n n S ",
"n n z rX#.] ' R ;.d.a.k.D.P.P.P.P.P.P.H.N.G.L.`.'.].].'._._.]._._.]._._.].'.].].].].*X*X*X'.Q.P.P.P.P.H.A.p.i.=.( _ ' ] #.n n n A ",
"n n z s uXuXpXX.3 % # Y c.P.P.P.P.P.L.L.H.K.^.*X;X>X>X,X>X>X>X,X,X,X,X>X>X,X>X>X>X*X'.^.Q.Q.P.P.L.H.C.F.j.I   # T yXyXuXpXj n m S ",
"n n m m d s ,.X.> o   Q U.Q.P.Q.P.P.P.P.P.Q.'.;X,X5X7X5X7X7X5X5X7X7X7X5X5X5X7X5X,X*X`.Q.P.P.P.P.J.H.F.M.p.t     > C s d s m n n S ",
"n n n n z z >.X.6 = o Q x./.R.E.P.P.P.P.P.P.'.*X,X,X,X,X,X,X,X,X,X,X,X5X,X,X,X,X,X].`.J.P.J.P.J.J.A.M.n.d.t & = > z m n n n n m S ",
"n n n z n z ; t.O...] / ( &.i.x.W.Q.P.P.P.`.Q.'.].*X-X*X*X-X*X-X*X].-X*X-X-X*X].*X`.P.J.J.C.H.J.A.p.Y %.( ! ] [ ` n z n n n z m S ",
"n m M Z M M u ~ aXfXdX .3 . < d.T.Q.P.P.P.P.Q.Q.Q.~.^.Q.Q.Q.^.^.^.Q.Q.^.Q.Q.^.P.`.P.C.C.C.C.C.B.k.Y + - 9 @.fXdXyXh n n n n z z S ",
"n M 1.1.6.4.i y >.2.9.~ =   O *./.Q.P.P.P.P.P.P.P.P.P.P.P.P.L.P.P.P.P.P.P.P.P.P.J.J.C.C.C.C.V.A.k.K     7 { s s h N n n z n n n S ",
"M Z <.4.6.6.g g 1.7.5.~ 0 6 3 ;.v./.(.(./.T.R.K.P.J.P.J.J.P.P.P.L.J.J.J.P.P.J.J.P.K.D.Z.Z.Z.n.c.g.R = 6 F | z z z n n n n n n n S ",
"6.Z p g 6.6.1.1.6.6.3.OXu.@.o.` T L L L L K *.k.F.H.C.C.C.C.C.C.G.C.C.C.C.J.C.H.F.j.U t J L J K R  .t.#.qXoXh z n n n n n n n n S ",
"6.A i u <.4.6.6.6.1.6.3.3.3.r.R +           t j.F.H.C.C.C.C.C.C.C.C.C.C.C.C.C.B.m.i.+           = W w.j j j m m n M m n z z n m D ",
"6.A i u : : 4.6.6.1.p y 1.>.@.E %     .     K p.S.G.V.V.V.C.K.G.C.V.V.B.V.V.F.M.k.=.-   .     o = c j m n n n n m 7.1.z z n Z 6.q.",
"6.<.p u u u 6.6.1.<.g g <.>.t.] 0 6 6 6 6 6 L a.g.z.j.g.z.z.z.j.g.z.j.g.z.z.z.g.p.^ 9 3 6 6 6 6 0 E n m M m m x M 6.D z n M Z 6.0.",
"6.A i i z x 6.1.k p g z B m C oXtXtXtXtXtXwXo.T 5 < 5 5 , 4 5 , 1 < 4 5 1 < < 1 5 R XXtXtXtXuXtXrXy.b 1.1.1.Z u g 7.<.u x <.1.6.q.",
"<.Z g g m M <.A g i z n n n n f y y C 3.j e.@.e   . .   . . . . . . .       . . * E w.>.>.3.V y i M Z 1.1.6.A u x 6.A i x 6.6.6.0.",
"g k A <.1.1.M M z x z n n n n n z z M M f r.@.r       . .       . . . .   .     & G ~ y x M m x z z x p N 6.6.<.1.6.6.<.1.6.6.6.0.",
"u k 1.6.6.6.m z n z n n z n n n n n n n f e.t.0 O O O O O O X O O O O O O O O o = W { y p n n n n n j u k 1.7.6.6.6.7.6.6.6.6.7.0."
};
