/* XPM */
static char *result[] = {
/* columns rows colors chars-per-pixel */
"65 65 237 2 ",
"   c #010001",
".  c #0A0203",
"X  c #00000B",
"o  c #0B0609",
"O  c #0B0A0A",
"+  c #130500",
"@  c #051B04",
"#  c #171408",
"$  c #18160A",
"%  c #0A0914",
"&  c #1C1B1C",
"*  c #211400",
"=  c #002E00",
"-  c #11220B",
";  c #132A08",
":  c #003600",
">  c #023A00",
",  c #0B3E00",
"<  c #183808",
"1  c #192915",
"2  c #2C260D",
"3  c #362B04",
"4  c #332A0C",
"5  c #2A2718",
"6  c #312A10",
"7  c #2E3614",
"8  c #201920",
"9  c #252424",
"0  c #2A292B",
"q  c #373E2E",
"w  c #393737",
"e  c #403911",
"r  c #004700",
"t  c #0E4201",
"y  c #124401",
"u  c #154B03",
"i  c #194D02",
"p  c #174808",
"a  c #005400",
"s  c #0C5400",
"d  c #005900",
"f  c #0C5900",
"g  c #1C5304",
"h  c #1A5706",
"j  c #1D5904",
"k  c #1E5112",
"l  c #205702",
"z  c #255E01",
"x  c #225C08",
"c  c #2A4B1A",
"v  c #235614",
"b  c #0E6D00",
"n  c #196200",
"m  c #276001",
"M  c #296302",
"N  c #226E00",
"B  c #2D6B05",
"V  c #256209",
"C  c #2C640A",
"Z  c #2D6D09",
"A  c #287700",
"S  c #2E720A",
"D  c #347A02",
"F  c #31750A",
"G  c #347B0B",
"H  c #366E13",
"J  c #397214",
"K  c #394D32",
"L  c #504513",
"P  c #6A5C12",
"I  c #73630B",
"U  c #7B6A09",
"Y  c #776A19",
"T  c #7F7016",
"R  c #534B29",
"E  c #4C542F",
"W  c #464939",
"Q  c #635D35",
"!  c #49743A",
"~  c #736A33",
"^  c #434243",
"/  c #4A4748",
"(  c #50534A",
")  c #595949",
"_  c #555555",
"`  c #5B5956",
"'  c #596656",
"]  c #706B4E",
"[  c #77765A",
"{  c #5F5E62",
"}  c #6A6A67",
"|  c #6D7665",
" . c #6D746A",
".. c #757A68",
"X. c #787A75",
"o. c #867513",
"O. c #817526",
"+. c #827A39",
"@. c #847B38",
"#. c #807E7D",
"$. c #1E8000",
"%. c #2A8E00",
"&. c #358300",
"*. c #338D00",
"=. c #3B8A01",
"-. c #37810C",
";. c #3A850D",
":. c #3E8B0D",
">. c #289000",
",. c #349200",
"<. c #3D9301",
"1. c #398410",
"2. c #408F0E",
"3. c #419404",
"4. c #459904",
"5. c #43940F",
"6. c #46990E",
"7. c #499E0A",
"8. c #418C12",
"9. c #448518",
"0. c #449412",
"q. c #499814",
"w. c #4B9519",
"e. c #529E1D",
"r. c #54A11E",
"t. c #588937",
"y. c #5AA225",
"u. c #6CA93F",
"i. c #67944A",
"p. c #6DA645",
"a. c #6EAA43",
"s. c #71AD46",
"d. c #75866F",
"f. c #9A840F",
"g. c #9B8818",
"h. c #A79319",
"j. c #BDA61B",
"k. c #99892A",
"l. c #AA9930",
"z. c #B9A423",
"x. c #BEA824",
"c. c #BBA932",
"v. c #D2B30E",
"b. c #C7AD17",
"n. c #CEB317",
"m. c #D6BA19",
"M. c #C1A922",
"N. c #D3BA26",
"B. c #D4BF37",
"V. c #DDC01A",
"C. c #E5C201",
"Z. c #E6C30B",
"A. c #E9C60B",
"S. c #EDCA0D",
"D. c #F1CE0D",
"F. c #F6D20F",
"G. c #E5C512",
"H. c #E8C717",
"J. c #EDCB12",
"K. c #E4C61D",
"L. c #E7C91D",
"P. c #EBCC1B",
"I. c #F1CE11",
"U. c #F0CF19",
"Y. c #F5D212",
"T. c #F9D615",
"R. c #FBD917",
"E. c #F5D51C",
"W. c #F9D71A",
"Q. c #FDDB1A",
"!. c #DCC223",
"~. c #DBC53A",
"^. c #E7CB28",
"/. c #EBCD29",
"(. c #EED427",
"). c #EED32B",
"_. c #F6D924",
"`. c #F6D826",
"'. c #FBDC22",
"]. c #FADD2A",
"[. c #EBD031",
"{. c #F3D834",
"}. c #FADE32",
"|. c #FAE12F",
" X c #FBE232",
".X c #FBE33E",
"XX c #988F50",
"oX c #A59B57",
"OX c #B7AA4F",
"+X c #88856A",
"@X c #838C78",
"#X c #8AB270",
"$X c #B8B06E",
"%X c #C7B543",
"&X c #C4B862",
"*X c #CBBE61",
"=X c #CFC159",
"-X c #DBCA57",
";X c #EED951",
":X c #FBE341",
">X c #FDE646",
",X c #FDE94C",
"<X c #FAE554",
"1X c #FEEA54",
"2X c #FFED5D",
"3X c #FFF15A",
"4X c #D5C669",
"5X c #D4C871",
"6X c #E7DA7B",
"7X c #FFED62",
"8X c #F9E76D",
"9X c #FEEB6A",
"0X c #FFF066",
"qX c #F3E274",
"wX c #F8E671",
"eX c #FCEB73",
"rX c #F7E67B",
"tX c #888A87",
"yX c #8D978A",
"uX c #969A88",
"iX c #969B95",
"pX c #989C96",
"aX c #A19F94",
"sX c #93AB85",
"dX c #95A48B",
"fX c #9BA499",
"gX c #A5AE8C",
"hX c #A4AA9C",
"jX c #A4B49B",
"kX c #A5AAA4",
"lX c #ABB7A5",
"zX c #B6B9AB",
"xX c #B7BCB3",
"cX c #B5C1AA",
"vX c #BAC1B3",
"bX c #C0CAAC",
"nX c #C5C8C4",
/* pixels */
"q.q.q.q.q.q.q.0.Z C C C C C C C C C C C C C d fXtX( _ _ _ _ ` _ _ _ _ _ _ _ ` _ } pXkXd C C C C C C C C V p V q.q.q.q.q.8.p p p c ",
"5.5.0.5.5.5.:.;.M z M z z M z z m m m m m m d @X`   O O O O O O O O O O O O O   & #.hXa z z m m m m M z g t x 0.6.0.0.5.;.u y y v ",
"5.5.5.5.5.5.g h z m m M z M M z m m m V j z d @X`                               $ #.kXr z x M m m z z y y y x 6.0.6.5.5.5.G S y k ",
":.;.:.5.0.:.i u z m z z M M z M m V M d lXnXnXaXW   $ $ # $ $ # $ $ $ $ $ # # # 2 ] lXnXzXi.h M z z l y u y V 5.0.5.5.:.:.0.G p k ",
"g i u g B Z z z M z z z z M z B G 2.&.#X@X{ ) ) ] @.+.+.+.+.+.+.k.~ +.+.@.T T T Y ~ ( _ } X.N ;.S , z :.;.;.:.5.0.0.;.g g :.5.;.w.",
", y y y z z m m z z z z M z z M :.6.*.cX} . O + $XrXqXqXqXqXqXqX6XqXqXqX8X<X{.{.B.I . O 9 K A 5.F : x 6.0.0.5.5.5.0.F , h 5.0.q.w.",
";.G z z z z m M 2.2.2.8.M z 8.2.0.*.d zX}     + &XeX9X9X9X7X9X9X9X0X7X7X7X1X{.`.N.U     8 E ,.<.8.;.:.5.5.0.5.0.5.g h :.G g V 5.w.",
"5.;.B z z z z M 2.5.2.8.M z 2.2.,.jXvXhX)     * %X1X>X>X>X,X,X,X>X,X,X,X>X X].'.K.o.+   $ [ vXjX%.0.0.0.5.6.6.6.:., h 6.-.y g 5.r.",
"B M m B 2.2.5.;.l i ;.5.2.2.q.;.n q w 9 XX5X6X-X~.!.K.L.K.K.L.K.^.K.L.L.K.P.W.Q.'.).^.~.B.Q 0 ` sX<.0.0.0.0.G u u y y B m z l g v ",
"z m m B 2.0.5.;.p y ;.6.5.6.2.;.d @     OXbXeX1X(.G.Z.G.G.Z.Z.G.Z.Z.Z.G.Z.J.Q.Q.'.'.].[.B.Y   ^ yX,.0.:.5.:.G , y y u m m m h y k ",
"z m m m Z B 5.5.G D x x 0.*.f a sX)     h.;X7X:XP.Z.A.Z.Z.Z.A.A.Z.Z.Z.Z.Z.S.R.Q.W.R.Q.'.!.I . ^ sXy.G s h x V G S g z m z z x l H ",
"z m m m m m :.5.5.8.g y A vXtXX.tXE e L l.;X:X].P.D.A.J.D.D.D.S.S.I.J.S.D.Y.Y.Y.Y.R.W.'.P.f.3 R +Xd.d. .> y z 5.:.z z z m z z z J ",
"M m m m m M l g 2.:.i , r fX_ 0 % $X5X-X~.!.K.P.W.Q.T.Q.Q.R.R.Q.T.T.Q.Q.Q.Y.S.Z.S.Y.Q.Q.'./.~.c.9 0 0 K A y l 0.2.z z z m z z z H ",
"z m m m m z y y 5.2.g y > iX^     4XeX0X{.G.G.J.T.Q.Q.Q.Q.Q.Q.Q.Q.Q.Q.Q.Q.Y.A.Z.A.I.Q.Q.W.'.].N.      < -., h 0.2.z M l z z z z H ",
"m z m m m m l z B B u y : iX^     4X9X2X).G.Z.A.R.Q.Q.'.'._._.'.'._.Q.Q.Q.T.S.Z.A.Y.W.Q.W.Q.'.!.X     < 6.;.;.5.8.< x 2.8.8.G M H ",
"m z M z m m z m z z y , = iX^     4X9X1X(.G.C.S.R.Q.Q.|. X.X.X.X:X X].Q.Q.R.S.Z.A.Y.Q.W.Q.Q.Q.V.X . X < 6.5.5.5.:.> l 2.3.5.8.M H ",
"m z z M z z M z m z F G N fX^     4XeX1X).Z.Z.S.T.Q.Q.|.>X1X<X2X3X:X|.'.Q.T.A.Z.A.F.Q.Q.Q.Q.Q.V.X     1 S 5.5.5.5.F G 0.:.V V m J ",
"z M z M M z M z m M :.:.*.fX^     4X0X,X(.G.Z.S.W.Q.]..X1X2X7X7X2X,X XQ.Q.Y.A.A.A.Y.Q.Q.Q.Q.Q.V.X     @ d 0.5.5.5.5.0.:.-.u u m H ",
"M z M z M z M z m M z N 4.gXw     -X2X,X).Z.Z.G.Y.'.].:X,X3X3X2X1X>X].'.Q.R.A.Z.A.Y.Q.Q.Q.Q.Q.V.      ^ cX*.4.<.0.5.;.z j h j m J ",
"M z z M M z M z M V 1 1 k ) XXoXoX~.).(.E.Y.Y._..X:X:X.X X{. X X|.].E.Y.Y.Y.Y.Y.Y.F.I.I.Y.Q.Q.P.h.g.k.@.| i K d.3.q.G : t m m z H ",
"m m m m z M z M m m 1 O X . &X6XqX[.Z.G.Y.Q.'.].,X1X1X.X_.E.Y.Y.Y.Y.I.S.F.F.R.Q.Q.Y.A.Z.S.Y.R.W.P.K.!.l.  o 9 X.4.y.:.F Z g j G 9.",
"m m m m M z m z m m $   . . *XwX7X).C.Z.Y.Q.Q.}.,X7X7X.XW.Y.Y.F.Y.F.D.D.S.F.R.Q.Q.J.Z.Z.A.Y.Q.Q.Y.S.H.x.  . 9  .7.p.3.2.;., u 5.e.",
"m m z m m z m m z M -     . *X8X2X^.C.A.Y.Q.Q.}.,X7X7X:XE.Y.F.F.F.F.D.D.D.Y.Q.Q.Q.J.Z.A.A.Y.Q.R.F.D.I.M.    9  .B a.3.5.5.;.;.0.e.",
"z m M m m m m m M M @ .   . *XwX7X/.C.Z.Y.Q.'.}.<X7X2X:XE.Y.F.F.F.F.F.F.S.Y.R.Q.R.Y.C.A.A.Y.Q.R.Y.S.J.M.    9 } u s.3.5.5.5.5.5.e.",
"J 2.D F M z M z M z $ .   . *XwX0X/.C.Z.I.Q.Q.}.1X7X2X.X_.F.F.F.F.F.D.D.D.Y.Q.Q.R.I.Z.Z.A.D.Q.R.Y.S.J.M.    9 } z a.<.0.0.5.5.5.e.",
"2.2.5.G M z z M M M - .   . *XwX7X/.C.Z.Y.Q.'.}.1X7X2X:XE.Y.F.F.F.F.F.D.S.Y.Q.Q.Q.D.A.Z.A.I.Q.R.F.I.J.x.    9  .B u.3.5.5.5.5.5.e.",
"5.8.F z M M z M z B -     . *XwX7X/.C.A.Y.Q.'.}.1X7X2X{.E.Y.T.F.F.F.F.F.D.F.Q.Q.R.Y.A.Z.A.I.Q.Q.D.D.J.M.    9  .=.a.3.5.:.C S 5.e.",
"6.G i y z z M z z B - .   . *XwX7X/.C.A.I.Q.'.}.1X7X7X:XW.F.F.F.F.F.D.D.D.F.R.Q.Q.D.A.Z.A.I.Q.R.I.D.J.j.    9  .4.u.3.q.:.t g 5.e.",
"Z V l l z z z M z M -   . . *XwX7X/.C.A.Y.Q.Q.}.1X7X7X:XU.Y.F.F.F.F.D.D.D.T.Q.Q.Q.I.A.Z.A.Y.Q.R.Y.D.J.j.    9  .4.a.=.Z V g z F 9.",
", y z z z z M z m M -     . *XwX0X/.C.A.Y.Q.Q.}.1X7X7X}._.I.F.F.F.F.D.D.D.Y.Q.Q.R.Y.A.Z.A.Y.Q.R.D.D.J.M.    9  .4.u.D > u z m z J ",
"l l z m M z M z m M -     . *XwX2X/.C.Z.Y.Q.Q.}.,X7X2X:XE.Y.Y.F.F.F.F.D.D.T.Q.Q.R.I.A.A.A.Y.Q.Q.I.D.J.M.    9 ..4.u.&.g g z m m F ",
"m m m m z z M z m M -     . *XwX2X).C.Z.Y.Q.'.}.<X7X7X:XE.I.F.F.F.F.D.D.D.F.Q.Q.Q.D.A.Z.A.Y.Q.Q.D.D.J.M.    9 | 5.p.&.m z m m M H ",
"z z z z m m m m m M - .   . *XwX7X/.C.Z.Y.R.'.}.1X7X7X:XW.F.F.F.F.F.D.D.D.D.F.Q.R.Y.Z.Z.A.D.Q.R.F.D.J.x.    9  .D p.=.G F M z V H ",
"M M z z z z m m m m -     o *X8X0X/.C.Z.Y.R.'.}.1X7X2X}.W.F.F.T.F.F.D.D.D.F.R.Q.R.Y.Z.Z.Z.Y.R.Q.D.D.J.x.    9 } i a.4.5.;.M z z H ",
"z B S F G F m m m m $     O *X8X2X/.C.A.Y.Q.'.}.1X7X7X:XE.Y.F.F.F.F.F.D.D.R.Q.Q.R.Y.G.C.A.F.'.R.F.D.J.x.    9 } j t.&.5.2.G Z m H ",
"z C 2.5.5.5.M m M M -     . *XwX2X/.C.S.Y.Q.Q.}.<X7X7X:XE.I.F.F.F.F.F.D.D.R.Q.Q.Q.F.A.Z.A.F.Q.R.F.D.J.x.    9  .n ! g 5.5.5.;.m J ",
"G G 5.2.G F m z m m -     . *X8X2X/.C.Z.I.Q.'.}.,X7X2X:XE.Y.Y.F.F.F.F.D.D.F.Q.Q.R.J.G.Z.S.F.Q.Q.D.D.J.x.@   9  .D ! z 6.5.5.;.z J ",
"6.6.6.G t : z z m M -     o *X8X0X).C.Z.Y.Q.Q.}.1X7X7X:XE.Y.F.F.F.F.D.D.D.F.Q.Q.R.Y.A.Z.A.F.Q.Q.F.S.J.x.    9  .3.t.B 5.5.5.2.m J ",
"6.0.G F M V F Z m B -     O *XwX7X/.C.Z.Y.Q.W.}.<X9X2X:XE.Y.F.F.F.F.D.F.D.F.Q.Q.Q.F.S.Z.A.D.Q.Q.F.D.J.x.    9  .4.i.D 5.5.5.2.F J ",
"5.G i i :.:.5.;.m Z -     O *XwX0X/.C.Z.Y.Q.Q.}.<X7X2X:XT.T.F.F.F.F.D.D.D.F.R.Q.Q.J.C.Z.Z.Y.Q.R.D.D.J.x.    9  .4.s.=.5.5.2.5.2.e.",
"F C V Z 5.5.;.G m B ;     O *XwX2X).C.Z.Y.Q.Q.}.,X7X7X:XE.Y.F.F.F.F.F.D.D.T.Q.Q.R.D.G.Z.A.F.Q.R.F.D.J.M.    9  .4.p.<.0.2.G G 0.e.",
", h :.5.5.5.M m m B - .   . *XwX2X/.C.S.Y.Q.Q.}.,X7X7X:XE.I.F.Y.F.F.F.D.D.F.Q.Q.R.D.A.Z.G.F.Q.R.D.J.J.M.    9 | 4.s.<.5.;.t g 5.e.",
"y h 1.8.;.;.m m m Z -     . *XwX7X/.C.Z.Y.Q._. X,X7X2X.XW.Y.F.F.F.F.D.D.S.F.Q.Q.R.D.A.Z.C.T.Q.R.Y.S.J.x.    9 | 8.i.D 0.;.i g ;.w.",
"y i 2.;.y > z m m Z -     . *XwX0X/.C.A.Y.Q.Q.}.<X7X2X.X`.D.F.F.F.F.F.D.D.T.Q.Q.Q.F.S.Z.A.T.Q.R.Y.D.J.j.    9  .z ! g 3.:.M z M H ",
"u i F G i i z m m B @       4XqX9X/.C.Z.Y.Q.Q.}.<X7X2X.XW.Y.F.F.F.F.F.F.D.F.Q.Q.R.D.A.Z.A.F.R.R.J.S.J.c.    &  .m ! j ;.;.M m m H ",
"m x , , m m m m m j ( _ _ W oX*X=X^.A.D.Y.T.W.].>X>X>X XW.F.F.F.F.F.F.F.F.F.R.R.E.Y.S.G.S.F.R.G.b.b.z.k./ _ ` tXm t.z z z z m m H ",
"z z g i z m m m m h yXfXfXuXw     m.W.T.S.J.S.J._.].'.Q.F.D.D.D.D.D.R.Q.Q.R.A.A.A.F.R.R.R.F.F.V.4   X q gXpXfXkXf m M z m m z m H ",
"m m z m m z m m z x d d r pX^     N.'.Q.J.Z.Z.A.T.'.Q.T.Y.D.D.D.D.F.F.R.Q.T.C.Z.A.F.Q.Q.'.T.D.v.X     7 w.r r d V m m m m m m m H ",
"m m m m M z z z M z M M h pX^     n.'.Q.I.A.Z.A.Y.Q.Q.T.D.D.D.D.D.T.R.Q.Q.Y.A.Z.S.I.W.Q.R.T.D.v.X     ; A u g z m m z M z M z M H ",
"m m m m z M z M z M z z f pX^     N.'.Q.D.A.A.A.Y.Q.Q.W.T.Y.Y.F.F.T.Q.Q.Q.Y.A.Z.S.Y.Q.Q.R.T.D.v.    o @ u j z z m m m m z z z M J ",
"m m z z M z B M M z z M n iX^     N.'.Q.I.Z.Z.A.W.Q.Q.Q.Q.R.R.W.R.Q.Q.Q.Q.Y.Z.Z.A.D.Q.Q.R.Y.D.v.X     $ i m m m m m m m z M M z H ",
"z m m M z z 4.2.B z z B ,.fX^     N.].Q.S.Z.Z.S.T.Q.Q.Q.Q.Q.Q.Q.R.Q.Q.Q.Q.T.A.Z.S.Y.Q.Q.R.T.S.v.X     ; M m m m m m m m z z z M H ",
"M z M z M z ;.;.B B M M ,.fX/ X . c./.U.G.Z.Z.S.T.Q.R.R.Q.Q.W.R.Q.Q.Q.Q.Q.Y.Z.A.A.Y.Q.Q.R.E.m.j.$ % % 1 A M m z z M z M M z M z H ",
"z M z M M z p u ;.:.Z B *.jXX.` ` ~ O.o.b.P.J.I.Y.Y.Y.Y.Y.Y.Y.Y.Y.Y.Y.Y.Y.I.I.I.D.I.Y.Y.H.j.U Y Q ` { ' &.M z m M z M M z M M z H ",
"M M B M Z B y p 2.5.S S :.>.lXvXxX( . # h.P.Q.T.S.S.S.A.S.A.A.A.A.A.S.S.S.D.R.Q.W.Y.I.I.m.I . w uXcXxXlXN M m m z M M z z M z M H ",
"z B 5.5.5.2.i y :.5.5.0.0.0.,.,.*.,     g.^.Q.T.S.Z.Z.Z.A.Z.Z.Z.Z.Z.Z.C.Z.D.Q.Q.Q.Y.D.U.m.I   ^ yX>.A > k z m z M z z M z z M z H ",
"M Z 2.2.5.5.g i 5.5.0.5.5.0.5.5.7.c 8 % k.~././.H.Z.A.Z.Z.A.A.A.Z.Z.Z.A.A.D.R.Q.Q.H.m.V.M.P X _ dX*.G , u m m m z M z M z z M z H ",
"5.G u g 2.5.:.5.5.5.6.0.5.6.0.6.<.d.....Q R e P n.W.Y.F.S.S.S.S.S.S.S.S.A.S.F.T.G.g.L L R Q [ yXxXd M z z m m z M z M z z M z M H ",
"5.G u y :.2.5.5.5.5.:.:.5.0.5.:.0.<.>.jX{     + M.].Q.T.F.S.S.D.D.S.D.D.S.F.D.Y.n.I .   & W B f s x m m m m m m z M M z z M M M J ",
"0.G u y , > 5.0.5.:.i u :.:.g y -.6.,.lX}     + c.}._.Y.D.J.I.S.S.J.J.J.J.S.J.H.b.I   . 5 K m m m m m z m m m z B q.2.z M z B q.r.",
"5.G u y y t 5.5.:.;.g u :.;.g u G :.*.cXX.0 9 7 k.%X%Xc.j.z.z.z.z.z.z.j.z.z.z.z.l.P 9 9 w ' z z z z M B M B m z M 5.;.z z C B 5.r.",
"5.;.u u z z :.;.g y z z B B j z i u 1.%.dXhXpX+XE 6 2 6 7 4 4 2 6 6 2 2 2 6 4 6 7 ] uXaXkXfXb y g m B 0.:.:.G t l 0.G y l 8.2.5.e.",
";.F g g M Z :.-.u u z z m m z z i u G 2.B z d @X`   . . . .   O   . @ . . .     $ X.jX$.=.<.F y g M Z ;.:.0.G u x 6.G i l 2.5.6.e.",
"i j G ;.:.:.Z B z z m m m m m z z z M B m z f @X)         O     . .     .       O X.kX> x Z M z z z z g V :.0.-.:.0.2.;.2.5.5.5.e.",
"y k :.5.5.5.m m m z m m z m m z m z m m m m f @X`   O O O O O O O O % O O # %   $ X.kX: i M z M z z h y x 2.0.5.5.5.0.5.5.5.5.5.e."
};
