/* XPM */
static char *result[] = {
/* columns rows colors chars-per-pixel */
"65 65 220 2 ",
"   c #010000",
".  c #080401",
"X  c #06010B",
"o  c #0C010C",
"O  c #0B0B0B",
"+  c #030318",
"@  c #130614",
"#  c #221C00",
"$  c #0A2A09",
"%  c #003500",
"&  c #023B00",
"*  c #0B3E00",
"=  c #1C3512",
"-  c #2C270F",
";  c #213D16",
":  c #1F1821",
">  c #221E23",
",  c #262425",
"<  c #46390D",
"1  c #413510",
"2  c #443A14",
"3  c #413F3A",
"4  c #0D4201",
"5  c #004900",
"6  c #124401",
"7  c #154A03",
"8  c #194D02",
"9  c #164A09",
"0  c #174A0A",
"q  c #005400",
"w  c #0A5200",
"e  c #005A00",
"r  c #0A5A00",
"t  c #1B5304",
"y  c #1A5905",
"u  c #1D5A04",
"i  c #1D4E13",
"p  c #224E00",
"a  c #215701",
"s  c #255E01",
"d  c #225D08",
"f  c #284D15",
"g  c #235715",
"h  c #1A6900",
"j  c #087200",
"k  c #1A7300",
"l  c #276001",
"z  c #296303",
"x  c #2C6B05",
"c  c #256309",
"v  c #2C640A",
"b  c #2D6D09",
"n  c #287800",
"m  c #2E710A",
"M  c #31740A",
"N  c #347B0B",
"B  c #387E0B",
"V  c #306513",
"C  c #366E13",
"Z  c #3A7415",
"A  c #2D4226",
"S  c #38552D",
"D  c #3D672E",
"F  c #3D702F",
"G  c #52450F",
"H  c #6C5F19",
"J  c #746618",
"K  c #44433A",
"L  c #635A33",
"P  c #466F2E",
"I  c #786B26",
"U  c #736A2F",
"Y  c #464547",
"T  c #4C4B4C",
"R  c #4A5746",
"E  c #5A584A",
"W  c #545353",
"Q  c #585758",
"!  c #585858",
"~  c #57674F",
"^  c #65695A",
"/  c #6D7154",
"(  c #676766",
")  c #676669",
"_  c #68666A",
"`  c #697366",
"'  c #73786F",
"]  c #87720F",
"[  c #8C7C23",
"{  c #008400",
"}  c #278700",
"|  c #2B8D00",
" . c #338C00",
".. c #3C8D01",
"X. c #37810C",
"o. c #3A840C",
"O. c #3E8B0D",
"+. c #2F9000",
"@. c #359100",
"#. c #399500",
"$. c #3C9A00",
"%. c #3D8812",
"&. c #408F0E",
"*. c #439703",
"=. c #43940F",
"-. c #46990F",
";. c #438A15",
":. c #459512",
">. c #499914",
",. c #4A9518",
"<. c #529E1D",
"1. c #54A01E",
"2. c #5E973D",
"3. c #708E5D",
"4. c #6EA844",
"5. c #78A957",
"6. c #92801A",
"7. c #9D891A",
"8. c #A6921A",
"9. c #AD9718",
"0. c #BEA51C",
"q. c #968626",
"w. c #9F8F26",
"e. c #96882A",
"r. c #9F9027",
"t. c #948835",
"y. c #A18F26",
"u. c #A3922B",
"i. c #A79836",
"p. c #A49738",
"a. c #BDA92A",
"s. c #BEAB30",
"d. c #B9A83A",
"f. c #DCBB0C",
"g. c #C6AD1B",
"h. c #CDB116",
"j. c #DABA12",
"k. c #D5BA1F",
"l. c #E1BF01",
"z. c #E1BF0D",
"x. c #E1BF10",
"c. c #C7B12D",
"v. c #D7BB21",
"b. c #CAB638",
"n. c #D2BA32",
"m. c #D1BB3A",
"M. c #DFC118",
"N. c #E3C002",
"B. c #E6C20B",
"V. c #E8C309",
"C. c #EBC70B",
"Z. c #F1CD0F",
"A. c #E5C514",
"S. c #EECB12",
"D. c #E9C917",
"F. c #F1CE11",
"G. c #F4D113",
"H. c #F9D616",
"J. c #F2D21B",
"K. c #FAD818",
"L. c #FDDC1B",
"P. c #DBC229",
"I. c #DAC231",
"U. c #E9CC26",
"Y. c #EED126",
"T. c #EFD12C",
"R. c #F3D423",
"E. c #FADA24",
"W. c #F1D22C",
"Q. c #F6D92D",
"!. c #F9DC2A",
"~. c #E9CE36",
"^. c #E6CE38",
"/. c #EDD335",
"(. c #ECD23D",
"). c #F5D934",
"_. c #F4DA3C",
"`. c #FAE23C",
"'. c #80B05D",
"]. c #838C75",
"[. c #90917E",
"{. c #CBB944",
"}. c #EED740",
"|. c #F7DF45",
" X c #F6DF4C",
".X c #FAE242",
"XX c #FAE34A",
"oX c #FDE84C",
"OX c #F9E457",
"+X c #FEEB5D",
"@X c #FCE666",
"#X c #FDEA65",
"$X c #FDEA6D",
"%X c #FFF06D",
"&X c #FEED72",
"*X c #FEEE7C",
"=X c #FFF17B",
"-X c #8A8C88",
";X c #979B97",
":X c #999E98",
">X c #9BA598",
",X c #9EAD99",
"<X c #A3B19C",
"1X c #AAB7A5",
"2X c #B8B8A8",
"3X c #B5BAB4",
"4X c #B8BBB7",
"5X c #AFC4A5",
"6X c #B7C1B4",
"7X c #BBC7B8",
"8X c #FEED85",
"9X c #FEEE8D",
"0X c #FFF184",
"qX c #FFF08E",
"wX c #FEEF92",
"eX c #FDEE99",
"rX c #FEF090",
"tX c #C2D1B0",
"yX c #C7CAC7",
"uX c #D5D4D5",
/* pixels */
">.>.>.>.>.>.>.;.b v v v v v v v v v v v v v z ~ ! W Q W W W ! W W W W W W W W ' 3.y V v v v v v v v v v c 9 c >.>.>.>.>.%.8 9 9 g ",
"=.=.=.:.=.=.O.o.z l l s z l s s z s s l l s h ~ ! W W W W W W W W W W W W W W ! ^ y s z s s l l s l s s a 6 d ;.:.:.=.=.X.7 7 6 g ",
"=.=.=.=.=.=.d y l l l s s z z s z s z s s z z = @ O O O O O O O O O O O O O o > S s s s s l s s s s s 6 7 6 a =.=.=.=.=.=.X.m 4 i ",
"O.O.O.&.=.&.6 7 s l l l z s s z z z z z s y x ; O       . .                   : A h u z s c l x s s s 6 6 9 c -.=.-.=.O.&.=.M 0 g ",
"8 t 8 t x x s a s z s s s z s z B &.} ,X4X4X2X/ # # # # # # # # # # # # # # # # / 2X2X2X,Xq M o.b 6 a O.o.O.&.=.=.:.O.t u O.=.o.,.",
"* * 6 6 s s l l s s s s z s s z o.#.4.~ Y Y 3 I 7.7.7.7.7.7.7.7.7.7.7.7.7.7.8.r.L K K T R l M =.b % d :.=.:.=.=.=.:.N * t :.:.>.,.",
"o.N s s s l l z &.&.&.o.z s &.&.=.} 6X)   O   t.^.W.Y.T.Y.W.Y.Y.T.Y.R.W.W.W./.b.U   O @ f O.&.=.&.o.&.=.=.=.=.=.O.8 u %.m y c =.,.",
"-.o.x s s s s z &.:.=.&.z s &.:.-.| 5X(       r.U.!.L.L.L.L.L.E.L.L.E.E.L.L.E.I.I     X f -.=.=.=.=.=.=.=.=.=.=.O.4 u -.N 8 t =.1.",
"x z s x O.=.=.o.a 8 o.=.=.&.:.O.d 5 4X_       r.J.L.K.L.H.H.G.H.L.L.L.L.L.L.L.I.I .   X f -.-.=.:.=.=.=.:.:.M 7 8 4 7 x z z y 8 g ",
"s l l b O.-.=.O.8 * o.=.=.:.=.o.u & 7X_       r.R.L.L.H.S.V.V.Z.K.L.L.L.L.L.!.I.I .   X f -.=.=.-.=.=.:.O.O.N * 4 4 7 z s s a 6 f ",
"l l l l b b =.=.B M d d =.=.z t x j 7X_       y.R.L.L.H.V.V.V.C.H.K.L.L.L.L.L.I.I     X p @.n t x -.o.y d u c X.N t s s l s l a V ",
"s l s s z z o.O.=.&.t 6 X.%.& F 2.'.7X!       8.R.L.L.G.S.V.V.D.R.!.!.Q.E.L.E.P.I       ( tX5.D P ..M & 6 7 d O.O.s s z l l s l C ",
"l l l l s z t u =.O.8 * t 5 3X].` 3.].E G G 1 0.D.G.G.G.S.Z.S.Y.`.oXXX`.!.E.L.Y.8.G G G L ].3.' ` 5 e %.b 6 a :.&.s s s l s s s C ",
"s l z s s z 4 7 :.;.t 6 6 % :XW , , + p.m.I.P.D.A.C.B.S.H.L.K.`.+X%X%XOX`.E.L.E.Y.P.b.{.t.@ , , ! yX1X .B * u :.&.s z a s s s z C ",
"s l s z z s a s b z 7 6 6 % ;XY       d.).E.L.S.B.V.V.G.L.E.E.XX%X0X0X$X`.E.L.L.L.L.Q.}.p.      ! uX6X| &.B &.&.&.6 s &.&.&.B s C ",
"z s z s s z z s z s 6 * * $ ;XY       s.E.L.L.S.B.C.B.D.!.!.).OX*XrXrX&X`.E.E.L.L.L.L./.p.X     ! uX6X| =.=.=.=.o.* y =.&.:.o.s C ",
"l s s z s z s s z z b M M k >XY       s.E.L.L.S.V.V.l.T.|.OX+X&X9XrXrX$X|.E.L.L.L.L.E./.p.      ! uX3Xq b :.:.=.O.N X.-.O.c c l Z ",
"s z s s z s s z s z o.O.=.#.>XY       s.E.L.L.S.V.V.l._.#X*X0XqXwXeXrX$X`.R.E.L.L.L.L.(.p.      ! uX3X% a O.=.=.=.=.O.O.N 7 7 l C ",
"s z s z z s z s s z d c O.#.>XY       s.E.L.L.F.V.V.l.(.%X0X0XqXeXeXwX&X.XE.L.L.L.L.L./.p.      Q uX3X5 z =.=.=.=.=.o.c d t y z C ",
"z s z s s s z s z s 7 7 =.$.>XY       s.E.L.L.G.V.V.N.).+X$X$X=XrXeXwX$X|.E.L.L.L.L.E./.p.      ! uX4Xq m =.-.=.=.:.N & 4 s z s V ",
"l l l l z s z s l s a t v r :XY       s.E.L.L.F.V.V.l.Y.)..X|.@X*XwXrX$X`.E.L.L.L.L.L./.p.      ! uX3Xq c v M -.=.=.&.M x t d o.;.",
"l l l l s z s z l l l s 6 % ;XY       s.E.L.L.S.V.V.V.F.E.R.T.OX*XwXqX&X.XE.E.L.L.L.E.(.p.  .   Q uX3Xq a * d =.-.=.=.=.X.& 7 =.<.",
"s l s l s l z z l l l l a q :XY       s.E.L.L.G.V.V.V.G.E.E.Q.OX8XrXqX&X.XE.L.L.L.L.L.(.p.      ! uX3Xq s t a c x -.=.=.&.o.o.=.<.",
"s l z s l s z s l l l l s q >XY       c.E.L.L.F.V.V.z.R.`..XXX@X8XrXrX$X_.E.L.L.L.L.E./.i.      ! uX3Xq z z a * 8 :.=.=.=.=.=.=.1.",
"B B B B z s s z s z s z B n >XY       s.E.L.L.F.V.V.N.).+X%X&X*X9XeX9X&X`.R.E.L.L.L.E./.i.      Q uX3Xq l s s a s -.=.=.=.=.=.=.1.",
";.=.&.&.z s z s z s s x &.@.>XY       s.!.L.L.F.V.V.l._.%X=X0XrXeXeXrX&X.XE.L.L.L.K.L.).i.      Q uX3Xq l s s s x -.=.=.:.=.=.-.1.",
"&.%.x s z s s z s z B &.&.@.>XY       s.E.L.L.Z.V.V.l._.$X=X8X8XwXeXqX%X|.L.L.K.K.K.E./.w.      Q uX4Xq s z x o.o.=.:.=.O.v m =.1.",
"-.B 7 6 s s z s s z &.&.=.@.>XY       s.E.L.L.F.V.V.l.T.XXOXOX$X8XeXrX$X_.J.G.G.G.F.J.U.e.      Q uX4Xq s z m =.=.=.=.-.O.4 t -.1.",
"b v a a s s s z s z B B &...>XY       s.!.L.L.F.V.V.z.J.!.Q.).OX*XwXwX@X/.A.S.V.V.C.D.v.q.      ! uX3Xq l l M :.=.=.O.x c t a N ;.",
"* 6 s s s s z s z s z z &.#.>XY       s.E.L.L.F.V.V.V.F.K.L.E.|.&X9X9X@XT.f.V.V.V.V.V.k.q.      ! uX3Xq l l b :.=.:.N & 4 z z s C ",
"t a l l s l l l s s s z M n >XY       s.!.L.L.F.V.V.l.Z.K.L.E. X&X9XwX@X/.B.V.V.V.V.B.v.q.      Q uX3Xq s l b =.=.=.o.8 t z s z C ",
"l l l l l l l l z s z s s q ;XY       s.E.L.L.S.B.V.V.F.L.L.K. X&XwXwX$XW.f.B.V.V.V.A.v.q.      Q uX3Xq l l m =.=.:.O.l s s s z C ",
"s z s s z s l l s l l l l e :XY       s.E.L.L.S.V.V.B.H.L.L.K.XX&X9XwX$XT.z.B.V.V.V.B.v.q.      ! uX3Xq l l z b M -.&.B m s s s C ",
"s s s s s s l l z l l l l q :XY       s.E.L.L.G.V.V.N.Z.K.L.R.XX&X9XrX@XT.x.B.V.V.V.B.v.q.  .   ! uX3Xq s s t 4 t >.-.=.&.s s z C ",
"z z M M M M s s s z l l l e :XY       s.E.L.L.Z.V.V.N.Z.K.L.R..X&X9XrX$XW.x.B.V.V.V.B.k.q.      ! uX3Xh M M b 8 t N N :.&.M b z C ",
"s z &.=.=.=.x l z s l s l r :XY       s.E.L.L.Z.V.V.V.G.L.L.E..X&XwXrX$XT.z.V.V.V.V.B.v.q.      ! uX6X+.=.=.o.a u * y =.:.&.&.s C ",
"B B =.&.N M l s s s z s s r :XY       s.E.L.L.G.V.V.B.S.L.L.K.XX&X9XwX@XT.x.B.V.V.V.B.v.q.  .   Q uX3Xj M &.O.N M 8 s :.:.=.&.s C ",
">.-.=.o.4 % s s s z s s l r :XY       s.E.L.L.G.V.V.B.Z.H.L.K.XX&X9X9X@X/.x.V.V.V.V.B.v.q.      ! uX3X$ 8 &.:.-.&.z b =.=.=.&.s C ",
":.O.B b s v M b z s M x z q :XY       s.E.L.K.G.V.V.V.V.G.H.H._.&XwX8X@XW.z.B.V.V.V.B.k.q.      Q uX3Xe v N N :.&.M B =.=.=.&.M Z ",
"=.N 8 t o.&.=.o.z s &.&.x q :XY       s.E.L.L.S.B.V.V.C.S.V.V.(.$X9XeX$XT.z.B.V.V.V.B.v.q.  .   Q uX6X} N 7 u -.=.&.=.=.=.=.&.=.<.",
"N b s b :.;.o.N z c O.=.B h >XY       s.E.L.L.Z.z.V.V.V.V.V.f.^.$XwXwX$XW.x.z.V.V.V.x.v.q.      ! uX6X| o.z M -.=.=.=.=.&.M N =.<.",
"* y o.=.:.:.z z z z O.=.=. .>XY       s.Q.L.L.Z.V.V.V.V.V.V.l.^.$X9XwX@XT.z.C.B.V.V.V.k.q.      ! uX6X+.:.=.=.:.=.=.=.=.o.4 t =.<.",
"6 y &.:.o.o.z z z z O.=.=.#.>XY       s.E.L.L.F.V.V.V.l.V.V.l.~.$X9X9X$XT.x.B.V.V.V.B.v.q.  .   ! uX6X+.=.=.&.o.o.o.o.=.o.t a o.,.",
"6 t o.o.6 & s s z z O.=.=.#.>XY       s.E.L.L.G.V.V.V.V.V.N.l.~.$X9XwX@XW.z.B.V.V.V.B.k.q.      Q uX6X@.-.=.o.s a * a :.&.l l s C ",
"8 t M m 8 7 s z s z M X.&. .>XY       s.E.L.L.S.V.V.V.V.V.V.B.^.$X9X9X$X~.z.B.V.V.V.B.k.q.      ! uX6X+.=.=.o.s s 8 s &.N z s l C ",
"s u * 4 z z z s z s * 4 o.} >XY       s.E.L.L.S.V.V.V.V.V.V.l.~.$XwX9X$XT.B.V.V.z.V.B.k.q.      Q uX6X| =.=.o.s s s s s s s s z C ",
"s s 8 8 s l s z s z 8 t B n >XY       s.E.L.L.H.V.V.V.V.V.V.N.~.$X9XwX$X~.z.V.V.V.V.V.k.q.  .   ! uX6X+.:.N M s z s s s s z s z C ",
"s s z s l l s s s z s z v r >XY       s.E.L.L.Z.V.V.V.V.V.N.N.^.$X9X9X@XT.z.B.V.V.V.V.k.q.      ! uX6X| B 6 a s z s z s z s z s C ",
"l l l l l l l s z s z s z r :XY       s.!.L.L.G.V.V.V.V.V.V.l.^.$XqX9X#X~.B.V.V.V.V.V.k.q.  .   Q uX3Xk b 8 t s l l s l s z s z C ",
"l l l l l l s z s z s s s r :XY       s.E.L.L.G.S.V.V.V.V.V.f.T.@X9X9X@XW.f.B.V.V.V.B.v.q.      ! uX3X% 7 z s s l l l l z s s l C ",
"l l l l s l x x z z s z x z >XY       s.E.L.L.S.l.V.V.V.V.V.N.^.$X9XwX$XT.x.z.V.V.V.B.v.q.      Q uX3X% 8 l l s l l l l l z z l C ",
"s s l l s s &.&.z s s x =.#.>XY       s.!.L.L.S.V.V.V.V.V.V.N./.$XqX9X$XT.z.V.V.V.V.A.v.q.      Q uX3Xq l l l s s l l s s s s z C ",
"z l s s z s ;.B x z z x O.@.,XT   O   d.~.T.R.A.B.B.V.A.A.A.M.^.@X*X*X+XY.f.B.V.f.f.h.c.t.  O   W yX1Xe v l s s z s s z s z s z C ",
"z s s s z s 7 8 O.O.z z O.#.1X' E Q E U [ 6.] g.D.S.S.R./._.(.(.XXXXXX_.J.B.A.j.9.] ] J U E W ! ` '.5. .o.z s z s z z s z s s s C ",
"s z b M M z 6 7 O.:.m M O.:.} <X4X3X4XE   O   y.R.H.H..X+X$X$XOXY.P.D.M.A.V.V.h.J       E 2X3X4X<X+.@.N N s z s z s s z s z s s C ",
"z x &.=.&.&.8 6 O.-.=.-.:.=.:.+. .{ 7X)       r.T.L.L.XX&X0X0X+XU.B.A.B.B.V.B.g.H       f F e @.#.:.o.* t s s z s z s z s s z z C ",
"z m o.&.=.=.t 8 O.-.O.-.-.O.-.-.:.+.7X_       r.T.L.L.`.%X=X&XXXY.B.V.V.V.V.V.g.H     O $ 6 v O.=.=.N * 7 s s z z s z z s s z s C ",
"=.N 8 0 &.=.:.&.O.-.-.:.:.-.O.-.:.| 7X_       r.T.L.L.`.XXoXoX).S.B.V.V.V.V.A.g.H     o = c s l z z z s s s z s s z s s s z s z C ",
"=.N 7 7 o.&.=.=.-.O.O.O.=.:.-.O.:.| yX_       r.T.L.L.!.!.!.!.E.B.V.V.V.V.V.A.g.H     X = l l l s a z s z s s z z z z s s z z z Z ",
"=.X.7 6 * * =.=.-.O.t 7 o.:.8 w N | 7X_       u.T.!.E.R.E.E.E.J.A.j.M.B.A.B.j.a.H     X = l l l l l s z s z z z z >.&.s z z x :.1.",
"=.N 8 6 4 4 =.=.&.o.t 8 o.O.t 7 N } 5X_ : > + [ d.I.I.n.n.n.n.c.g.g.0.g.0.g.a.y.H : > , A z z z z z s l z x z s z =.o.a s x x &.<.",
":.N 8 7 s s O.O.8 6 s s x x s y 8 9 } 3.-X-X-XE G - 2 2 2 2 1 1 1 - 1 1 - < - 2 / [.-X-X3. .b 6 t s x =.o.O.m 4 a -.N 6 a ;.&.=.<.",
"X.N t 8 x z O.X.8 7 s l l l s s 8 7 M *.x w 4.P   .       X X .   . . . . . . @ / '. ...=.;.m 6 t z b O.O.:.X.7 d -.o.7 s &.=.=.<.",
"t y X.o.O.O.x v s s s l l l l s s s v x l s z = o     . .       .     .   .   : S *.N 6 z x s s s l a 8 c =.O.o.o.:.=.o.o.:.:.=.1.",
"4 u %.:.:.=.z z s s s z s s z s s z s z s s z ; @ O O O O O O O O O X O O O   : D #.N * 8 s s s l l s * a ;.-.=.=.:.=.=.-.=.=.=.1."
};
