/* XPM */
static char *result[] = {
/* columns rows colors chars-per-pixel */
"65 65 246 2 ",
"   c #010000",
".  c #070306",
"X  c #1A0209",
"o  c #110F1C",
"O  c #270006",
"+  c #360004",
"@  c #270215",
"#  c #330A1A",
"$  c #002F00",
"%  c #013800",
"&  c #0C3D01",
"*  c #3A0922",
"=  c #2D1624",
"-  c #302D33",
";  c #480002",
":  c #570007",
">  c #5D0001",
",  c #530B17",
"<  c #630004",
"1  c #6C0004",
"2  c #60000A",
"3  c #6B000E",
"4  c #67231A",
"5  c #4B0B2A",
"6  c #560A2A",
"7  c #54152D",
"8  c #5A1235",
"9  c #661129",
"0  c #671339",
"q  c #76143E",
"w  c #4D3132",
"e  c #693134",
"r  c #0E4301",
"t  c #024A00",
"y  c #124401",
"u  c #154B03",
"i  c #194E03",
"p  c #15470A",
"a  c #015300",
"s  c #075600",
"d  c #145401",
"f  c #1B5304",
"g  c #155B02",
"h  c #1D5A03",
"j  c #1F5213",
"k  c #255D02",
"l  c #265C07",
"z  c #22530C",
"x  c #166300",
"c  c #276001",
"v  c #296302",
"b  c #2C6A05",
"n  c #256208",
"m  c #2C640A",
"M  c #2C6D09",
"N  c #326B03",
"B  c #2C7601",
"V  c #2F710A",
"C  c #347903",
"Z  c #32750A",
"A  c #357C0B",
"S  c #366E13",
"D  c #3A7216",
"F  c #487513",
"G  c #564933",
"H  c #674B33",
"J  c #48742D",
"K  c #3B3941",
"L  c #791A44",
"P  c #413F40",
"I  c #6D3B49",
"U  c #3F4447",
"Y  c #45464B",
"T  c #4A4C56",
"R  c #54545B",
"E  c #6F4B51",
"W  c #527C53",
"Q  c #595B67",
"!  c #525B72",
"~  c #745166",
"^  c #5C6C6E",
"/  c #67696C",
"(  c #716A73",
")  c #76767B",
"_  c #881B48",
"`  c #8C1C4F",
"'  c #981D4D",
"]  c #941F52",
"[  c #A31856",
"{  c #882952",
"}  c #972556",
"|  c #873253",
" . c #A9245B",
".. c #B2245B",
"X. c #B8255D",
"o. c #963060",
"O. c #983766",
"+. c #A92C62",
"@. c #B72A62",
"#. c #A73365",
"$. c #BB376C",
"%. c #B53B71",
"&. c #C42A65",
"*. c #D72B6B",
"=. c #C9346D",
"-. c #DD2E70",
";. c #C93C73",
":. c #DC3473",
">. c #E12F72",
",. c #E13877",
"<. c #864557",
"1. c #914A6F",
"2. c #84707B",
"3. c #D9427C",
"4. c #E0417E",
"5. c #378604",
"6. c #3A840D",
"7. c #338808",
"8. c #3E8B0D",
"9. c #3D9400",
"0. c #3F9309",
"q. c #458900",
"w. c #408F0E",
"e. c #449901",
"r. c #43940F",
"t. c #46980F",
"y. c #428B13",
"u. c #479414",
"i. c #499814",
"p. c #529E1D",
"a. c #54A11E",
"s. c #548D32",
"d. c #60A23C",
"f. c #588C4A",
"g. c #659452",
"h. c #6DA354",
"j. c #6D9471",
"k. c #79A875",
"l. c #87B072",
"z. c #787A86",
"x. c #707994",
"c. c #8A7989",
"v. c #76808A",
"b. c #788897",
"n. c #718C9A",
"m. c #758D99",
"M. c #7A8E9A",
"N. c #7B9592",
"B. c #7B919D",
"V. c #7BA68A",
"C. c #768BA5",
"Z. c #7C94A2",
"A. c #7791AB",
"S. c #7A93AA",
"D. c #7FA0A1",
"F. c #848689",
"G. c #8D9192",
"H. c #83949D",
"J. c #86979C",
"K. c #A19794",
"L. c #8FB28F",
"P. c #89A898",
"I. c #858FA3",
"U. c #8396A1",
"Y. c #8994A5",
"T. c #8499A4",
"R. c #8B9CA5",
"E. c #859CAC",
"W. c #8B9EAA",
"Q. c #949BA5",
"!. c #849BB2",
"~. c #899EB4",
"^. c #89A7A4",
"/. c #8DA2AC",
"(. c #94A4AD",
"). c #99A6AC",
"_. c #99A9AF",
"`. c #96B5A9",
"'. c #8DA4B3",
"]. c #8DA5B8",
"[. c #94A6B1",
"{. c #99A7B1",
"}. c #95A9B5",
"|. c #9CACB4",
" X c #94ADBB",
".X c #9AAEBA",
"XX c #98B4B7",
"oX c #9DB2BD",
"OX c #A1AFB8",
"+X c #AAB1B1",
"@X c #AAB6B5",
"#X c #A3B3BB",
"$X c #A9B6BD",
"%X c #A0C392",
"&X c #ACC4AF",
"*X c #B5C6BA",
"=X c #C5D5BF",
"-X c #95AEC0",
";X c #9CB7C2",
":X c #A5B9C3",
">X c #A5B8C4",
",X c #ACBBC3",
"<X c #B1BEC5",
"1X c #9DC2C2",
"2X c #A8C2CA",
"3X c #B7C1C6",
"4X c #B4C2CA",
"5X c #BAC5CC",
"6X c #BCC8CE",
"7X c #ABC8D6",
"8X c #B6C8D5",
"9X c #BDCBD3",
"0X c #AFD0DF",
"qX c #BDD2DC",
"wX c #B4D2E2",
"eX c #C3C9CC",
"rX c #C5D5C7",
"tX c #D0DFCE",
"yX c #C2CDD3",
"uX c #C8CED1",
"iX c #C6D1D6",
"pX c #CBD5D5",
"aX c #C4D2DA",
"sX c #CBD5DB",
"dX c #CED9DE",
"fX c #D1D8D6",
"gX c #D2DADE",
"hX c #D9E4DB",
"jX c #C9D9E0",
"kX c #D4DDE2",
"lX c #D6E1E4",
"zX c #DAE3E5",
"xX c #DCE5E9",
"cX c #DEE8EA",
"vX c #E2E8E8",
"bX c #E3EAED",
"nX c #E9F1EE",
"mX c #E5EDF1",
"MX c #E9EFF1",
"NX c #E7F1F3",
"BX c #ECF3F5",
"VX c #EEF5F8",
"CX c #F0F5F6",
"ZX c #F2F7F9",
"AX c #F5F9FB",
"SX c #FBFCFE",
/* pixels */
"i.i.i.i.i.i.i.u.m m m m m m m m m m m m m m l v N D g.k.%XrXvXnXbXfX&X%Xl.d.q.u l S v m m m m S c m m m m p l i.i.i.t.i.8.p p p j ",
"r.r.r.r.r.r.8.8.v c v k v k v k k v k v k v s.@XkXMXCXCXAXSXSXAXSXSXAXSXnXnXVXtXh.b k k k k c c c k k c h r h r.r.u.r.0.8.p u u j ",
"r.r.r.r.r.r.l f c c c c k v k v l k f N l.pXkXmXCXCXCXSXSXSXSXSXSXSXSXSXSXSXSXAXCXCX=Xs.g k v c k k l y y u h t.r.r.r.i.w.A Z y j ",
"6.r.w.w.8.8.u y k c c c v k v k c f l.rXkXbXBXZXCXAXSXSXSXSXSXSXSXSXSXSXSXSXSXSXAXAXnXvXrXb d v k k k y u p n t.r.r.r.8.w.8.A p j ",
"f i i f v b k k k v k k k k k b L.@XfXgXvXbXNXVXSXSXSXSXSXSXSXSXSXSXSXSXSXSXSXSXSXSXAXCXAXvX*Xs.B & n 8.8.6.8.t.t.8.A f h 8.u.6.s.",
"r & y y k v v v k l k k k k J +X6XpXgXvXbXNXVXAXAXAXSXSXSXSXSXSXSXSXSXSXSXSXSXSXSXSXSXSXSXAXMXtXs.$ h t.r.w.8.r.r.r.6.& h y.t.r.p.",
"6.A k k k k v v w.w.w.6.k s.&X6XsXgXhXvXvXmXVXZXZXAXSXSXSXSXSXSXSXSXSXSXSXSXSXSXSXSXSXSXSXSXAXBXzX%X7.0.r.r.r.r.8.f l 6.Z g n w.p.",
"r.6.b k k k k v r.r.w.7.g.@X6XrXsXkXzXcXvXnXNXZXZXSXSXSXSXSXSXSXSXSXSXSXSXSXSXSXSXSXSXAXCXSXSXCXNXvXL.9.8.t.t.t.8.r h i.A p f w.a.",
"v v v N 8.w.w.6.f i 9.h.`.5XuXfXdXkXzXzXbXBXBXVXZXZXSXSXSXSXSXSXSXSXSXSXSXSXSXSXSXSXSXSXAXAXSXZXCXCXcXl.7.r.A u f y u v v c h i m ",
"c v k v w.t.t.6.y r J `.*XeXuXsXkXkXzXbXMX*XlXZXZXSXAXSXSXSXSXSXSXSXSXSXSXSXSXSXSXSXSXSXSXSXSXZXZXCXBXtXh.5.Z & p r u c c c h r j ",
"c k v v M Z t.t.6.b P.2X<X6XiXdXkXkXzXMXQ.= @XNXZXSXSXSXSXSXSXSXSXbXMXSXSXSXSXSXSXSXSXSXSXSXZXZXZXZXBXmXrXx h Z Z f l c c k l k l ",
"k v k v k k 6.y.5.L.+X3XeXyXiXkXkXxXmXG.( ( G |.ZXSXSXSXSXSXSXvX).+XCXSXSXSXSXSXSXSXSXSXSXZXAXZXCXCXZXCXvXL.t w.8.k k c k d a k S ",
"v v v k v k h g h.|.$X).9XaXdXkXcX,XR G.pXvX$XR Y c.).+X+XF.R / eXCXSXSXSXSXSXSXSXSXSXSXAXAXAXAXZXZXBXnXbXpXg.9.w.k k t b l.%XF N ",
"k k v k k v y t /.&X3Xz.( |.>XF./ - Q.dXbXNXbXzXj.o P Y - ( eXvXCXSXSXSXSXSXSXSXSXSXSXSXSXSXAXZXVXBXnXnXMXkX*X9.8.g F 3XhXnXnXfXJ ",
"v k k v k k f g.).&X,X$XQ U K -   OXkXcXcXmXNXSXF.R +XG.o +XZXSXSXSXSXSXSXSXSXSXSXSXSXZXAXAXSXBXVXBXnXbXbXkX3Xd.5.k.fXnXZXSXZXBX%X",
"k v k k c h c N._.OX,X4X<XR / z.. <XxXxXcXbXNXgX/ Y ) / o +XSXSXSXSXSXSXSXSXSXSXSXSXSXSXSXZXAXCXVXCXBXvXbXkXuXP.&XpXvXVXVXAXSXVXuX",
"k a a a a s s.U._.#X,X5X,XT R T   5XxXlXcXbXmXjX/ - T K o ,XSXSXAXAXSXSXSXSXSXSXSXSXAXSXZXZXVXVXVXnXnXbXmXxXsXuXkXkXbXCXCXZXZXmX5X",
"B *XtXgXrXj.N.Y.(.oX:X4X|.Y - - o 5XzXlXxXcXbXNXz.. -   Q sXSXAXSXSXSXSXSXSXSXZXAXSXSXSXAXZXZXVXVXbXbXvXvXkXgXkXxXvXmXMXMXMXMXkX%X",
"F.kXVXAXnX_.N.T.[..XoX4X|.K o   J.sXlXkXxXxXxXNX<XQ O ! 5XCXAXZXZXAXZXAXSXSXAXSXAXSXSXAXAXAXVXVXBXmXbXbXzXkXzXkXkXvXbXbXvXvXkXeXh.",
"@XkXnXBXdXY.U.T./.|.$X,X5X) T J.pXdXkXlXlXlXxXbXbXsXuXjXMXCXCXCXZXZXAXSXZXSXAXSXSXZXAXZXZXZXVXNXNXmXbXbXvXzXkXxXvXkXvXkXkXgXuX$XW ",
"/.sXvXgX,XM.M.B./.|.oX;X<X<X>XyXsXjXdXkXkXxXlXbXbXbXNXBXBXBXCXCXZXCXZXAXZXAXAXZXZXZXZXAXVXBXBXNXNXMXbXbXkXkXkXkXkXkXkXkXfXeX,X{.s.",
"j.yXgX3X|.M.m.H.T.(.|.@X<X<X8XaXaXsXsXkXjXkXkXlXxXbXbXmXmXMXMXBXVXVXZXVXVXZXZXZXZXZXZXZXBXBXNXVXNXbXbXcXkXxXkXkXkXkXsXyXeX<XOXI.p.",
"J @XeX$X(.b.m.H.U.R.[.#X>X<X8XyXaXwXsXjXjXkXjXkXxXbXbXmXbXmXMXMXBXNXmXmXmXBXBXBXVXVXBXNXMXBXMXmXmXbXzXkXkXkXkXjXsXuXeX<X<X#XOXg.p.",
"l XX,X#XR.M.b.M.B.T.W.Q.;X,X<XeX9XaXaXaXjXjXjXkXkXkXkXkXbXbXmXmXmXxXzXlXxXcXcXmXmXNXNXbXbXmXmXbXbXxXkXkXkXjXjXaXyXeX<X<X,XOXOXp.p.",
"5.P.).OXT.N.B.m.B.B.B.R.).-X,X<X4X6XyX9XyX9XjXsXkXkXjXkXkXkXkXkXdXaXyX5X5XsXkXxXbXbXbXxXxXxXxXxXzXkXkXjXsXaX5XeX<X<X,X,XOX{.J.q.p.",
"r.f./.(.E.N.B.m.B.U.Z.U.I.~.{.#X:X<X4X4X5X5X5X9X5XyXqXaXyXyX8X8X,X).{.>X>X<XsXkXkXkXxXzXxXxXkXkXkXkXsXsXiXyX4X<X<X,X>XOXOX|.d.r.p.",
"r.5.J.T.T.B.B.B.Z.[.[.'.~.~.~.~.}.|.|.oX;X>X.X;X>X,X>X>X>X.X~.!.C.~ / Q..X:X9XsXkXkXkXkXkXkXkXkXsXdXsXyX9X5X<X,X>XOXOX|. XP.B 8.p.",
"t.5.W /.Z.m.A.B.M.E.v.^ I.!.~.~.'.'.[.'.'.[. X].'.~.S.Y.C.A.!.~.I.E 9 F..X#X4XsXsXkXkXkXgXgXsXsXsXaXaX6X4X<X,X#X>XOXOXOX#XJ d r.a.",
"V v g V.T.Z.Z.B.b.S.z.@ ! x.A.A.S.M.C.C.A.!.b.C.C.C.n.~ ( C..X4XQ.I 4 c..X#X<XqXaXsXsXiXsXsXsXuXiXyX8X<X,X,X#XOXOX.X X#Xj.d l Z y.",
"& y k J .XE.Z.B.m.B.b.K - C.C.A.S.~ x.C.I.x.e z.S.-Xc.3 ~ !.7XaXK.2 4 j.|.OX<X9XaXiXaXyXyX<XeXeX6X<X<X<X$X#XOXOX.X XOX#Xf k l k S ",
"f k k h V./.T.B.m.m.Z.T . x.~.~.E.w I Q.-X( < ~ ;X8X2.; 5 H.qXsXG.; , ) .XOX<X9XyXyXyXyX5X<X<X<X<X<X<X,X#XOXOX|. X#X`.W a k v v D ",
"v v k k c Z./.Z.m.m.Z.( = R -X>Xc.e < F.~.E > < G.Y.I ; + ( 8X3X( O 7 z.oX:X4X4X5X9X<X<X<X<X<X<X<X>X#X>XOX.X|..X.X:X`.N f.N k k S ",
"v k k v g j.^.D.M.m.b.M.w X }.>X~ 2 > E E 9 > > e 9 > ; + w }.[.w X w z.;X,X4X4X4X4X<X,X$X$X$X$X$XOX|.|.|.|.|..X:X2XfX=XrX*Xv c S ",
"k v k k l B ^.^.Z.m.b.Z.Q O ( c.e > : > > > > 2 > ; ; + O . ! !     K F.$X,X,X,X<X,X$X#X#X#XOXOX|.|._._.{.[.{..X<XjXSXSXSXAXv k S ",
"v v V Z V B Z.D.B.m.n.x.x.K ; 4 2 < < < 2 < 2 2 : : + O X   . . .   Y U.$X,X4X,X:X#XoXXX|.{.|.).(.)._.(._.}.|.;X7XmXSXZXnXgXB v S ",
"k b 8.r.r.e.^ ^.Z.B.n.b.b.R # ; > 2 2 < < > > > > ; + X X . . .     R /.,X,X:X;X#X#X|.{._.(.(.(./././.(.(.}.}.;X5XBXbXkXpX`.5.k S ",
"Z 6.r.w.A Z N ^.E.B.n.m.B.v.w : < 1 < < < < < > > ; @ @ @ @ @ @ @ @ ^ .X:X,X$X#X#X|.{.(.(.(.Q.Q.R.R.R.R.[.}. X;XsXkXiX3X$Xs.6.k S ",
"r.t.t.A r % g j.'.S.n.N.B.E.( 7 > < < 1 < 1 < : , * # @ * * * * @ - v.$X$X#X#XoX{.(.(.^.R.R.R.J.R.J.R.R.[.}.oX2XiX<X,X+Xk.9.w.v D ",
"u.8.6.b k n B C D.E.Z.m.m.T.G.Y > < 1 1 1 < 2 6 5 * * * 5 5 5 = O Y H.#X$X#X X|.).(.Q.R.R.R.J.J.T.J.R.R.'. X:X4X<X$X).P.e.r.w.Z F ",
"r.V i f 6.8.r.7.j. XS.n.b.U.|.c.4 < 1 3 1 2 6 6 5 5 5 6 8 8 5 * O / [.#X#X|.|.{.(.R.W.R.R.R.T.H.H.R.R./.].-XoX#XOX{.L.e.r.r.w.r.p.",
"Z M m M t.0.6.V b P.].N.B.B.^.{.) 4 1 1 1 9 0 0 * 8 0 8 8 8 8 5 7 z..XOX#X|.).[.(.R.R.R.T.T.H.R.U.Y.R.[. X-X.X).{.P.d.9.8.Z A r.p.",
"u f 8.r.t.t.v n h f.}./.Z.B.Z.}.:X<.1 1 9 q q 6 8 8 L L L 0 8 8 ~ W.#X#X|.{.{.).(.R.R.R.T.U.H.T.R.E.'..XoX.X[.{.^.d.9.r.6.r f r.p.",
"r i 8.8.6.6.v k n x V. XS.B.Z.D.,XG.I 3 q ' q 8 L L L L L L 0 0 z. XOX|.|._.(.(.(.R.R.R.R.R.R.W./.'. X;XoX[.}.P.g.B 6.r.6.i f 8.u.",
"r f 8.8.& r k v n n 9.L.-X'.B.Z./.:X2.q ` ' 9 0 ` ` ] ] ` L 0 ~ Y.#X|.).{.(.(.(././.Q.R.R././.'.[.XX;X;X XXXP.s.i & f i.8.m k c S ",
"i f Z b i i k k k v C q.L. X!.Z.I.Y.<.'  .' 9 _ ] } } } ` ` q x.'.+X|.{.{.{.[.[.(.(.Q.(.(.[.|.oX;X1X;X;XXXL.s.x k i k 6.A k c k Z ",
"v h & y k v v k v k & % 7.P.].].T.~ _ ...._ q ' ....+.@.} ` L z.W.(.[.{.{.{.{.{.|.{.[.|. XoX;X1X2X>X>XXXk.9.5.h v v k k k v v v D ",
"k l i i k v v k v k f d 7.7.N.^.U.<.[ X.[ _ _ ..@.*.&.@.#.] ~ c.Q.(.{.{.{.|.{.{.|.XXoX;X>X;X7X7X0X2X`.f.9.A Z k k v k v v k k v S ",
"c c k k v k k v k v k h M n t f.( o...X...' ' X.&.-.=.%.%.o.1.Y.Q.{.{.|.oX;X;X:X;X:X>X2X7X0X0X7X`.k.9.9.A y f k v k v k v v k c S ",
"c c v c k k v v k v k v k k b k H ' X.X..._ ' &.*.>.*.:.@.[ c.Y.}.|.oX$X$X#X:X>X>X7X0XwX0X7XXXV.9.9.0.6.n i f c c c c c k c c c S ",
"c c k k v v k k k v v v k v 0.F | [ &.&.' _ ..*.*.>.,.4.;. .c.-X>X2X2X7X7X7X0X7X0X0X7X;X].f.a 9.0.t.A r i k k c c c c c k c c c S ",
"v k k v c k b b v v k v b b 0.J | ..&.X.[ _ ..*.*.:.4.3.=.[ K.8XwXwXwX0XwX0X7X2X2X1XV.x t s m i.8.8.A r i c c c c c c c v c c c S ",
"k v k v v c w.w.v k v v r.t.e.H } X.X.&.' _ X.*.>.:.4.4.:.[ c.*X7X4X2X2X2XXXj.N B 9.9.r.r.u.r.w.M $ y n v c c c c c c c k c c v S ",
"v k v k v k 6.A b m k m 8.r.9.H } @.@.X.` ' @.*.:.4.4.3.$. .H g h x x a a a s d V t.u.0.r.r.r.r.A i f M v v k c v k k k v k v v S ",
"k v k k k v u i 6.w.v N 8.r.e.E ] @.@.&.' ' ..*.>.>.4.3.3. .e k v c c c c c M 6.0.t.0.u.u.t.r.r.w.6.A 8.6.v c c k v k v k v k k S ",
"v v v V N N y u w.r.C Z w.r.e.E } o.@.X.' ' @.*.>.-.4.3.$.+.H F b k n c m M 8.t.u.0.8.8.6.6.w.r.r.t.r.6.A k c c v k k v k v k k S ",
"k V 6.r.r.r.i y 8.r.w.w.r.r.e.E ] } @.X.` ] @.=.-.>.>.4.3.} e F C k k v A 0.8.r.t.u.A % u y l w.r.r.6.r u k c c v k v v k k v v D ",
"v b 8.8.r.r.f i 8.r.r.r.t.u.9.<.o.o.+.+.` ] ..&.-.,.,.-.=.@.` F 5.c b v 6.r.r.8.r.r.Z y y y v w.w.r.A & u k c c k v k v k v k v S ",
"r.A i f 8.r.8.r.r.r.r.r.r.r.e.E L O.+.+.] ] ..@.*.,.,.;.$.#.{ 4 B 8.r.0.r.r.Z r V r.r.w.A k k N v v k k k c c c k v v k v k k v S ",
"r.A u u 6.r.r.t.r.r.r.8.r.r.e.H } } } +.} } @.$.$.=.*.*.=..._ z B r.t.r.r.0.V u V r.r.w.Z k v k c c c c c c c c v v v v v k v N D ",
"8.6.u y & & 8.r.r.w.i r 8.0.s G { o.O.o.} } #.%.3.=.*.=.$..._ J 0.r.r.r.r.t.t.t.r.r.6.k k k k v c c c c c c c c v t.w.k k k N r.a.",
"t.A u r y y r.r.w.6.f i 8.6.f d <.1.} } } } @.$.$.;.$.$.#.' e F 0.8.r.8.w.r.r.r.r.t.6.k v b c k k v v b v v c k v t.8.f k v V r.p.",
"r.A i u c k 8.8.h y k k b b h g f 1.O.o.O.o.o.$.$.$.#.#.o.q G s u p k v A i.r.r.r.r.r.w.w.6.V y f v V w.8.8.A r f r.A y f 8.w.r.p.",
"6.Z f f m b 8.6.i u k c k v v v t G 1.+.#.1.#.1.#.#.o.| | w i r p u l M A 7.8.6.8.r.w.7.8.8.V y f k v 6.8.r.A i l r.6.u l r.r.r.p.",
"p h A 6.6.8.M m k h k k v k v k k g H 1.1.1.O.O.O.o.| _ e k k l b 7.8.8.V p f f V r.A p l b v k k v k f n 8.8.6.8.r.r.6.6.r.r.r.p.",
"p g 8.t.w.u.v c c c k v k c c c c k b v E 1.1.1.1.| H k k k k v 6.r.r.r.b & y y m r.A & d k k v k v k & l w.r.r.r.r.r.r.r.r.t.r.a."
};
