/* XPM */
static char *result[] = {
/* columns rows colors chars-per-pixel */
"64 64 217 2 ",
"   c #181B26",
".  c #1D212A",
"X  c #2C2C37",
"o  c #32313D",
"O  c #282A32",
"+  c #0E3F02",
"@  c #5A2A13",
"#  c #592F17",
"$  c #66371B",
"%  c #7A3C19",
"&  c #523E3D",
"*  c #56362D",
"=  c #703E23",
"-  c #0E4303",
";  c #134D04",
":  c #114805",
">  c #1B5504",
",  c #1D5012",
"<  c #265E02",
"1  c #225B0A",
"2  c #245815",
"3  c #276003",
"4  c #296205",
"5  c #2A640D",
"6  c #2B6A0B",
"7  c #356C12",
"8  c #34770D",
"9  c #7B431F",
"0  c #7B4423",
"q  c #774426",
"w  c #764C3B",
"e  c #517C3A",
"r  c #353542",
"t  c #3A3B46",
"y  c #3C3D4A",
"u  c #373944",
"i  c #423F4E",
"p  c #3E414B",
"a  c #41424E",
"s  c #44484F",
"d  c #5A4545",
"f  c #444351",
"g  c #494A54",
"h  c #584E56",
"j  c #4E535A",
"k  c #53535C",
"l  c #59555C",
"z  c #6B4C46",
"x  c #644947",
"c  c #74534B",
"v  c #7C564D",
"b  c #7A5547",
"n  c #624E53",
"m  c #63545C",
"M  c #665457",
"N  c #765A59",
"B  c #6F4F48",
"V  c #7B605F",
"C  c #565564",
"Z  c #595A65",
"A  c #5D5D6D",
"S  c #575A63",
"D  c #5E5F71",
"F  c #655C67",
"G  c #6F5F6A",
"H  c #5A6167",
"J  c #5F6173",
"K  c #62616E",
"L  c #66686E",
"P  c #796568",
"I  c #646373",
"U  c #6C6674",
"Y  c #6C6B7C",
"T  c #666877",
"R  c #7B6D74",
"E  c #746E7B",
"W  c #756B75",
"Q  c #6C7479",
"!  c #7B727C",
"~  c #77737D",
"^  c #537C43",
"/  c #833E1A",
"(  c #813B16",
")  c #84421D",
"_  c #834927",
"`  c #84502F",
"'  c #895638",
"]  c #945D3A",
"[  c #955B35",
"{  c #A05F38",
"}  c #9C623B",
"|  c #A3673D",
" . c #845A47",
".. c #825B51",
"X. c #925A40",
"o. c #8D614C",
"O. c #9D6542",
"+. c #996749",
"@. c #896557",
"#. c #976B56",
"$. c #9D705D",
"%. c #A06741",
"&. c #A56B45",
"*. c #AA6D44",
"=. c #A86E4A",
"-. c #AC714B",
";. c #AC7146",
":. c #B2744C",
">. c #BB7B4D",
",. c #B57548",
"<. c #A87458",
"1. c #BB7C53",
"2. c #B57955",
"3. c #A26F54",
"4. c #826B6C",
"5. c #886964",
"6. c #8A716C",
"7. c #93746C",
"8. c #997565",
"9. c #846D71",
"0. c #867375",
"q. c #93756E",
"w. c #A67B65",
"e. c #B17E60",
"r. c #C17E4E",
"t. c #C17E53",
"y. c #3C870E",
"u. c #3F8B11",
"i. c #408E0F",
"p. c #43940F",
"a. c #46990F",
"s. c #428D11",
"d. c #439311",
"f. c #4A9814",
"g. c #56803E",
"h. c #679251",
"j. c #629745",
"k. c #BC815E",
"l. c #BE8053",
"z. c #96897B",
"x. c #BB8466",
"c. c #AE8167",
"v. c #89A779",
"b. c #C3814F",
"n. c #C58354",
"m. c #C88656",
"M. c #C4845A",
"N. c #CA875A",
"B. c #CC895D",
"V. c #D08B5F",
"C. c #CF8C60",
"Z. c #C18460",
"A. c #D18E62",
"S. c #D29064",
"D. c #6D6E82",
"F. c #6F7084",
"G. c #6E7F80",
"H. c #717284",
"J. c #7B7582",
"K. c #74758A",
"L. c #7B7B8D",
"P. c #797987",
"I. c #7A7C90",
"U. c #847A85",
"Y. c #7A8588",
"T. c #828B8D",
"R. c #848D91",
"E. c #8D9B9D",
"W. c #899396",
"Q. c #919B9F",
"!. c #9F9197",
"~. c #988A90",
"^. c #939EA1",
"/. c #9A99A6",
"(. c #8C9EA0",
"). c #94A3A5",
"_. c #99A3A6",
"`. c #9BA6AA",
"'. c #9DABAE",
"]. c #95A6A9",
"[. c #9EAFB0",
"{. c #A5A5AC",
"}. c #A2ABAE",
"|. c #A4A5AA",
" X c #A2AEB1",
".X c #A8A9B0",
"XX c #A4B3B6",
"oX c #A8B3B6",
"OX c #A7B6B9",
"+X c #A9B7BA",
"@X c #ADBABD",
"#X c #B1BCBE",
"$X c #B5BBBC",
"%X c #9BA494",
"&X c #AFBDC0",
"*X c #B1BEC1",
"=X c #B9BEC1",
"-X c #B5C2C5",
";X c #BAC3C6",
":X c #B7C5C8",
">X c #BAC6C9",
",X c #BDC9CC",
"<X c #BFCED0",
"1X c #C2CACD",
"2X c #C0C7CA",
"3X c #C3CED0",
"4X c #CBD3D5",
"5X c #CCD6D9",
"6X c #CED9DC",
"7X c #C5D2D5",
"8X c #D5DCDB",
"9X c #D4DEE1",
"0X c #DADFE0",
"qX c #DAE2E4",
"wX c #E3E7E7",
"eX c #DDE2DE",
"rX c #A8C79B",
/* pixels */
"f.f.f.f.a.a.f.p.6 5 5 5 5 5 5 5 5 5 5 5 5 5 6 5 5 e 4X2X1X4X1X2X2X1X3X5X4X8Xh., 4 5 5 5 5 5 5 5 5 5 5 5 : 1 f.f.f.a.a.u.> : : 2 ",
"p.d.p.p.a.u.u.y.3 3 3 < 3 4 < < 3 3 4 4 < < 4X;X2X#X$X'.[.+X9X4X5X9X9X9X0X>XW.@X#XwX4 < < 4 < < < < < > ; ; u.d.d.d.p.y.; - + , ",
"p.p.p.p.p.u.; > < 3 3 3 4 4 < < < < < < < < 8X;X>X@X@X'.'.+X8X5X5X8X9X9X9X>XE.&X@XwX< 3 4 < < < < < : - - > u.a.a.d.d.d.y.6 - , ",
"y.y.y.p.p.y.: : < 3 < 3 4 < 4 < 4 4 wX4X}.XXR.#X@XXX'.,X,X:X-X@X@X:X,X:X=X+X1X>X,X_.#X@X4XwX6 4 < > ; ; ; 5 u.a.d.d.u.y.u.y.: 2 ",
": ; - > 6 4 < 3 < 3 < < < 4 e 5XoXoX#X6X<X3XE.*X=X&XOX@X@X,X>XXX X*X*X<X3X1X>X5X5XQ.,X,X>X-X=X-X8XT.8 u.u.u.d.d.a.y.; ; u.d.u.f.",
"- - - - < < 3 3 3 3 3 3 4 < e 4XXXOX&X6X1X1XW.#X*X&XOX@X+X,X,XoXoX*X:X,X,X1X,X5X5XQ.,X,X>X-X-X-XeXv.u.f.u.f.d.u.y.8 ; ; u.u.f.f.",
"p.8 < < < < < 6 p.u.p.8X X.X/.+X+X+XOXOX@X@XXX'.'.:X*X'.'.R.l a a S Y. X.X,X5X*X#X}.:X:X&X+X*X&X&X.X=X=XwXd.d.u.> > u.y., 1 f.f.",
"p.y.6 < 4 4 4 6 d.u.4X=X$X+XY.`.[.[.].[.-X-X>XL L Q s o o O y a f t X o o a T j j -X&X&XXX].[.[.[.h.*X=X,X5Xd.u.; ; u.y.- , d.f.",
"3 3 3 6 u.a.a.j.,X,X*X*X:X:X+XQ.+X+X'.XX^.Q.H . . o f C k A I I I K I k l i o . . j `.`.@XXX&X&XW.+X9XqX7X+X;X>X%X- 4 4 4 > - , ",
"3 4 3 6 u.d.d.j.2X,X-X&X:X:X+XQ.+X+X'.XXQ.Q.H . . r g l k I F F K K F k h i o .   h `.`.&XXX&X@XE.&X9XqX5X+X;X>X%X; < 4 < > - 2 ",
"4 < 3 4 6 g.j.>X+X+X+XXX+X+X@X X)._.^.S o o y Z C R 7.q w C D I I F C z x & P C C i X o S )._._.(.+X+X+XXX,X:X:X:Xg.g.3 < 3 4 7 ",
"< 4 4 3 4 3X1XoX}.XX@X@X[.[.].}.Q Q X a F K R $.#.&.,.( ( C I I I I A z w $ %.#.+.6.Z Z f X H H >X5X[.XXXX-X:X:X:X,X,X4 < < 4 7 ",
"< < 4 < < 3X1XoX[.[.-X+X[.[.].[.Q Q X f I I 0.$.$.=.,.( % C I I I I A w w # %.o.o.6.Z A i X H H >X6XXXXXXX-X:X:X=X;X2X< < < < 7 ",
"4 < 4 < 1 I.T._.+X+X&X>X:X:X[.l X o C W @.@.1.@...0.=.( ( D D.I I D.D.B z $ &.....=.#.#.4.Z o o L W.'.].[.XX@X@X@XY.Y.eX4 4 3 7 ",
"< < < 8X3X/./.h.'.}.=X:X`.'.S a I I 6.,.,.,.t.8.7.!.-.( % D D.I I Y T b b # #././.$.:.,.1.w.F K u p ).].OX@X}.}.Y.^.^.;XrXy.< 7 ",
"4 v.v.>X<X=X<X*X_._.T.T.u u s W #.#.] t.n.n.N.-.:.-.>.( ( D Y I I Y D v v # t.Z.x.-.1.1.n.b.w ' P s a p ~ T.).Q.).).).'.@XwXqX7 ",
"4 v.v.>X>X>X>X*X/._.R.Y.u u f R #.#.' b.n.m.m.-.-.:.>.( ( D D.I I D.D ....# e.Z.Z.-.>.t.n.t.` b P g p p ~ R.^.(.).).(.'.@XwXwX7 ",
"< 4X4X>X*X,X,X>X,X<X'.  j g U 1.:.-.} n.m.m.B.:.:.1.1.( ( J L.I I D.K.....$ t.S.A.:.t.n.N.t.` ` l.P s s . W.&X&X@X-X:X-X:X1X,X7 ",
"%X>X>X>X-X&X*X&X*X*Xj t I U #.b.,.,.} m.N.C.C.:.2.1.1.( ( T K.I U D.D.....# t.S.A.:.n.n.N.N.` ` n.l.L N a Z *X*X'.].].[.-X;X:Xh.",
"8X*X$X@XXX].].).E.E.r Z ..@.*.n.>.:.' C.N.N.S.:.:.t.t.( ( T K.I U D.D.....$ t.A.C.:.N.N.N.N.` ` m.b. .b Z O }.[.XXXXXX[.+X@X#XwX",
"eX#X#X@XXX].].).(.(.o Z @.o.*.t.>.:.] C.N.N.S.-.:.t.t./ / T K.I I D.D.....# t.t.C.:.N.N.C.N.` ` m.n.o.b l O [. XOXXXXX[.+X@X@XwX",
"qX-X;X@X].(.(.[.L L f P *.*.*.3. .X.' C.B.B.S.-.=.M.t.) / F K.I I D.D.....$ C.C.N.-.C.Z.C.C.q _ >.b.' ] V s k k @XOXXXXX>X-X-XwX",
"2XoXXXXX].[.[.[.s s S ..=.=.P Y F.F.@.C.C.C.A.&.&.M.t./ / I H.I F D.D.....# N.C.C.2.t.t.Z.t.m l T 4.' ' | S o o ).*X@X@X*X-X-XwX",
"2XoXXXXX].[.[.'.a a S ..=.=.P Y F.F.@.C.C.C.S.&.=.Z.t./ / F H.I I D.D.....# C.Z.N.:.Z.t.t.1.m F Y 4.' ' ;.l o o _.@X*X+X&X-X-XqX",
"8X=X&X@X@X#X@XT.p u J | 9.R G #.6.6.6.V.A.C.A.O.O.Z.t./ / F K.I F D.D.v v $ Z.S.A.,.t.t.t.7.D.E @.U P P | V u o Q *X&X*X*X=X*XqX",
"wX.X}.Q.Y.R.R.. a a 5.-.D.D.o.M.c.c.O.V.V.A.A.] ] N.t./ / A F.I F D.T c B $ C.S.S.,.1.2.t.Z.N G N.-.E W w.#.a a X R.T.E.E._.'.v.",
"8X5X4XqX:X-X-X. f f D.U P.P.J.U.U.0.E ! ! ! ! J.J.q.1.) / F K.D D D.D.z z _ e.U.~.5.5.6.q.q.5.P q.q.! ! ! P i y p -X-X<X>X-X-XeX",
"8X7X7X9X:X-X-X. f f F.U P.P.P.0.U.U.R ! 0.! R J.J.w.t./ / G K.D F D.H.z z = C.w.q.5.6.5.q.q.5.V q.q.! ! ~ W y i p -X-X,X>X-X-XeX",
"7X,X,X6X7X*X-XO s f L.U E H.R 0.0.0.R 0.6.0.9.R R w.1./ / F K.F F U D.x x = w.U.U.Y E E ~ ~ H.~ U.P.P.L.G.H.a y p  X[.7X<X&X&X8X",
"2X[.[.:X>X>X>XX f f 8.e.U U X.1.<.<.O.C.N.N.B.O.O.2.1.( / F F.I D D.D.c v = t.e.k.3.Z.Z.2.l. . .x.1.R 4.! c.p a s -X-X-XOX@X@X4X",
"1X'.[.-X:X:X:XO p f 8.e.U U  .1.e.e.O.B.N.N.N.O.O.1.t./ ( F H.F F D.D.B ..= C.e.x.+.Z.Z.1.x.b  .k.2.9.R 0.q.s p p -X:X-X+X+X+X5X",
",X].).[.-X*X-Xo p f &.n.! R P +.6.6.5.V.N.B.n.-.=.=.t./ / C K.D F D.D.....= t.A.B.=.A.S.N.2.P W 2.#.R W <.,.p p s >X:X).OXXXXX4X",
":X[.[.].+X>X>Xu p p =.n.<.<.W U D.D.8.C.t.t.:.:.:.%.1./ / F K.D A U D.v ..= t.A.t.:.A.S.A.w.D.D.P U 5.5.r.:.p f f >X,XY.OX&XXX,X",
">X@X@XXX@X;X-Xt p p +.m.,.,.+.$.X.o.=.t.t.1.=.:.2.X.t./ / m D.U J D.D.v v $ t.A.C.=.C.t.A.t.B B P 8.-.-.n.-.p p s &X&XI.XX&X&X<X",
">X@X-XXX@X-X:Xp p t =.n.,.;.+.$.o.o.-.t.t.t.=.:.:.X.t./ / m F.U I D.D.v ..= C.A.A.=.A.A.A.t.v c 4.8.-.*.n.:.f y g @X@Xh.XX&X&X,X",
"$XT.Y.Y.%XE.E.. y y +.n.>.,.;.n.1.1.:.C.t.e.+.q.q.#.t./ ) m F.I U U D.B c # t.2.t.q.e.e.C.t.X.] t.t.>.>.t.<.p a o Y.Y.Q W.R.R.=X",
"1X,X,X`.-X+X+Xo y y #.l.>.>.;.n.>.>.-.t.-.:.9.L.L.!.t./ / m F.U U D.D.c v # :.9.9.I.U.~.t.A.O.O.m.n.n.t.r.-.a a y XX&X*X*X,X*X7X",
"1X,X,X].-XOXoXo y y +.n.>.>.;.l.>.>.2.t.:.=.9.K.K.!.t.) / m K.D.D.U D.v c # :.9.U.U.!.~.Z.t.O.O.m.m.r.n.n.-.i a y XX&X*X=X*X=X7X",
"1X1X2X-X7X,X,Xj t t #.l.>.>.;.m.:.>.>.t.,.r.X.K.U...t./ / m D.D.D.U D.z B $ 1.X.X.U.$.$.Z.A.%.%.n.N.n.n.>.<.i a j >X,X7X5X7X<X3X",
"-X'.[.[.[.&X-XS t t #.b.*.*.*.n.:.:.,.t.5.5.P 4.4.h 5./ / n D.H.D.D.D z z # #.P 4.9.M N 7.t.%.%.m.n.n.m.>.<.a a C &X*X*X*X*X*X,X",
"`.XXXX'.XX@XOXH t t #.b.} } &.n.*.*.,.-.9.9.t.t.t.# G ) ) m K.D.D.D.H.x & % 4.e.t.>.{ { 5.e.O.%.m.n.m.n.>.<.f a S >X,X3XoXOXOX,X",
"`.XXXX'.XX@XOXH t t @.b.[ } *.n.&.*.,.=.9.9.t.t.t.$ N ) / m K.F.H.H.H.d d % 4.t.e.t.{ { ..e.O.O.m.n.m.m.>.<.a a S ,X<X3XOXOXOX,X",
"@X@X&X+X&X-X-XH t t #.r.,.,.| m.{ { :.,.4.9.$.t.>.* 4./ / n D.F.H.H.I i i ) 5.$.$.:.' ' 5.t.%.O.m.n.n.m.r.3.f f H >X>X&XoX*X&X,X",
",X=X-X@X-X-X-XH r r @.r.>.l.;.m.:.:.-.t.=.-.5.V N N :./ / n J F.K.H.I * & [ :.@.5.M 5.5.e.t.%.%.m.n.n.m.b.+.f a H -X-X*X&X*X*X3X",
":X-X-X@X-X=X-XH u u #.>.>.r.-.n.,.;.-.n.-.2.5.@.@.N <./ / n I K.H.H.F i & { ,.5.5.N 5.5.2.t.&.O.m.b.m.m.b.3.a f Z *X*X=X&X*X*X3X",
";XW.W.Y.R.).).a o u @.l.b.n.*.,.*.,.%.m.t.t.C.t.N.' >./ / n K.D.D.H.L.* * [ N.t.t.t.:.:.t.t.%.{ n.n.n.m.n.#.a a s ^.^.E.W.R.W.$X",
"#X#X&X).-X9X8XL r u @.n.>.>.@.D.U U o.n.N.t.C.t.m.O.>./ _ x T F.H.H.I i i ` t.m.t.V.,.,.C.t.c B P #.b.n.b.+.f f L &X&X,X<X*X*X1X",
"[.[.[.XX'.5X6XL r o V b.5.5.U #.9.9.5.t.N.m.C.t.m.&.>./ _ x I F.H.H.D x z / t.m.t.t.-.-.t.$.H.H.P U 8.8.l.#.a a J @X@XoX:X>X,X,X",
" X[.[.XX'.5X5XJ o u V l.5.6.U @.9.9.4.n.n.n.B.m.m.&.>.) ) x T K.H.F.J x x 0 n.n.n.n.*.*.m.5.E H.5.U 8.8.r.+.f f J +X*X&X*X<X=X<X",
" X].].OXXX@X&XL u o V 1.Q E o.n.w.<.O.l.n.n.N.M.m.&.>.) ) x H.D.F.F.D.B B $ 1.n.n.N.*.=.m.1.4.P >.3.! R w.o.f f p Y.h.+X<X*X*X<X",
"@X X XOX@X=X-XL o r T R J.~ P q.7.7.5.6.7.7.7.q.q.+.>.9 ) x K F.F.F.D c c 9 >.e.e.w.#.+.2.<.o.o.<.<.W W 0.P a a j @X+X>X*X&X*X*X",
"oX X X X'.'.`.k p o I.I L.L.P.J.J.J.E ~ E E W J.L.4.:.) _ z A F.D.Y A c c 0 7.I.I.D.G.F.K.K.I.I.L.I.L.L.K.D.i a S ].'.'.XX.X'.*X",
"oX X X X'.'.'.j r r L.I L.L.U.~ ! J.~ J.E E W P.P.0.,.) ) z J Y D.F.A c c 0 8.I.T.D.H.H.H.K.L.I.L.I.L.L.K.D.a i S `.`.}.XX'.'.*X",
";X-X:X-X+X1X1XY.o o U w.W U  .2.<.2.' l.l.1.l.:.:.[ >.) ) x F.H.F.Y F.B c _ >.w.w.$.o...<.<.o. .3.$.W R ! 0.y f Y *X*XXX'.I.Y.2X",
"1X6X6X8XeX6X6X^.o o M >.E J.c =.5.5.v m.l.b.b.l.>.` >.) ) z J Y Y Y J c c _ >.m.n.t.| | m.>.5.P *.&.R ! $.@.s i R.7X7X<X*X(.^.5X",
"1X6X6X6X9X6X6X^.o o M >.J.~ M &.5.@.v n.b.n.b.l.>.' >.) ) B H Y Y Y J c b _ >.n.n.t.%.| b.l.P 5.*.%.E R $.@.i i R.7X7X3X*X(.Q.4X",
"3X5X5X9X5X-X*X).o r M b.$.<.~ U E E N N.n.l.b.l.>.B #.) ) z A Y Y Y A c c ` @.q.q.l.O.} b.8.Q U M P P R -.@.i i R.,X<X<X>X[.'.5X",
"6X,X,X-XXX-X-X_.o r M | ,.| w P N N q :.;.;.,.| | Y U.% % x T Y Y Y T z x q R !.~.} } } ,.} G L U P ' ' | N f i R.*X*X-X>XoXoX4X",
" X).).OX(.@X#X).r r i _ 0 0 # 9 0 0 $ ` _ _ _ 9 ) @ = @ @ & J K L I I d d @ % 0 0 0 $ = 0 ) 0 0 $ q % $ % x i i W.*X*XXX*X&X&X5X",
"}.^.(.OX(.+X+X_.r r f _ 0 9 # 9 9 9 # ` _ _ _ 9 q # % @ @ & K I I I I d d @ q 0 0 9 q % _ 9 0 0 $ = $ % % & i i W.*X*XoX*X*X*X6X",
"$X-X-X[.(.OXOX`.y y C h h n d h n n h n n n n n h h n d d S I T T U T F F l M M M m m M M M G m C M m m n F g g ^.&X&X+X*X>X>X9X",
"4X;X:X:X*X:X-X'.a i C I S S C T I T A A D.D.I T I J D.D.Y U D.D.Y D.T H.F.F.H.Y Y K.K.K.K.H.Y Y P.D.Y Y I D.k k ^.:X:X-X:X>X>X8X",
"5X;X;X;X*X-X;X|.i p C I C C C T T T A D T D.K J T J T Y Y Y D.F.D.E U K.H.D.E T T K.H.J.H.J.Y D.K.E E Y I H.k j /.:X:X*X-X>X>X8X",
"eX,X,X1X1X2X1X$X/.Q.|./.|.|./.|./.|.|.|.|./.{.{.{.{.{.{.{.{.{.{..X{..X.X{..X.X}.}.{..X.X.X.X{..X}.{..X{.{././.|.$X,X1X1X1X1X1XqX"
};
