/* XPM */
static char *result[] = {
/* columns rows colors chars-per-pixel */
"64 64 220 2 ",
"   c #0F0F18",
".  c #0D0D15",
"X  c #13141C",
"o  c #0F1118",
"O  c #0D3E02",
"+  c #171820",
"@  c #1B1C23",
"#  c #1E2027",
"$  c #1E2029",
"%  c #22232C",
"&  c #272630",
"*  c #2C2A34",
"=  c #2F2D38",
"-  c #302E38",
";  c #302D37",
":  c #33313D",
">  c #56260E",
",  c #6B3517",
"<  c #612C11",
"1  c #5A3931",
"2  c #56372F",
"3  c #623D33",
"4  c #0E4403",
"5  c #134C04",
"6  c #124905",
"7  c #1B5506",
"8  c #1D5012",
"9  c #265E02",
"0  c #225C09",
"q  c #285A18",
"w  c #276002",
"e  c #296205",
"r  c #2A640C",
"t  c #2B6B0A",
"y  c #25610B",
"u  c #357B0C",
"i  c #366C13",
"p  c #32720E",
"a  c #754324",
"s  c #6A4236",
"d  c #784937",
"f  c #6F432E",
"g  c #383743",
"h  c #3A3A45",
"j  c #3D3D49",
"k  c #363541",
"l  c #403F4C",
"z  c #42414E",
"x  c #4F434A",
"c  c #454351",
"v  c #4B4C5B",
"b  c #494955",
"n  c #54515D",
"m  c #534F57",
"M  c #7E5544",
"N  c #66575A",
"B  c #7B5D55",
"V  c #6D4D48",
"C  c #7D625D",
"Z  c #4F5060",
"A  c #555463",
"S  c #595866",
"D  c #5B5B6C",
"F  c #585766",
"G  c #5D5E70",
"H  c #655C66",
"J  c #745D61",
"K  c #5F606E",
"L  c #5F6B6E",
"P  c #5F6072",
"I  c #60606E",
"U  c #6B656E",
"Y  c #7A6569",
"T  c #626374",
"R  c #6B6673",
"E  c #6C6977",
"W  c #646679",
"Q  c #66697D",
"!  c #6B6B7C",
"~  c #666B74",
"^  c #7C6D73",
"/  c #746B77",
"(  c #6D7279",
")  c #76767D",
"_  c #8C512C",
"`  c #90562F",
"'  c #8B553C",
"]  c #885438",
"[  c #955E3A",
"{  c #965C36",
"}  c #9C623C",
"|  c #98603A",
" . c #A3653D",
".. c #8A5A44",
"X. c #905F41",
"o. c #825F54",
"O. c #8A614D",
"+. c #9A6344",
"@. c #896557",
"#. c #976A55",
"$. c #9B715E",
"%. c #A16642",
"&. c #A36A43",
"*. c #AA6C44",
"=. c #AA6E4A",
"-. c #A2684A",
";. c #AC714B",
":. c #AF7146",
">. c #B4754C",
",. c #BC7B4D",
"<. c #B47245",
"1. c #AD7A5D",
"2. c #A87557",
"3. c #BB7D53",
"4. c #B47B57",
"5. c #B26F46",
"6. c #836966",
"7. c #8D716A",
"8. c #987467",
"9. c #836E71",
"0. c #867476",
"q. c #947976",
"w. c #916C62",
"e. c #A67A64",
"r. c #B27F63",
"t. c #A27F75",
"y. c #C17E4E",
"u. c #C17E55",
"i. c #3B850D",
"p. c #3E8A0E",
"a. c #37800C",
"s. c #3F8B11",
"d. c #408D0F",
"f. c #43930F",
"g. c #45990F",
"h. c #428D11",
"j. c #439211",
"k. c #499912",
"l. c #4B9716",
"z. c #519E1C",
"x. c #599138",
"c. c #6B8D56",
"v. c #71A357",
"b. c #BD8057",
"n. c #889F7B",
"m. c #B98161",
"M. c #AB8474",
"N. c #8AB574",
"B. c #C4814F",
"V. c #C58354",
"C. c #C98655",
"Z. c #C98857",
"A. c #C5855A",
"S. c #CA875A",
"D. c #CC895C",
"F. c #CD8B60",
"G. c #D18E62",
"H. c #D39066",
"J. c #6C6E82",
"K. c #676980",
"L. c #6E7183",
"P. c #6E7388",
"I. c #727284",
"U. c #747589",
"Y. c #76798C",
"T. c #797A8D",
"R. c #767C83",
"E. c #7B7D91",
"W. c #767990",
"Q. c #857C87",
"!. c #937F81",
"~. c #7B8689",
"^. c #7F8194",
"/. c #83878D",
"(. c #898C96",
"). c #8B9699",
"_. c #96989B",
"`. c #958993",
"'. c #97B08C",
"]. c #989DA1",
"[. c #908DA3",
"{. c #9CA7AA",
"}. c #9DABAE",
"|. c #97A4A6",
" X c #9EAFB1",
".X c #A3A6AA",
"XX c #A1A8AB",
"oX c #A2AEB2",
"OX c #ADADB3",
"+X c #A4B2B5",
"@X c #A7B5B9",
"#X c #A9B6BA",
"$X c #ADBABD",
"%X c #A9B4B7",
"&X c #B2B1B5",
"*X c #B4B4B9",
"=X c #B5BBBE",
"-X c #A1B598",
";X c #B5CDAB",
":X c #B2BEC1",
">X c #BCBDC2",
",X c #AFBDC1",
"<X c #B5C2C5",
"1X c #BBC4C6",
"2X c #BAC6C9",
"3X c #BDCACC",
"4X c #B7C6C8",
"5X c #BFCED0",
"6X c #C4C6CB",
"7X c #C3CED1",
"8X c #C7CBD1",
"9X c #CAD3D5",
"0X c #C8D3D6",
"qX c #D5DADC",
"wX c #CAD8C5",
"eX c #D7DFE0",
"rX c #DDE1E2",
"tX c #E1E3E4",
"yX c #E7EAEA",
"uX c #DDE0DD",
/* pixels */
"k.k.k.k.k.k.k.d.r r r r r r r r r r r r r r r r r r r r t r r r r qXqX2X8X7X6X2X7X9XeXqXt e r r r r r 0 6 0 j.k.k.k.k.s.7 4 6 q ",
"f.j.j.j.g.d.d.i.9 w e 9 9 e 9 9 w w 9 e 9 9 9 0 e e 9 9 w w 9 qX#X:X:X|.7XqXqXqXeXeX4X4X~.qXw 9 9 9 9 0 5 5 h.j.j.j.f.i.5 4 4 8 ",
"f.f.f.j.f.d.6 0 9 9 w 9 9 e 9 9 w w 9 9 9 9 e e 9 9 e c.qXXX{.,X#X XoX4X,X4X3X3X0X0X$X#X<X2X.XqXqXn.6 4 4 7 s.g.k.f.f.j.a.p O 8 ",
"i.p.p.j.f.i.6 6 w w w w e 9 e 9 e e e e e e e 9 9 9 9 c.uXXXXX,X@XoX X4X#X4X3X3X9X9X#X&X<X2X.XqXqXn.5 5 5 y s.g.j.j.p.p.s.u 6 q ",
"6 5 4 7 r r 9 9 9 e 9 9 e e 9 p i.d.f.d.e 9 w w c.c.=X4XqX2X2X|.,X@X@X$X3X:X@X+X#X<X3X3X3X*X@X4X4X4X7X'.f.s.g.g.g.i.5 5 s.g.s.l.",
"4 4 4 O 9 9 9 e 9 9 9 0 e 9 9 t d.f.f.p.e 9 w qX2X6X}.}.,X@X@X).4X:X<X,X4XoX{.{.<X<X7X7XqX{.4X4X<X<X4X<X;X;Xs.p.p.a.5 5 s.p.l.l.",
";X,X,XU.A /.6X>Xj.j.j.h.9 e j.h.f.d.r e i i 1X~._.). X@X<X3X3X|.:X{.{.) c k g g z ( {.{.2X|.4X#X#X X@X}.( ) 4XN.7 7 s.u 7 7 k.l.",
"8XQ.E.J.S T T T T OXh.i.9 t j.h.f.i.t yX:X:X4X4X~.~.$X|. X<X<X) j j j F ! E E W ! H z z j ~ <X#X#X{.$X~.wX7X0X$XrXrXj.i.6 7 s.z.",
"6XT.E.J.D ^ I.I.L.! (.`.qXj.f.u 4 7 v.:X=X:X$X<X}.XXoX+X}.( ( c A R ~ H b l b m D Y Y / S b ~ }.oX,X X|.0X0X0X$X<X<X-Xe w 7 4 8 ",
"6XE.E.I.D Y Q.I.L.! [.(.qXf.f.u 7 0 v.<X:X$X$X4XXXXX}.oX}.( ( c A E ~ P c h m b D Y / R K b ~ }.}.$X+X|.0X0X5X$X<X<X-Xw 9 0 4 8 ",
"6XU.Y.L.! ' 3.m.q./.Y.Y.I..Xq 0 u d.4X$X$X$X X X$X$X{.~.b S S ~ Z h g = * * c c S f [ [ B 0.D b m ~.).<X4X4X X4X2X2X4Xw w w w i ",
">XU.U.L.T ] u.V.B.1.Q.0.E.J.].'.'.wXoX|.@X@X$X{.}.}.~.k K R T j * * * * * & b b W f { { ` 4.^ ~ ~ h ) 0X,X$X+X$X<X<X<XtX9 w w i ",
">XU.I.L.K.] 3.u.@.>.:.:.r.Q.W.Q./.&X~.4X3X7X4X4XR.R.z ! b = * * * & & & % % c c T f { { R 8.*.e.8.! m ( ).). X+X$X$X{.).9 9 9 i ",
">XI.I.L.T ] 4.4.`.,.<.5.u.-.!.W.Y.( ).(.<X:X4X) z z ~ h * * * & % % % % $ @ b c W d { { t.2.5.V.C.-.R Z ~ ~ $X$X).).).7X7Xw w i ",
">XJ.J.I.K...A.D.m.b.>.>.V.,.=.^ ^ P.).].).).(.j I I z = * & & & % % @ # @ + c c W d [ [ A.,.>.V.Z. .O.~ b c ~.|.~./.{.@X{.tXtXi ",
">X/ J.J.K.' F.D.b.3.>.>.V.3.=.) ^ ! ).|.).].).j T T z * * & & & % $ $ @ @ + z c W d [ [ A.,.>.A.Z. .@.T b b ~.|./.~.{.@X}.yXtXi ",
"=XE ! J.L.' F.F.F.3.4.>.D.u.<.| | q.! %X).).: K c c = * & % % $ # @ @ + + X l l P.d [ [ F.u.,.A.Z.*.*.$.L K h ~.,X$X@X X<X2X2Xp ",
"*X! ! L.L.' F.F.G.u.>.>.G.V.>.} | ,.R.R.) L.b S = = * & $ $ $ @ @ + + + X + l l J.] [ [ D.3.3.F.D.&.>.,.Y Y n ~ $X$X X X<X$X:Xi ",
"*X! E L.J.' G.G.F.u.>.>.D.D.>.[ | V.#.~ z z D : = * & % $ @ @ @ + + + X X   l l J.d X.%.D.3.u.G.D.&.>.B.O.O.K j $X$X X X#X$X=XtX",
"*XE W J.J.' G.G.H.u.4.>.D.D.>.[ | A.} ^ S S n - * = & % $ @ @ + + X X X X   l l P.d -.%.F.3.u.F.F. . .,.` ` C Z /./.#X@X$X:X<XyX",
"*XW R I.J.' G.G.G.A.>.>.D.S.>.[ { C.} ) S S Z = = * & % $ @ @ + + X X X X   l l P.] -.%.F.3.u.F.F.&. .y.` ' C Z ~.~.@X+X$X<X,XyX",
"*XR T J.K.' G.G.F.F.;.;.G.D.=.[ | B. .8.D K h * & & % $ @ + + + X X X X   . l l K.3 %.-.F.4.u.F.S.O.E ^ ] _ 2.S K K ,X#X<X<X4XeX",
"*XT T J.I.' G.G.G.A.=.=.G.3.U / R 8.} 8.D T : * & & % $ @ + + + X X       . l l I.3 *.*.H.>.u.F.A.^ 9.R N H ,.K h h oX:X$X4X4XqX",
"*XT T J.J...H.H.H.A.-.-.G.e./ n n ! +.1.T K k * & % % @ @ X X X     X   . . l l W 3 *.*.H.>.u.u.A.7.e.;.L.L.>.C l z ~ &X|.).).yX",
"&XP T ! Q ' H.H.G.F.+.+.G.A.9.[  .Y Y b.G G h & % % @ @ + X X X   X X     . g h U.3 5.=.F.=.>.,.3.{ 3.y.C 6.8.Y z z m |.@X,X$XyX",
"&XH K L.J...G.G.G.r...o.r.r.2.#.#.2.) 8.D G h * & % $ @ + X X X X           l l K.3 -.-.Q.J.U.W.Y.Y.E.E.T.T.I.K.z l L 5X5X<X<XqX",
"&XP P J.L.' H.H.D.M.O.O.r.r.=.#.#.$.J.8.G G h & % % $ @ X X X o     X       l l K.3 -.-.Q.P.U.W.Y.U.T.T.^.T.L.K.z z L 5X5X<X<XqX",
"&XH I L.L.' F.G.q.Y.K.K.L.U.Y.Y.Y./.U.W G G g & % & @ @ + X o X X           l l K.3 5.5.t.Y 9.Y ^ Y 9.0.) / / I.z z ~ ,X0X,X,XqX",
"&XK K J.! ' G.G.b.q.C C 8.8.8.6.6.7.I.0.P P k & $ % @ @ + X + X X X X     . l l K.3 5.5.F.;.D.V.A.[ r.,.9.9.e.@.z z ~ 3X$X+X@X9X",
"OXK K L.Q ' G.F.F.b.&.+.F.F.8. . .@.^ u.D D k & % $ $ @ + X X X X X         h l K.d =.*.G.>.S.F.D.Y 8.@.( ( V.#.z c ( @XoX+X XwX",
"&XK K L.J.' F.G.F.3.=.=.F.e.^ V V R B C.D D k & % % @ @ @ + + X X X X X X   l l K... .%.G.>.D.G.G.Y E R 6.@.B.#.z z ( |. X@X@X7X",
"&XK K ! Q ' G.G.G.>.;.>.3.r.K.E R 7.{ V.D D k & % % $ @ + + X + X   X X     l l W ' } X.G.4.u.G.G.X.@.e.<.<.V.@.z z R.~.}.#X#X7X",
"&XH P J.T ..G.G.F.>.;.>.u.1.J.E R 9.| C.S S : & % % # @ @ @ X @ X X X       l l K.' X.} u.u.u.H.H.} w.2.<.,.B.#.z z ) ~. X$X@X5X",
"&XG G J.K...G.H.M.@.>.>.=.D.=.O.O.C.} Z.S K : & % % % # @ X @ X + X X X X   l l J.d { } 4.!.!.H.u.y.u.u.3.3.V.O.z z b ~ ).~./.1X",
"&XG H J.T ' H.G.[.) =.=.*.D.C.}  .Z.} Z.S H : & % % # @ @ X @ X + X + X X X l l K.d { ' #.Q.Q.u.u.5.u.u.V.V.y.#.z z n +X+X+X+X3X",
"&XP G K.R ..H.u.Q.H ;.;.>.F.D.} } A. .C.S S : & % % % @ @ @ @ X X X X X   + l l K.3  . .%.Q.!.u.G.>.u.u.C.C.y.@.z z ~.3XwX4X4X7X",
"&XP P / W ..u.r.I.P -.%.,.D.C.}  .C.&.B.n K : * & % % # @ @ X X + + + + X X j l G 3 { ` J Q.N 1.r.5.y.u.D.C.,.@.c c ) <X7X3X3X3X",
"&XI P J.T ' 6.J >.X.6.6.u.D.S.%. .V.*.V.K n : & % & % # @ @ # @ + X + X X X l l J.1 ..' 7.u.` Y Y 5.u.u.Z.Z.,.#.c c ~.<X4X$X$X2X",
"&XP P J.P ..6.6.2...6.6.u.D.C.%.} V.*.V.K n : & & % % # @ @ @ @ + X + X X X l l K.1 ' ..q.u.{ Y Y ;.3.u.Z.Z.y.@.z c ~.<X1X$X$X3X",
"&XP T ! P ' J J u.-.J U y.S.S.&.&.V.&.B.n n - & & & % # @ @ @ @ + + + X X + l j G 2 ' ..7.u.' Y Y 5.>.u.S.Z.y.@.z c (.7X+X#X#X2X",
"&XT T ! G ..7.7...o.w.w.u.D.u.[ } V.| B.n A - * & & % % @ X X @ + + + + X X z j T 2  . .6.B N r.m.:.>.V.Z.Z.,.@.c z ^.<X$X<X<X4X",
"&XR T ! W ' A.F.e...3.3.D.u.6.J R 2.| B.A Z = * & & % % @ % % @ + + + + X X z j T 1 <.<.u.4.+.F.D.<.<.C.C.V.,.@.z c )  X X}.}.:X",
"*XR T ! G ' F.D.D.{ D.G.D.r.K.H N ! [ B.Z Z = * & & % % % % X X @ + + + X @ l j T 2 <.<.D.D.*.D.D.*._ ,.V.A.B.@.c z ~.+XoX}.XX1X",
"*XR W ! G ' D.D.F.[ D.D.F.3.^ ] ] Y ^ B.Z Z = * & & % % % X % @ @ @ @ + X @ l l G 1 *.*.S.Z.*.Z.D.@.! / 4.3.y.B z c (.<X3X<X4X1X",
"*XR T ! G ' S.S.D.} D.D.F.b.^ ] ] Y 6.3.Z Z = * & & % % % @ $ @ @ @ @ @ X @ j z H 1 *.*.u.D.*.S.D.@.J.( 4.4.y.o.z z ).<X7X<X<X4X",
"*XW W ! G ..S.D.Z.#.4.4.b.3.>.}  .=.I.>.Z Z = * * & & % % @ % @ @ @ # @ @ @ j j G s  . .S.S.*.S.Z.U w.J ^ ) y.B z z ).#XoX<X4X:X",
"*XE W ! ! ' D.D.q.Y.K.K.P.P.W.W.Y.T.U.! A A = * & & & % % % @ % $ @ $ @ @ # g g P.d } } S.D.*.V.Z.#.1.,.( ) 4.B c z K ~.wX2X2X:X",
"=X! Q W H ' D.u.4.0.7.7.7.0.9.0.0.0.U.) A A = * * * & % % % % % $ $ $ $ @ % j j D V } } u.e.#.2.2.#.$.2.Y ^ 7.I z c L <X4X$X$X$X",
"*XJ.! Q D ' A.S.C.>.C.C.C.V.O.V.V.#.) 1.v v * = * * & & % % % % % % $ $ $ % j h A M X.' Q.J.I.U.Y.U.T.T.Y.T.! J.z z ~.oX+XoX+XOX",
">X/ ! W F ' C.S.C.>.V.C.C.V.O.V.V.+.0.r.Z Z ; * * & & & & % % & # # % % $ % j l F ..X.[ Q.K.L.U.I.Y.Y.T.T.T.J.J.z c R.+X+XoXoXoX",
"=XJ./ W D ' A.S.C.>.A.C.V.1.H =.;.Y w.3.v Z ; * * * * & & & & % % % % % % % h h K...} } 2.8.o.$.$.8.O.8.^ Y ^ E z c R.{.).~.~.=X",
">XJ.J.P R ' V.S.V.:.C.C.V.$.J.R U ) +.>.v v * ; * * * & & & & & & & & % % & h h F M { { V.u. .V.V.4.O.5.) ^ 2.B c l oX7X3X(.).9X",
">XI.I.T F ' S.V.C.*.C.C.V.B.M 8.8.y. .2.v v ; ; * * * * & & & * & & & & & & h h D ..] _ 9.3.%.B.B.U N Y U R y.B z z @X5X<X|.|.0X",
">XI.I.T F ' V.V.C. .V.V.V.A.{ B.V.B. .>.v v ; ; * ; * * * * * & * & * & & & g g G M f 3 [.=.| ,.,.@.T R M .. .N z z +X3X3X+X XeX",
">XU.I.T D ] 2.2.2. .,.b.B.V.{ B.B.y.[ 2.v b ; ; ; ; * * * * * * * & * & * * g g T s , , ' ` a ` _ _ 3 _ a , ` m z j @X$X$X@X@X9X",
"6XI.U.T G ' 4.>.2. .B.,.B.C.{ C.V.y. .2.v v ; - ; ; = * * * * * * * * * * * g g T V , , .._ a ` ` _ 3 d a a _ V z z @X$X$X@X@X9X",
">XU.U.P R ] t.t.M.} b.b.y.B.{ B.V.B. .#.b v - - ; ; ; * * = * * * * * * * * h h D 2 > > , < > , , , < < < > , x j l $X$X@X<X<XqX",
"6XT.T.T F ' 3.3.4.[ b.b.y.B.| B.V.V.[ @.v b - - ; ; ; ; ; ; ; ; ; ; ; ; * - g h ! E J.J.) W L.L.J.I.E J.! J.T G n n $X$X#X2X4XqX",
"6XE.E.T F ' y.V.V.` >.4.2.@.M n N v D m b b * - ; ; ; ; ; ; ; ; ; ; ; - - ; g g P L.E W W J.! E E ! I.W R T H W v v =X4X<X4X4XqX",
"6XE.E.T D M #.#.@.N N N S Z ~ b b A R./..X.X.X].]..X.X_..X_.|._._._._.`._.(._.`.%X&X*X*X*X&X*X*X*X*X&X*X*X%X&X*X%XOX7X6X3X3X3XrX",
"6XQ.^.K.P v G G Z H F F ) /..X8X8XuXx.d.t w 9 t d.u 7 5 7 7 7 5 5 7 r u f.g.g.f.j.f.p.p.p.u 5 5 9 e s.s.d.u 5 4 f.p.6 7 a.d.f.z.",
"8XQ.E.K.G v G G Z G F H ) ~..X8X8XtXx.d.e 9 9 t d.u 5 4 w 7 5 4 5 5 y p i.i.i.d.j.p.s.p.p.u 5 6 w t i.p.j.i.7 6 d.i.5 7 f.f.f.z.",
"'.(.[.W n b F F `.>XtXtXx.9 e 9 9 9 e t 9 e 9 e e e r 9 e y 7 y u i.i.u 7 6 7 9 p.j.0 5 t t 9 9 9 w 7 7 d.j.a.i.j.f.a.a.j.f.f.z.",
"O 8 s.OX>XrXt 9 e 9 9 9 9 9 9 9 w w w 9 w w 9 e 9 9 9 9 w w y t i.g.f.a.7 O O 7 f.h.5 4 9 9 w w w 0 4 5 i.f.f.f.f.f.f.f.f.f.g.z."
};
