/* XPM */
static char *result[] = {
/* columns rows colors chars-per-pixel */
"65 65 255 2 ",
"   c #2D0100",
".  c #2C0C00",
"X  c #320100",
"o  c #390700",
"O  c #320C00",
"+  c #2F1300",
"@  c #341300",
"#  c #3B1501",
"$  c #331C03",
"%  c #3C1902",
"&  c #0A2B01",
"*  c #0E3403",
"=  c #0A3805",
"-  c #143906",
";  c #123C05",
":  c #2B2403",
">  c #2A2B03",
",  c #372504",
"<  c #273705",
"1  c #373806",
"2  c #4F0900",
"3  c #431603",
"4  c #491605",
"5  c #431904",
"6  c #4B1906",
"7  c #4C1A09",
"8  c #521B05",
"9  c #5A1D05",
"0  c #531D09",
"q  c #740B05",
"w  c #661E05",
"e  c #781B09",
"r  c #472709",
"t  c #5A2706",
"y  c #54220A",
"u  c #5C220A",
"i  c #4A380B",
"p  c #593409",
"a  c #492814",
"s  c #552C16",
"d  c #473E13",
"f  c #59351A",
"g  c #682503",
"h  c #64240A",
"j  c #6A260A",
"k  c #642A0A",
"l  c #6C290A",
"z  c #772705",
"x  c #732C0A",
"c  c #7A2E0A",
"v  c #693409",
"b  c #76340A",
"n  c #7C310B",
"m  c #722E14",
"M  c #693719",
"N  c #793515",
"B  c #593923",
"V  c #4D3432",
"C  c #6A3D25",
"Z  c #074A01",
"A  c #154306",
"S  c #1A4505",
"D  c #154D02",
"F  c #1E4E04",
"G  c #164409",
"H  c #19450A",
"J  c #1C4C09",
"K  c #035404",
"L  c #1E5005",
"P  c #1E510A",
"I  c #175909",
"U  c #1D4811",
"Y  c #224504",
"T  c #214D05",
"R  c #274808",
"E  c #34450A",
"W  c #215106",
"Q  c #295307",
"!  c #22530A",
"~  c #245C0B",
"^  c #2A5B0F",
"/  c #37580A",
"(  c #314C13",
")  c #395714",
"_  c #1F650D",
"`  c #26620B",
"'  c #29640B",
"]  c #25680B",
"[  c #2B6C0C",
"{  c #35690B",
"}  c #287607",
"|  c #2E720C",
" . c #31760D",
".. c #377A0C",
"X. c #337C0D",
"o. c #366511",
"O. c #397711",
"+. c #46480B",
"@. c #46550A",
"#. c #504913",
"$. c #475819",
"%. c #6F4E13",
"&. c #4C7416",
"*. c #565923",
"=. c #56522E",
"-. c #6A4628",
";. c #754827",
":. c #78542C",
">. c #695136",
",. c #785739",
"<. c #596523",
"1. c #5B7623",
"2. c #676729",
"3. c #71712D",
"4. c #7A6635",
"5. c #6C5C42",
"6. c #775C43",
"7. c #78654A",
"8. c #7B6955",
"9. c #787059",
"0. c #8B0800",
"q. c #881907",
"w. c #8B160A",
"e. c #882908",
"r. c #90280E",
"t. c #84320C",
"y. c #89370A",
"u. c #8A320D",
"i. c #93370E",
"p. c #893916",
"a. c #913510",
"s. c #B02D10",
"d. c #CE2D0B",
"f. c #D2230C",
"g. c #95470D",
"h. c #9C560D",
"j. c #88451C",
"k. c #984E13",
"l. c #AA460E",
"z. c #A6590C",
"x. c #9F6511",
"c. c #A4680A",
"v. c #AB740A",
"b. c #894828",
"n. c #8F532D",
"m. c #985529",
"M. c #865B37",
"N. c #A55C2C",
"B. c #85643B",
"V. c #8C633C",
"C. c #96673A",
"Z. c #8F773B",
"A. c #A56636",
"S. c #AE6C36",
"D. c #D64E0C",
"F. c #D5670B",
"G. c #E86F0B",
"H. c #825E40",
"J. c #886646",
"K. c #8C6A43",
"L. c #846A4D",
"P. c #8B6C4C",
"I. c #936B44",
"U. c #9B6D42",
"Y. c #8E7048",
"T. c #967647",
"R. c #9C7244",
"E. c #9C744C",
"W. c #826B52",
"Q. c #886E55",
"!. c #8D7254",
"~. c #8B735A",
"^. c #8A785D",
"/. c #977754",
"(. c #95795D",
"). c #9A7A5B",
"_. c #A27545",
"`. c #A3764A",
"'. c #A77A49",
"]. c #AB7C4B",
"[. c #B67D47",
"{. c #A47D54",
"}. c #8A7864",
"|. c #947B63",
" X c #977E66",
".X c #2B8708",
"XX c #36830E",
"oX c #38860E",
"OX c #358A0D",
"+X c #398A0E",
"@X c #3B8311",
"#X c #3C8A11",
"$X c #448816",
"%X c #459216",
"&X c #6A8D2D",
"*X c #998B20",
"=X c #CA8C09",
"-X c #F0990A",
";X c #A78547",
":X c #AD824D",
">X c #B3834E",
",X c #B8884D",
"<X c #A98357",
"1X c #B28552",
"2X c #B58A53",
"3X c #B78956",
"4X c #BB8B53",
"5X c #BC9258",
"6X c #9B8267",
"7X c #9E8A73",
"8X c #A48663",
"9X c #AD9569",
"0X c #CC8B4C",
"qX c #C38E54",
"wX c #C68F59",
"eX c #C79559",
"rX c #C4955A",
"tX c #CC9B5D",
"yX c #D69658",
"uX c #D39B5D",
"iX c #CFAC5E",
"pX c #DBA15C",
"aX c #E4A35E",
"sX c #C99D60",
"dX c #D99D61",
"fX c #C9A86C",
"gX c #DBA463",
"hX c #D7A865",
"jX c #DAB269",
"kX c #E2A464",
"lX c #E4AB66",
"zX c #EAAA67",
"xX c #EDAD68",
"cX c #F3AE6A",
"vX c #E7B66C",
"bX c #F3B46B",
"nX c #F8B86E",
"mX c #E7BE72",
"MX c #F4BD71",
"NX c #FCBD71",
"BX c #DAC57B",
"VX c #EBC576",
"CX c #FCC374",
"ZX c #F7C877",
"AX c #FECC79",
"SX c #EBD17E",
"DX c #F7D27D",
"FX c #FDD37E",
"GX c #DCCA83",
"HX c #E7D184",
"JX c #FED680",
"KX c #F3DD84",
"LX c #FDDB83",
"PX c #FEE889",
"IX c #FFF08C",
/* pixels */
"#X#X+X#X+X+X+XXX^ W ! ! ! ! ! ! ! W ! ! ! ! ! ! ! ! ! ! T E i i i E / XX$XXX' ; S ! ! W ! ! ! ! ! ! ! ! J ; ~ #X#X#X#X#X .; ; = U ",
"XXXXXXoX+XX.X.X.! T W T W W F T T L W W T J F F ! ! W H E k l k k u +. .XXXX~ * ; W L W F W ! F J T J J H = U XXXXXXX.oX .= * - U ",
"XXoXoXXXoXoXG H F L L F F W J F F L F W W F F W L F P E r 5 % 5 0 9 u +.~ ! W F F T T F W W W F L T S * * * J XX#X+XXXoXX.[ ~ * - ",
"X.X.X.XXOX .G * F L F W W F W T W T W W W ! ! F W L L F Y < $ 3 0 h j +.I ! W F F W L W T F J ~ T F J - ; A P oXoXXXXXX.X.XX[ - U ",
"- A - A ~ ~ T F T T F F W W J !  . .X.X.~ F T F W T F W S > 3 u l l j t $.X.[ T T W T P ! T ` X.` & J | | X. .oX+X+X .; H X.XXX.$X",
"* * * * F F W W F T S J ! F F ! | XX+XXX~ F W W W F F T > 5 u j x c n n k / | W S F W W S F ` X.~ & F oXXXoXoXXXX.X.[ = ; XXX.@X#X",
"X.` T F F F F F X.X.XXX.! J X.XXoXX.' ~ W T W L F W Y > 5 h x c t.t.t.t.n v @. .[ ! L L ' X.X.XXX.|  .oXXXoXXX+XX.J H  ._ H P @X#X",
"XX| ~ F F F F L X.oXoXX.T P  .X.oXXX` F F W T W L S , 8 h j x c n t.i.n c z g / _ F F P [ @XXXXXXXXXXXOXoXXXoXoXX.= J @X| = G #X%X",
"W ! L ~ XXOX+X| A A X.XX .X.oX .G J [ @XXXX.~ ! Z #.N.C.N q g x c n n z e m.eX;XQ = P X.XXoX#X+XoXX.XXOXX.X.[ - - * - ~ L P S A U ",
"L L F ~  .X.oX| ; -  .XXXXXXoX .J ; ] X.XX .~ S - ;.wXVXVXpXN.N z t.y.S.VXDXFXlX:.& P OXOXXXXX+XXXX.+XX. .X.] * * * ; T W L H * - ",
"W T T W ` ! OXXX[ ~ J W X.XX~ J ~ | XXXX[ ` ! S $ -.:XjXCXAXVXpXtXpXVXFXPXFXVXrX;., I +X#XXX] D ' +X| H H P P | | J J F F F F F ^ ",
"F W W W ! W  . .XXX.; A X.| ; ; ` X.X.X.~ W ! < O B ,._.rXjXmXZXCXZXZXZXmXhX<XT.N., K  .{ [ I = P XX[ = ; ; J XXXXS F F W F F F o.",
"F T W L W T A P X.X.; - J H * * A G W ` L S I > r M.;.a f ,.!./.B.V.).{.M.f a A.0X9 t v b b v p - S J | ~ * H X.X.F L F L W W T ^ ",
"W F W L F L * - X.X.H * * * * * = = Z D I Z Z > X R.B.  =.6X7X7XP.P.9X6X9XW.3 _.,Xw y.m.S.n c n c v E } | ; J X. .L W T F S F L ^ ",
"L F F W T F F F ~ ! * * * * A A - p k v t 2X,X;.  U.R.B 9X9XV 8XHXSX9X=.9XBX7.].C.t S.bX,Xz c n n c v #.@X|  .XX .* G | X.X.[ T ^ ",
"W F W T W F F P T W * * * = < 1 k x c y.z tXnXC.X C ].J.6XfXfXVXIXIXSXBXGXfX<X4Xs N yXCXS.z n n n c x v @.OXX.X. .& A XXXXXX .L ^ ",
"W F W F W P F F F P ' ' ] ~ p h x n t.a.e.S.MX[.t   :.>XhXSXSXhXVXPXvXmXPXKXjXC.X m.bXvX;.w x c l x x l p O.O.+XX.' { OXX.P P L ^ ",
"W F F W L F W T P T [ X. .+.h x x c n t.e.m.lXaXb.  ,.uXZXFXJXVXSXKXHXKXIXIXJXrXb.,XZXhXw l l l l x l j l +. .oXXXXXXX .[ * ; W ^ ",
"T W F F F F F W T F J ^ +.y k l x x c x z v 4XbXqX_.4XzXCXJXJXLXKXPXPXIXPXPXLXZXkXxXbX[.9 g l x l j l l j k @.#XXXXX .J P G J F ^ ",
"W L W F W F W F F J = > 0 w h k l l c x 9 y B.rXqX4XdXzXNXAXJXLXLXKXPXPXPXPXLXFXNXcXwX-.9 w h k j j l l l l p o.oXXX[ * * W ! S ^ ",
"W F L F F F F W T ! < $ 7 y w h m j j h 7 3 M B._.4XyXaXkXjXjXbXZXDXSXVXVXjXvXvXnXcXyXM.2 9 u u u h l h l j h #.X.+X .` ! ; H [ O.",
"W W W F F W W F W J , # 7 y 0 h j j j h 6 6 B :.J.E.].qXrXhXfXgXlXvXvXlXvXlXgXhXeXwXwXC.4 7 0 0 0 h j j j l h l +.XXXXoX| ; A XX#X",
"T F F F F F T W P > @ 7 3 7 y 9 w j h h 7 7 M ,.,.H.P.`.{.<X<X3X1X<X<X2X2X1X<X2X1X1X].M.s 7 5 5 0 j j l h j j j u ) +X+XX.[ [ XX%X",
"! J ! W F W T L > % 4 7 7 7 7 7 0 u h 0 7 r s -.,.6.L.P.!.!.I.!.`.`.`.'.'.{.].R.U.C.V.;.s 0 5 4 0 h j j l j h u u i X.XX#XXXXXXX%X",
"[ [  .' W W F S $ 6 8 5 3 7 7 7 0 0 0 y 4 7 s C >.6.8.J.U.E.U.E.E.'.].].].1X1X].E.V.M.;.r 6 5 4 7 h h h j h w 7 0 r { +X+X+XXXoX%X",
"X.XXX.| ! L W < # 3 7 6 5 8 4 4 4 % 5 4 @ 3 B =.>.6.W.L.I.P.Q.P.V.K.I.I.T.'.`.]._.U.V.V.b.9 # 5 7 u 9 0 u 7 7 7 0 t o.XXXXXXX.XX%X",
"#XX.~ P T F P : @ @ 4 7 8 5 6 # # @ @ @ O % >.,.M.6.8.W.W.L.L.L.L.J.J.J.J.L.Q.P.J.M.M.`.;X;.  @ 4 7 7 7 4 3 @ 7 h t  .+XX.~ ` +X%X",
"XX[ G * F L S : + O # 7 6 6 4 3 # # @ @ X -.I.W.6.W.L.Q.!.!./.P.L.L.L.L.W.L.W.W.8.6.J.rXrXR.+ @ # 3 % 3 4 u z x t.x #.OXX.= S XX$X",
"` P H G F S > y w j h 0 4 4 # 5 # @ @ O B L.!.(.}.|.{.|.).).|./.~.!.!.~.~.~.Q.8.8.(.5XsXrX`.s O # # 5 y h n u.u.i.t.x @.! ; J ' O.",
"* * F W L < 0 x u.u.t.n j 7 # # # +   # 5.8.Q.(.|. X X{.{. X8X X|.).).|.|.|.|.}.).5XsX5X1XU.M o @ % 0 l x t.n i.a.u.t.l r I L F ^ ",
"G S F T T , h x n t.r.a.t.l u 5 $ @ X =.8.8.~.}.|./.|.{.3X9X3X{.6X8X<X). X|. X6X5XrX3X2XE.B.#.< O # 0 h l x c t.t.u.t.n h Y L W ^ ",
"F W ! F < y x t.t.u.a.a.t.x l y % O > 5.8.Q.~.|. X|.}.|.).{.U.C.C.P.I.).|.).).{.,X1X{.E.J.>.o.J : # 0 u h x x c t.u.t.t.c r F W ^ ",
"W W W L > 9 l t.u.a.i.i.e.x l 0 O < F ( 4.!.|. X X}.}. X}.Q.;.e.p.j.6.8.}. X X).`./.~.W.,.*.~ F < o 5 0 h m x c u.u.t.t.c t T F ^ ",
"F F F W $ 0 x b u.a.y.y.m c l 0 O Y I Z #.M.}. X X}.}. X}.8.N 0.0.e.M.8.8.}. X X}.~.Q.8.=.Q W L T X % 7 9 k l x c t.u.t.c h E P ^ ",
"F ! ~ ^ , y l n j.j.j.j.n l h 0 , S ! R r B 6./.{.{.|.).~.6.N w.w.q.n.W.8.W.8.}. XQ.8.>.( T F L Y X # 3 0 h l l x t.t.u.c j 1 T ^ ",
"F ~  .[ r s M N.N.A.N.m.N l u 4 < Y > % 4 3 t ;.I.U.`.{.{.n.q.w.w.w.j.J.|.|.6.}.|.J.>.t 5 > < F Y X + # 7 h h l x n n t.t.h i L ^ ",
"' | oX' 5 f S.yXpXpXaX0Xn.k r O < > # 4 7 7 2 7 C V._.`.].m.0.w.w.0.p.U.[.`.U.!.P.-.4 4 7 3 % 1 R $ O @ 5 7 h l x j.g.k.j.v a T ^ ",
"XXoXXXQ s C.hXNXJXJXJXFX0X-.% @ , 5 4 7 7 7 7 5 M M.U.`.`.b.0.w.w.w.r.A.].E.`.M.M 3 8 h j u 8 6 1 < X O @ 5 y v j.N.N.S.S.j.r < ^ ",
"oXXX[ Y V.eXcXCXJXLXJXJXCX].a + 3 u 0 7 4 4 4 4 8 C V.U.n.N e.w.w.w.0.m.`.I.M.:.t 8 l x c c h 4 $ Y < X + O y j.S.yXyXaXaXC.d ! O.",
"X.[ ; #.qXdXbXNXFXLXLXJXAXbX;.O 0 h y 7 4 4 4 7 4 9 C M.b.c w.w.w.w.0.b.J.H.C f 9 h x x c c j 6 % Q { 1 a M.].yXnXAXCXNXbXhX3.| %X",
"` P S B.pXdXcXbXJXLXLXLXFXAX_.s h l 9 7 3 4 4 4 5 3 3 f m q.w.w.w.w.w.p.-.s 3 9 z l x x x x j 0 5 E XX{ :.yXNXAXFXFXFXAXnXnX>XX.%X",
"= H <.].hXdXzXlXJXLXJXJXJXFXvXC.b h 0 3 5 4 3 4 5 6 3 8 w w.w.w.w.w.w.w.u 6 y h h j j j x l h u 3 , / &.;XxXNXCXAXFXFXNXNXbXkX&.%X",
"* = Z.qXdXgXkXzXJXLXjXiXhXMXFXlXm.g 0 5 3 3 % # 3 % # 8 e r.r.w.r.r.w.r.j 5 7 0 u u u h j l l j 6 # r Z.yXnXCXAXFXFXFXCXnXcXkX3.@X",
"* E 3XrXdXjXkXzXFXFX].B.{.yXMXAX[.N 8 5 3 % % # # # @ 8 c k.k.u.i.k.i.p.x 3 3 5 7 7 0 9 h j x l 0 3 C 4XxXnXCXAXAXFXCXNXnXxXgX;Xo.",
"- 2.4XtXyXlXkXhXCXZXuXC.).'.gXAXkXn.8 3 3 # # # @ # # h g.h.x.h.z.h.x.h.N 9 # % % # 3 6 0 u h h u M C.uXxXcXNXCXZXAXZXcXxXzXkX1X*.",
"T Z.qXsXeXhXtX1XkXCXzX>XvXuX4XgXnXU.a # # @ @ O O , r h g.c.v.c.c.v.c.x.s.c 1 % @ # % # # 0 h k M C.wXkXdXqXkXNXCXZXMXxXhXuXdXdX2.",
"$.;X2XuX].5XsX].1XvXnXxXMXCXrXdXcXC.r # # @ O > 1 Q +.e g.x.x.h.h.v.c.l.d.l._ ( 1 $ @ @ # 6 0 u C `.uXpX>X!.'.kXNXNXlXzXtXqXyXdX1.",
"*.5XE.5X].R.rX4X'.2XxXnXnXNXdXkXkXM.# # # # o E XX .+.e g.c.c.c.c.v.v.D.d.d.&..XX.( X @ @ % 6 7 ;.4XsX,XR.R.R.:XxXMXgXkX1X>X1XeX1.",
"*.5X'.<XrX:X:XrX:XR.sXzXgXyX5XvXhX-.# # # % 3 $ ' ' i q g.x.c.c.v.=X-XG.D.s.<.OXOX{   @ % # % 5 -.].1X_.eX:X'.wXzXxXsXdXE.E.`.dX=.",
"Q Z.tX_.5XrX`.2XeXZ./.3X2XE.wXmX5Xf @ # % @ @ O < I 1 z q.z.=Xv.-X-X-X-XD.b K +XX.1   @ % % % 3 M E._.U.wX2X,XuXsX,X3X5XP.}./.4X2.",
"F Q 2X1XR.5X;X'.5X<X!.L.7.).eXtXC.a @ # % @ O   > Y K p q.z.v.G.G.G.G.G.c.* P  .' . O + # 3 3 % B !.1XC._.2X,X2X|.!.].:X9.|.{.4X2.",
"F F ) '.!.E.<XT.!.(.4./ &.T.).M.s # % # @ @ + . > Y I G b z.F.D.d.D.D.z./ Z G * < : O @ # # # # s P.<X_.!./.E.T.W.(.|.T. X).6XK.) ",
"L T W 3.~.4.L.8.<.) W ` oX&.&.p 3 # % # @ + . O > Y L L S t.d.d.f.f.r.i K W S A < $ O + @ $ # @ a >.^.Z.9.>.7.Y.9.(.7.8.R.^.3.) ^ ",
"L T T Z Z Z = = } } ~ ~ X..XXX/ , % # # # @ . X : Y L T I S g r.f.r.S F L F ` X.{ $ O + @ @ @ O + 1 { } } K S L @.<.$./ D D Z F ^ ",
"W W W ` ~ ! * * X.oX~ ` X.XXXX| R > , $ @ @ $ a f +.! W W L I %.l R S Q ! ~ | OX) , # + @ % % : Q +X .| ] ! L F L D F L W F F L ^ ",
"F ~ oX+XOXX.- A X.oXXXXXoXXXOXX. ./ $.f s f ;.:.V.2./ P T ! [ | ` F F L | XXOX&.*.C C B s s f @.+XXX] ; ; F L F L L W F F F F ! ^ ",
"! ~ | | oXX.S G  .oXOXoXXXoXXXXXO.<.V._.'.>X2X:X:XR.2.Q F ! [  .' ! W W | .X..3.4XqX].3X1X].].T.1.X.| & * W T W L W T F W F F W ^ ",
"XX[ ; A +XX.XXX.oXoXoXX.XX+XoXoXB.`.'.>X4X>X4X2X_.`.'.4.$.) Y ; ` XX$X$X$X&X*XiXnXxXxXZXZXmXvXtXZ.*.Q W W F T W W F F W F W W F ^ ",
"oX[ * ; | oX+X+XoXoX| XXXXoX.X;X1X].].>X>X,X2X].R._.`.].2XC.-.R ] XX$X&XfXLXIXHXgXuXNXFXPXPXmX5XqX[.:.Z T T L L L ! ! F F F P ! ' ",
" .| - ; * * XXX.XXX.; ; XXXX$.VXhX].:X2X>X:X:X].U.V._.:X:X:X_.1..X.X1.uXAXJXJXxX[.].zXCXDXVXrX5X>X>X'.Q Q W ! W ~ XXX.F F T ~ +X%X",
"+X| * * * *  .X.OX| ; ; } 2.SXFXDXVXmXtXgXjXrX`.C.7.I._.`.'.I.<.} | 1.4XcXNXvXtXC.R.eXuXeX,X].'.;X:X].'.B.W W S P +X| F F ~ ` OX%X",
"oX[ A ; F F  .| A ; F L W eXyXVXgXCXvXgXZXFXgXC.,.*.L *.,.2.) ; - ; D <.Z.Z.3.&.1.V.T.Z.3XtX,XZ._.'.'._.Z.{ } ; G X. .= S | X.oX%X",
"| ` A A ~ ~ X.| ; ; F F K T.Z.yX1XgX5XrXMXbX1XJ.,.o.J = A L A = ; A J P { O...XX .=.W.8.].gXeXC.Z._._.K.B.} [ A S +X[ ; J @XXXXX%X",
"A P [ | X.X.~ W F F L L L F D $.( Z.4.`.dX3X4./ ~ W P F F F J J ~ |  . .~ ; - G ` oX{ =.W.<X5XB.B.*.E - P XXXX| X.XXXX| | oXXXoX%X",
"* S X.X.+XX.! F L L L L W F F W W Q Q ) <.<.( D L T T F F W F P [ oXoX .~ - & * ` XX[ * ( $.) / R P J = U  .oXoXXXXXoXXXXXoXXX+X%X"
};
