/* XPM */
static char *result[] = {
/* columns rows colors chars-per-pixel */
"65 65 246 2 ",
"   c #2D0D00",
".  c #360501",
"X  c #320C00",
"o  c #2C1700",
"O  c #341400",
"+  c #3B1601",
"@  c #331B01",
"#  c #3B1A02",
"$  c #082D02",
"%  c #172B02",
"&  c #0D3403",
"*  c #0A3804",
"=  c #153705",
"-  c #123C05",
";  c #133D0A",
":  c #2B2302",
">  c #262A03",
",  c #362605",
"<  c #283605",
"1  c #373506",
"2  c #5A0E00",
"3  c #441501",
"4  c #481705",
"5  c #441904",
"6  c #4B1A05",
"7  c #4D1C09",
"8  c #571803",
"9  c #531E09",
"0  c #5A1F0A",
"q  c #6B0200",
"w  c #661B00",
"e  c #482507",
"r  c #572806",
"t  c #53220A",
"y  c #5B210A",
"u  c #493708",
"i  c #593809",
"p  c #4C2913",
"a  c #542B14",
"s  c #473211",
"d  c #5D331B",
"f  c #583519",
"g  c #682301",
"h  c #64240A",
"j  c #6A260A",
"k  c #652A0A",
"l  c #6D290A",
"z  c #792800",
"x  c #732B0A",
"c  c #7B2E0A",
"v  c #68340A",
"b  c #78330B",
"n  c #683817",
"m  c #733919",
"M  c #483122",
"N  c #5C3B25",
"B  c #633C24",
"V  c #014700",
"C  c #154306",
"Z  c #1B4506",
"A  c #154C05",
"S  c #1E4E05",
"D  c #16420A",
"F  c #194409",
"G  c #1C4C09",
"H  c #0A5104",
"J  c #135600",
"K  c #1E5105",
"L  c #1E5209",
"P  c #274607",
"I  c #214E05",
"U  c #374909",
"Y  c #205106",
"T  c #21540A",
"R  c #275708",
"E  c #245C0A",
"W  c #2B5B0E",
"Q  c #37540B",
"!  c #374A15",
"~  c #285311",
"^  c #395517",
"/  c #1E6F05",
"(  c #266803",
")  c #26620B",
"_  c #29650B",
"`  c #2C6C0C",
"'  c #37650B",
"]  c #346D0C",
"[  c #2B7A07",
"{  c #2E730C",
"}  c #31760D",
"|  c #337C0D",
" . c #39780D",
".. c #336212",
"X. c #3A7A11",
"o. c #57490B",
"O. c #49500D",
"+. c #444819",
"@. c #455816",
"#. c #53581F",
"$. c #624A0C",
"%. c #73421B",
"&. c #4B7117",
"*. c #555526",
"=. c #694528",
"-. c #764826",
";. c #734B2C",
":. c #6D572F",
">. c #6A4B37",
",. c #7C5434",
"<. c #7A5738",
"1. c #4F6322",
"2. c #6A6729",
"3. c #6C762D",
"4. c #7A6734",
"5. c #7B7837",
"6. c #6C5945",
"7. c #795D47",
"8. c #746348",
"9. c #7C6753",
"0. c #8E1808",
"q. c #BE1F04",
"w. c #892908",
"e. c #82310B",
"r. c #B2310F",
"t. c #DB1C00",
"y. c #D82907",
"u. c #DB260C",
"i. c #CE310D",
"p. c #E3310B",
"a. c #8C421B",
"s. c #88552C",
"d. c #9B572B",
"f. c #864B31",
"g. c #825B36",
"h. c #855C38",
"j. c #965A36",
"k. c #B45228",
"l. c #8C642E",
"z. c #87663A",
"x. c #97683B",
"c. c #94693D",
"v. c #87773A",
"b. c #97793C",
"n. c #A66938",
"m. c #DE580C",
"M. c #D34912",
"N. c #E76A0B",
"B. c #ED790A",
"V. c #CA4F26",
"C. c #D37436",
"Z. c #8E5A41",
"A. c #886747",
"S. c #946C43",
"D. c #966D45",
"F. c #9C7245",
"G. c #98744A",
"H. c #866C53",
"J. c #8D7254",
"K. c #8C745D",
"L. c #937353",
"P. c #997957",
"I. c #A06F42",
"U. c #A37444",
"Y. c #A4764A",
"T. c #A97749",
"R. c #A57A4B",
"E. c #AC7C4C",
"W. c #B47B46",
"Q. c #A47D55",
"!. c #8B7563",
"~. c #9A7E65",
"^. c #CB7B47",
"/. c #2D820B",
"(. c #36830E",
"). c #38860E",
"_. c #34880B",
"`. c #398A0E",
"'. c #368211",
"]. c #3D8513",
"[. c #3C8B10",
"{. c #468718",
"}. c #52811D",
"|. c #449216",
" X c #5A8820",
".X c #748B30",
"XX c #8D8D3C",
"oX c #EA840D",
"OX c #F49A09",
"+X c #F8A809",
"@X c #FAB609",
"#X c #FCC50A",
"$X c #958C48",
"%X c #AE814E",
"&X c #B2834E",
"*X c #B8844C",
"=X c #AE964E",
"-X c #AB8558",
";X c #B38551",
":X c #B98A55",
">X c #BB8C54",
",X c #B28B5A",
"<X c #BA9556",
"1X c #B1AA52",
"2X c #9C8268",
"3X c #A68C6A",
"4X c #B39368",
"5X c #BCA97D",
"6X c #CC864C",
"7X c #C38D54",
"8X c #C98E56",
"9X c #C39359",
"0X c #C9965A",
"qX c #D69658",
"wX c #D39C5D",
"eX c #E58F48",
"rX c #D2A25F",
"tX c #E3A05F",
"yX c #D69E60",
"uX c #D5A563",
"iX c #DBA765",
"pX c #D2AD6D",
"aX c #E2A563",
"sX c #E6AB67",
"dX c #F4AF67",
"fX c #E5B36B",
"gX c #EAB76D",
"hX c #F2B36C",
"jX c #F6B56C",
"kX c #E6BB72",
"lX c #EEBE72",
"zX c #F3BD71",
"xX c #F9BD71",
"cX c #EAC575",
"vX c #F4C374",
"bX c #FBC475",
"nX c #F7CA79",
"mX c #FCCC7A",
"MX c #FDD37D",
"NX c #F8D47D",
"BX c #C9B988",
"VX c #DEC987",
"CX c #EDCF84",
"ZX c #FAD685",
"AX c #FDDC82",
"SX c #FEE387",
/* pixels */
"[.[.[.[.`.`.`.[.J .X$X^ L T T T T T T T T T T T T T T ~ T T T T T E { ].].} E - S T T Y T T T T T T T T G ; T ].[.].[.[.| - & ; ! ",
"(.(.(.(.(./..X.XyXmXgXQ.! Y Y L K S T Y I G S S T T S G Y S S S Z I _ '.&.k k e = K L Y S L T S S S I I G & G '.(.'.(.(.{ ; & & D ",
").[.).(.`.XXkXiXyXiX:XF.v.@.S S S K S K I S S S S I S L S Y Y S I G T E T 1 h l i < I I T I S S S S G - & & G ).`.[.(.(.(.{ ) & D ",
"} | (.&.<XiXlXvX>XY.D.R.8X2.Y S I Y Y L T T T S S S Y S Y Y I Y T T T T R P 6 x e.v P I S S T T I S ; - - C T (.(.(.).| { '.` ; ; ",
"- C V 9XhXnXfXaXfX,Xb.yXE.#.Y T ` } (.(.E S Y Y Y S S S Y S S Y ` | | (.(.' r x b c i P Y Y ( } W $ G { { } | (.).).} - F | (.} ].",
"$ * 2.<X<XuXbXuXiX>XU.sXU.+.S T ] (.(.(.E S Y Y Y I I Y S I K Y ` (.)._./.U 2 z e.z 8 1 H I E | T & G `.(.(.(.(.| | ` $ C '.} ].].",
"`.5.wXvXzX9XyXiX&XD.9XnX*X@.| (.`.(.` T Y I S S Y Y L I Y Y Y Y Y E (  XXXn.d.n.n.6X7X*X.X( /.`.| { | (.(.(.[.(.(.A G (.) A L [.].",
"&.4.F.,XuXiX,X-XL.;XvXSXnX4. .| (.| ) I Y Y Y S S I S S S S I I S ~ v.0XuXfXzXcXgXvXvXzXiXXX/._.(.(.(.(.(.).`.(.| * C ].{ * D `.|.",
"#.A.D.L.P.-XE.L.;XrXAXSXmX1X&.[ G F ` (.(.} E Y S Y Y S S S S I S +.N B <.P.P.z.P.H.g.=.<.F.2._.).} (.`.).(.` ; ; & = T T L F - G ",
"#.G.E.E.R.L.9X0XgXzXZXSXmX<X}.{ F - ` (.(.{ E S S Y Y S I Y S L J #.d >.H.L.pX4X3XP.3XB n W.l.[ [.(.`.| } | _ * & & - I Y L S & D ",
"@.z.9XiX<X:XcXmXMXbXbXmXxXwX1.C E ] | (.{ E T Y Y S S S I E ` } ( z.F.%XzXlXCXZXCXnXZX<X,.9Xn 1 ) _.| C C G T _ ` F A T S S I S T ",
"I ! 2.;XwXiXvXmXbXvXzXhXdXdXU.f 1 } (.| _ L L I S Y S S S L ` [ Y z.:XY.S.x.z.A.F.<XfXkX0Xg.8 e V [ _ * - C G '.| I I I Y S S S ..",
"Y S R z.P.:XqXiXiXfXdXhXtXeXn.a.k u L ) T S T S Y Y Y S S A @.1.#.;.=.>.6.!.2X~.9.A.g.S.9Xn.2 %.v.5.H { E & F | } S S S I S S S W ",
"Y S S U #.H.~.P.,X0XtXqX6Xn.%.b l j 1 K L Y S Y I S S S S V .X<Xs.t 8.2X5XBXVXCXBX5X!.6.-.T.W.C.cX2.V } { & A | (.K S S S S S S W ",
"S S S K I ! 8.H.S.c.n.n.d.a.b b x x y u I Y S S I S S S G A 1.4.B H.pXkXCXZXZXAXAXSXCXpX!.;.R.aXrX&.[ | `.{ | (.} & F | | | ` I ) ",
"L S L S G A ! M d n m m x x x x l j j t P S S T T I S Y T I @.+.<.3X,X,X3X>X>X4X9XpXpXBXpX2XN D.5.` | '.(.(.| | } & - (.(.(.} S W ",
"Y S Y S Y Y P o 5 t r y j l x k l x l y 1 G A A ) { { { E A +.=.7.H.J.D.F.E.%X;X,X>X>X<X9X-Xh.g.2./.| L E (.(.(.(.E { (.| T L T W ",
"Y K S Y Y S L > O 6 t y h j k x l j y t # p v u @.X._././ H ! *.<.A.G.G.T.E.E.&X:X9X9X7X>XE.Y.S.2.[ { * A ).).(.(.(.(.} { * ; S W ",
"S Y S K S S S < O 5 7 9 y h l h h h 9 4 3 l b e.b $.$.$.o.u i =.<.A.A.S.S.S.F.Y.E.E.&X:X:X%XT.D.:.R R F Y (.(._.(.(.} A L C C S W ",
"Y S Y S I S S Z @ + 3 9 y y y y 0 0 t 4 t b e.e.e.v b c c c n >.9.9.9.H.A.A.A.S.S.F.F.E.E.T.F.g.v v v r i $.o.O./.'.{ $ & S T S W ",
"S S S S S S S S > + + 4 6 6 7 9 7 9 t y k x c c c x j x e.g a >.9.J.J.J.L.H.H.A.9.H.A.H.9.9.,.x z x b c c b x l O.(.| _ T ; F } X.",
"Y Y Y Y S Y Y Y P : + + + 5 5 4 7 e 0 h l l x l l l 0 l z z -.Z.J.!.!.!.!.!.J.J.J.!.K.K.9.8.A.s.z q q z z c c c x o.} ).` * F | {.",
"L S L S S S K K S I 1 @ O + 3 6 9 9 9 h h j l l l y 0 w d.U.D.T.E.Q.-X3X-X-X~.~.2X2X2X!.J.rXfXkXcXpX7Xd.b w x c b x o.} (._ ` | |.",
"Y S Y Y S I S S S Y G @ O + 3 9 y 9 t 9 y h l l h 0 4 a.8X0XY.E.;X;X,X4X3X3X3X3X3X2XJ.K.Q.aXbXmXMXAXNXfX7Xd.g 8 l c c o.X.).`.| |.",
"` ] ` ` Y Y Y Y S L S P @ . . 4 6 7 7 7 7 t y y y 9 3 x.sXyXY.T.:X;X>X,X-XG.j.Z.j.f.;.7.R.8XzXmXMXMXSXMXNXfX0Xj.2 w x b o.&.(.(.|.",
"| (.| } Y I Y Y S I S E ] ' U , + 5 5 7 4 6 7 7 6 O 4 n.aXwXD.T.;X;X>X:X;Xx.w.0.w.m Z.A.Y.E.7XiXgXmXMXMXMXMXmXfX7Xn.b j x v Q (.|.",
"(.| E L S S T S S Y ` } (.(. .] U e 3 5 5 + + 3 +   t Y.yXiX;XU.W.E.;X&X&Xd.w.0.w.=.A.c.Y.A.g.S.8XzXMXMXMXMXMXmXbXaXj.g l j u (.|.",
"(.{ - & S S Y S S E } | (.(.`.).'.U , + O + O O + . d F.wXaXiX8XE.%XE.E.n.a.0.0.e.s.S.A.G.7.>.,.7XhXnXMXMXMXmXmXbXdX^.r j h e ] |.",
") T F Z S S Y Y S Y _ ` (.(.`.(.{ I = > > : , , , @ N S.>XwXsXhXsXuX8XW.k.q.i.q.r.F.;XA.F.A.7.-XlXmXMXMXZXbXxXjXhXtX6Xr h y t U X.",
"- * S L S S S K L Y S E | (.(.| G & * * C P = % Z < f ,.E.8XyXhXxXjXyX^.y.u.u.u.i.n.G.L.G.G.Q.0XgXlXlXlXlXsXaXwX0X7XS.y 0 9 9 # ! ",
"C Z S S S I K S I S S Y E _ _ E G Z C F S K A C E P , =.S.E.8XwXaXaXeXV.t.u.u.u.i.A.G.L.L.D.W.-X-X>X7X8X7X:XR.E.E.S.=.e 7 t 7 + 1 ",
"G Y Y I Y I Y I Y S S Y I S T S I T I G K S S Y { ] , p ;.S.Y.&X>X^.V.y.u.u.u.u.k.A.c.D.S.A.P.P.K.K.P.P.L.L.H.A.h.B p 4 7 6 + O P ",
"Y Y Y S I Y I Y Y S S I S Y I K T Y Y L S S S T _ ` U @ a ;.,.A.D.V.p.i.u.u.u.i.k.4.h.Z.A.S.L.G.J.9.6.>.6.>.>.N n 5 + 3 # + X > ~ ",
"Y Y S L S S I Y S S Y S Y Y Y S G Y I Y S S S S T E _ < . p N =.d.B.B.N.m.m.m.y.V.G.<.<.,.g.h.7.<.N O ! ^ ! , 4 3 3 3 3 O . < Z W ",
"Y T ) _ _ _ Y Y Y S K Y Y S G L I Y I S S Y I Y S I E P   O p e.m.+X@XOXoXB.N.N.C.<Xh.g.;.>.B N p O > _ ) ( U 1 , , e e 1 < _ I W ",
"L T | (.'.| Y Y Y I S L S S S S Y Y S S S T Y Y Y G ; = : + e.i.B.@X#X+XOX+X+XOXeXuXI.c.z.,.B p   : R (.'.'.` A P % P ' ' { | S W ",
"_ { (.(.` _ T Y Y Y Y S L S Y I Y I S Y S Y Y S I S C ; = e q.p.OX#X@X+X@X#X+XoXeXuXW.T.F.g.=.+ o < E _ { '.| ` ) C L `.).).} I W ",
"(.).(.} * $ S G S Y S S Y S I Y S Y S Y S S S Y S Y L K Z % 0.M.OX#X@X@X#X@XB.p.C.uX;XE.S.,.d @ I L F * A | ).[.(.S ) (.(.(.} Y W ",
"_.| ` E S G ) _ K Y _ E Y L K S S I I S E _ _ _ _ ) Y U u 4 j r.N.N.B.OX@X@XoXi.^.iX&XE.x.,.p , ~ P T L T ) } `.(._ ` ).(.(.(._ } ",
"| { ; C { | | | Y Y | | R Y Y S S S L Y | (.| (.| ' o.v b x k a.i.y.p.M.N.oXC.C.dXfX>XU.c.,.t 3 3 1 ! _ _ D G ].(.(.| (.(.(.(.} |.",
"_ E L E `.`.{ } Y Y (.| ` _ Y L S Y E ` | (.(.(.' v c e.e.e.l -.d.M.V.k.k.T.W.tXzXfX:XF.c.;.r 3 4 4 8 u O.R ) `.(.(.).(.} _ ` (.|.",
"& F } } ).(.E T K T | (.| (.R S S E } (.(.(.(.} u j b b c x 8 d s.l.x.F.R.E.*XiXfXwXE.S.z.=.6 3 6 y l c k ' _._.(.(.`.).} - F (.|.",
"& D } | ` ` L S S T } (.(.(.` ) Y T } (.).(.{ U y l x x j e 4 t =.,.h.c.S.D.&X8X8X>Xn.<.=.d 4 9 h j c c x i /.{ ` ` ` `.} ; F } {.",
"& D } } - - S S Y Y | ).(.(.(.(.) Y } (.).| G e h x x j y 4 4 3 3 a -.,.g.z.c.F.U.c.,.B 8 4 y j x x x x x v @.L L - A '.| Y L T W ",
"; F ( _ & = Y I S Y _ ` (.(.{ _ T T ) _ | | U 9 j l l x r 4 5 5 3 3 6 f =.<.g.g.;.d t 3 9 w j h h j x j x x k Z S - G ` ` Y S S W ",
"I A & * Y Y K S S S & - | | C & A S & = {  .O.y j l l l h 6 O + + O 3 3 7 d ;.=.p . 3 7 0 0 0 y y j j j x l r u S Y S S S S S S W ",
"I I = - S K S Y I K = D ` { Z & D F C A } Q 6 y j j l h 9 4 + O + O O O , , e , @ + + 3 # 5 7 7 9 h j l x x k k I S S Y S I S Y ~ ",
"S I Y Y S S I Y S S K S T I L G ; - _ } { u 8 h l j h y 6 + O O O @ , < P ' ' Q Q U 1 O + + O + 5 9 y j l x l h e S Y Y T S Y S W ",
"S S Y Y Y S Y Y S Y Y Y S S E _ E T _ { ~ , 0 h j h y 9 5 O O @ > < K L _ { | `.[. .W % @ # # @ + 5 9 y h j k j e G L S Y I Y S W ",
"I K S Y Y S S S S K Y S S L { | | } G * : # 9 h h t 7 4 + O : < S S L Y C * _ `.`.(._ * % > , # O + 5 7 9 h j h e Z S T S Y Y I W ",
"I K S S S Y E R Y S Y L E E | ).'.| A $ > @ 7 9 9 7 7 7 6 3 @ P K S S Y F & T } (.(.{ A A G G : X + # 6 e 9 y y # I I I I Y S Y W ",
"S S I Y Y S (.| R Y Y T (.| (.).[.} A ; L < 5 5 3 5 7 0 9 + . < L K S K S S C * E (.[.'.'.| _ . O + 5 3 3 3 7 # : Y S I S S S Y W ",
"S Y Y S S I } } E E S E | ).(.(.} ` G F } Q , O 5 3 6 7 5 + X : P K S K L I S C ) (.`.(.(.(.W . O + 5 5 # @ o o Z S S Y S I Y S W ",
"Y Y Y Y Y K * - } { E E | (.).| G Z ` | (.| < + + O + 5 + O O   < K K K I T E } '.(.(.(.| ] < . O O + + + + O : Y Y S I Y Y S T W ",
"Y Y E E E R & & | (._ _ | ).).} L A } ).} _ S , # O + # + O   @ P K S K T E { (.`.(.| } ` W > .   O O O O O : Z I Y I Y T S S Y W ",
"S T | `.).| - - } (.| ).).(.(._.(.} ).`.G * ` ] U e 3 O   X O s U K S Y ` (.(.(.(.(.) & & = 1 + O + + O o > Z S Y S Y I S S I Y W ",
"L E ] (.(.(.Z Z (.(.).(.(.).(.(.(.(.`.(.T D ` `.(.Q e p a p N ,.:.Q S T { ].| } (.(._ - * 1 d d d a f s 1 P Y P S Y S S Y S S Y W ",
"(.` - - (.(.| ).(.(.(.| (.(.(.)._.`.).).(.| (.| W *.h.R.;X>X:X7X:XXX{.].].`.` C ) '.(.{ ..v.7XT.Y.*X;X;XA.1.^ R E I S Y I Y Y I W ",
"(.` & - { (._.(.).(.} | ).`.(.(.(.).`.(.(.[.(.&.z.0XcXMXMXNXcXbXbXmXcX1XXX{.) C L ].{..X1XzXbXzXbXMXSXSXSXlX1X XS E T L S S S E _ ",
"| } - - $ & | (.(.(.- - | } C - ` | (.).(.[ ^ 8XmXmXMXNXNXSXMXzXdXzXMXMXMXpX| _.[ .XfXSXAXvXyX8XhXNXAXAXSXSXSXNX@.].| G Y L _ | |.",
"`.` & & & & } (.(.| Z * { (.F * _ | ).(._.{.=XcXmXMXvXvXSXMXMXsX>XwXsXhXlX<X&./. .XXjXbXvXfXE.T.uXhXbXSXSXMXNXNXcX<X).S S E _ _.|.",
"(.` C - G K (.{ ; & S S E T Y G & ; { (.H 0XcXfXcXvXkXNXMXgXsX9X4.#.4.XXb.}._._.).3.E.yX9XF.A.<.*X>X0XvXNXvXMXMXvXgX.X$ F { | (.|.",
"} ) D C R T } ` - - S S S Y S S & C { | J 5.>X*XwX9X9XkXiX%XF.:.< * C L { | [  .(.(.).&.{.} E ^ $XJ.J.rXvXyXwXwX$XXX .* G | ).(.|.",
"- L { { | | ) Y S Y S S Y S Y S S S T T J O.1.:.b.G.-XwX3X:.O.~ E { } [ R - * C _ _.{ * A R T I ^ :.#.Q.rX&X5.3. .] (.} { (.(.).|.",
"& C } | `.| E I L Y S K Y K S I K S Y S Y S S S S S R @.U S G G ` (._.| _ & $ = E (.` * ; I S K K S S < I | (.| (.(.(.(.(.).(.(.|."
};
