/* XPM */
static char *result[] = {
/* columns rows colors chars-per-pixel */
"65 65 250 2 ",
"   c #2E0800",
".  c #370901",
"X  c #330C00",
"o  c #2E1300",
"O  c #2D1D02",
"+  c #341300",
"@  c #3B1601",
"#  c #351C02",
"$  c #3C1A02",
"%  c #072C02",
"&  c #1E2702",
"*  c #063604",
"=  c #0D3403",
"-  c #0E3A05",
";  c #183704",
":  c #123C04",
">  c #123C09",
",  c #242602",
"<  c #2C2201",
"1  c #2C2A04",
"2  c #382805",
"3  c #283805",
"4  c #353506",
"5  c #383D15",
"6  c #4D0B03",
"7  c #421602",
"8  c #441904",
"9  c #4B1A06",
"0  c #471B08",
"q  c #4D1D09",
"w  c #561B04",
"e  c #531E09",
"r  c #661D06",
"t  c #781A05",
"y  c #45250B",
"u  c #4A230B",
"i  c #54210A",
"p  c #5B210A",
"a  c #572A08",
"s  c #573809",
"d  c #482713",
"f  c #552A15",
"g  c #483410",
"h  c #55351C",
"j  c #682704",
"k  c #63230A",
"l  c #6A260A",
"z  c #6D290A",
"x  c #772704",
"c  c #732C0A",
"v  c #7B2E0B",
"b  c #6A370B",
"n  c #79310B",
"m  c #672B11",
"M  c #663717",
"N  c #763919",
"B  c #5B3922",
"V  c #663A23",
"C  c #064901",
"Z  c #154205",
"A  c #1A4505",
"S  c #164B04",
"D  c #1E4E05",
"F  c #164309",
"G  c #194609",
"H  c #1C4C09",
"J  c #085201",
"K  c #1F5005",
"L  c #1E5109",
"P  c #195809",
"I  c #234404",
"U  c #214E05",
"Y  c #2A4708",
"T  c #224D0A",
"R  c #33470A",
"E  c #205106",
"W  c #21540A",
"Q  c #2A5408",
"!  c #245C0B",
"~  c #2A5B0E",
"^  c #37560B",
"/  c #304D15",
"(  c #3A5715",
")  c #0A7700",
"_  c #26620B",
"`  c #29650B",
"'  c #246D08",
"]  c #2B6B0C",
"[  c #36670B",
"{  c #2C7A05",
"}  c #2E730C",
"|  c #31750D",
" . c #337C0D",
".. c #326112",
"X. c #397912",
"o. c #47470B",
"O. c #514E10",
"+. c #47571B",
"@. c #694F15",
"#. c #456A1A",
"$. c #4A7118",
"%. c #564824",
"&. c #575724",
"*. c #6B462B",
"=. c #764A2B",
"-. c #78532D",
";. c #734E32",
":. c #6A5232",
">. c #795636",
",. c #576628",
"<. c #557522",
"1. c #63652A",
"2. c #6F712F",
"3. c #71752D",
"4. c #7B6936",
"5. c #715A47",
"6. c #79634A",
"7. c #7D6853",
"8. c #881503",
"9. c #951606",
"0. c #B4140B",
"q. c #832D0C",
"w. c #83310C",
"e. c #912C12",
"r. c #AA2E11",
"t. c #C4150F",
"y. c #DC1C0E",
"u. c #E01A09",
"i. c #DB240E",
"p. c #D13112",
"a. c #E12F0D",
"s. c #BC4514",
"d. c #8A4623",
"f. c #974829",
"g. c #88532C",
"h. c #94562A",
"j. c #855B38",
"k. c #985833",
"l. c #A6542B",
"z. c #896739",
"x. c #8B633D",
"c. c #97653B",
"v. c #946A3E",
"b. c #8D7238",
"n. c #A76637",
"m. c #DC540F",
"M. c #E5540D",
"N. c #E76C0F",
"B. c #ED760B",
"V. c #CD7027",
"C. c #965B42",
"Z. c #896747",
"A. c #84694D",
"S. c #956C43",
"D. c #976C45",
"F. c #87724A",
"G. c #9D7245",
"H. c #967945",
"J. c #95724A",
"K. c #9C7449",
"L. c #886E53",
"P. c #8C7458",
"I. c #977857",
"U. c #A56E41",
"Y. c #A37445",
"T. c #AA7745",
"R. c #A3764A",
"E. c #A5794A",
"W. c #AB7C4B",
"Q. c #B27C49",
"!. c #A37B51",
"~. c #AB7F51",
"^. c #8D7663",
"/. c #947B62",
"(. c #2F8A09",
"). c #318803",
"_. c #36830E",
"`. c #38860E",
"'. c #368A0E",
"]. c #398A0E",
"[. c #3D8513",
"{. c #3C8B10",
"}. c #438915",
"|. c #449116",
" X c #66862A",
".X c #759A31",
"XX c #8D8C3D",
"oX c #EE890A",
"OX c #F59609",
"+X c #F7A409",
"@X c #FAB509",
"#X c #EA8D26",
"$X c #FDC709",
"%X c #9C854C",
"&X c #8F9B41",
"*X c #AA854B",
"=X c #B3834E",
"-X c #B58A4E",
";X c #AA8358",
":X c #B38551",
">X c #B58B52",
",X c #BA8B54",
"<X c #B88B56",
"1X c #AD9651",
"2X c #BB9457",
"3X c #A6A851",
"4X c #9A8266",
"5X c #A48B6B",
"6X c #AC916B",
"7X c #AA9573",
"8X c #CB894C",
"9X c #C58A52",
"0X c #C28C53",
"qX c #C39256",
"wX c #C4955A",
"eX c #C8965A",
"rX c #CC9B5D",
"tX c #D39C5E",
"yX c #D89958",
"uX c #E18C50",
"iX c #CAA35E",
"pX c #D5A25F",
"aX c #CD9D61",
"sX c #C8A465",
"dX c #DCA463",
"fX c #D8A965",
"gX c #DAB469",
"hX c #D8B477",
"jX c #E3A966",
"kX c #F0AC69",
"lX c #E7B76D",
"zX c #EBB36B",
"xX c #F2B76D",
"cX c #E3BA71",
"vX c #E9BD72",
"bX c #F4BD71",
"nX c #DEC77A",
"mX c #EBC675",
"MX c #E9CA74",
"NX c #F7C776",
"BX c #F3CD7B",
"VX c #FCCD7A",
"CX c #FCD37E",
"ZX c #F4D87F",
"AX c #D3BF80",
"SX c #DBC881",
"DX c #E8D386",
"FX c #FAD783",
"GX c #FEDC84",
"HX c #FCE48A",
/* pixels */
"{.{.{.{.].{.{.].' P ( ~ W W W W W W W W W W E W W W W W L Y s s R H ] [.}.[._ - A W W W W W W W W W W W T > W [.[.{.{.'. .: > - / ",
"`._._._.'.(.$.gX*XBXVX3.Y E D K D K E W H H H E W W T H H D 3 w z o.` _.`._.! = : U E E H H E D T H H H H = G `.`.`.`. . .> % > F ",
"`._.`._.).XXnXcXzXbXtXJ.( E D D D K D E U D T E E K T U K K 3 y z c g E ! W K K U K E D E E E K U H G = = = S ).'.'.].'._.] ! - F ",
" . . .`.1XfXcXbX,X~.P.I.Z.( K E U E E E W W E D D E K D K K I 0 l v b o.P W L K D K K D E U U W U U S : > 3  X1X.X&X<.{  ._.] > > ",
": : * b.DXMX2XzX,XL.L.!.z.^ D L ]  ._. .! D D U U U U D E K A a x w.q.O.| _.] H U D D K L L ` | _ = Z } } ,.qXmXBXBXgX2.C _.[. .[.",
"= * 2XwX-XvXjXwX<XL.R.D.&.U D W }  .`._.! D E E D K D K C C s j w.e.f.v.z. .' E D E D E D L ` | W % H X.,.L.P.<XzXfXMXMX:X$.).'.[.",
" .v.tXxXfX>XfX~.!.!.:XY./ S | `.]._.] E E E U U K U D Q *XfXmXCXVXVXFXCXBXiX<.)._ E D K `  . .'._.}  .}.2.^./.I.I.,XfX,XcXFX%X(.[.",
"#.F.E.wXjX>X>XE.!.W.jXeX+.K  . .`._._ U U E E U K U C %.z.-X,XqX-X1X1X-XW.T.b.{ _ L L H ] `._.`.`._._._.,./.I.I.L.W.2X-XvXsX:X.X[.",
"#.I.J.J.>XI.K.J.Y.wXNXkX X .`.| H H ] _._.} ! E U K Y %.B %.6.7X2XI.4X4X%.S.:X[ ' = W  .`.'.].{.`.|  .].<.J.T.W.A.I.Y.=XaXW.mXvX1.",
"( T.*XI.I.J.S.G.W.vXVXkX<._.].| F : ] _._.| ! D D U U *.h x.Y.!.SXMXsXSX1Xv.eX4 P = E [.'._._._.]._.]. .#.Z.W.<XR./.6.G.>X>XvXeXK.",
"I 1.fX>X;XrXeXdXjXNXVXrX<._.! H ! } _. .] _ E E E S 5 D.W.eXcXhXvXmXDXHXcX-XG.+ * % ! {.{.`._ H ` `. .F / D.~.Q.W.J.J.P.6.T.qXG.K.",
"H / S.-X=XlXNXlXgXxXbXdX2.^ : - `  ._. ._ T E U D J & S.~.S.>.;.-.-.j.x.Q.yXc.w O.1.J _._.} _ > L  .! = 5 Z.Q.:XqX=XG.G.!.I.J.dX2.",
"I H +.Y.:XfXcXgXjXjXdXjXj.2 ; ; Z G E ! E D E S $.<.@.j.;.*.5.^.5X5X^.A.:.x.n.k.,X%X% > Z G : = = G L ] +.D.<X<XgXeXrXsXqX=X:XeX( ",
"E D T +.A.!.2X2XdXtX8X9Xn.z 2 ; = = D T E E D S ^ 2XT.k A.5X7XAXHXDXDXSX7X7.=.qXfX2.% > - = = % > = H ` 5 R.tXtXjXdXgXlXfX:X=X1.~ ",
"D D D D +.I.I.E.8X8XT.n.d.z e 4 A S D U E E L D Z K.x.5.7XAXNXVXGXHXGXGXFXhX5.S.1X#.' ] H = A ] | _.] 4 f S.0XyXdXdXfXfXiXT.1.U ~ ",
"K D K D A %.=.=.h.h.g.N z l r 5 D K E E D K D H S 1.:.S.2X2XwX<X>X<XwXwXaXhX6X>.>.X._.| _ * L _._.{.^ $ f j.W.9XtXaX1X>X4X4.| I ~ ",
"E K E D E < y f m M c l l l r i 5 Z J P J K S S ' 1.5.6.L.J.S.W.:X,X<X0X9X<X:XE.b.}.'.(._.! L P ]  .1 7 f N x.n.=X-Xv.Z.:./ P H ~ ",
"E E H E D O @ q k k k l z z k e u a M b O.o.+.^ [ %.-.6.Z.T.Q.~.:X=X<XwXqX0X~.W.H.$.(.(.(.} ' * G ` . q i p N =.-.h.V d R - > L ~ ",
"U E D K D < 7 0 p e l l l k k e 9 l w.w.n b b b s B *.6.A.J.J.G.Y.G.T.Q.:X=X:XE.z.O.O.@.@.O.O.s s 2 @ 9 i e k f m c p @ 3 G F L ~ ",
"E D E D D 1 @ 9 q e k z k p e $ @ c v v n w.w.w.k B >.6.A.A.A.A.S.Z.Z.D.G.!.Y.S.=.x v v v v b c p   @ e i p k p e k q 8 1 L L L ~ ",
"D E K D D 3 # 8 0 i p p r e 9 + 7 z v c c n v w.q.m 5.7.L.I.P.A.A.L.A.A.A.L.A.>.N x c c c c z c k o @ 0 e e p p e e q # 1 Z Z ] X.",
"E E E D D I # @ $ 8 0 q q 9 @ @ e c c c z z n x x V Z.P.4X^.^.P.A.L.P.P.P.7.7.*.t x c v c l k z p o + 7 q e p p p e q # ^ > F  .|.",
"U D U D D D I # @ @ @ $ $ $ $ e k z c z k p x N g.j.J.I.;X;X;X4XI.4X/./.4XL.>.k.Q.f.t c c k p l k @ + + 8 9 e 0 e 9 @ 4  .] ] '.|.",
"E H W D D D H 4 @ @ @ @ @ $ q r k l k j p p j c.Y.v.W.:XT.K.5X5X7X5X5XI.J.>.h.9XxXyXh.j l p p z l 9 @ + @ @ 8 8 8 @ # ~ '._.`._.|.",
"] ] } ] E U D I 2 @ @ @ @ 8 9 w p k k k 9 w k.9XT.G.W.=X=XD.Z.Z.C.C.k.d.f.c.E.dXCXNXyXh.6 w e k k e @ @ @ @ @ @ @ # ^  .].].]._.|.",
"_._. .} E E E L 1 + @ 7 9 0 7 9 9 e i i 9 w T.tX=XY.=X=X:XQ.k.8.8.9.8.w.C.~.,XhXCXNXbX=Xw @ 9 e p i 7 # + @ # @ @ < | `.`._. ._.|.",
"]. .! L W E T D I 3 4 . 6 8 $ 7 8 0 9 8 @ e Y.fX>XY.=X>X,X,XW.f.8.8.e.c.-X>XrXBXCXVXbX0Xi + 7 q 9 0 @ @ @ $ @ X   R [.`. .! ! ].|.",
"`.] F = H D D E K ! [ ^ o.2 @ @ 7 @ @ @   u D.tX<XT.-X>X:X<X~.k.8.e.k.W.>X>XgXCXVXNXzX8Xa X @ @ @ @ @ @ 7 7 @ g ^ | ].`.| : G `.}.",
"! L G A D D E K D ! ` }  .[ R 9 @ @ @ # < h v.eX:XT.:XQ.~.:XY.d.8.e.k.*X=XeXvXFXNXxXjX=Xq @ @ @ 7 7 7 @ $ 2 R [ `.`.| ! W > D ` X.",
"= - H E D D U D D D H ! _._.| ^ 3 O 1 ; ; h x.>X=XT.~.W.Q.T.g.v 8.9.k.E.,XgXNXNXbXzXdXT.d O @ # $ $ 2 3 I Y !  .`.`.] * - D E H ~ ",
"A A D U D U D D D D E K _ ` ] _ H A Z A Z g =.K.E.E.W.W.W.U.r.0.0.r.c.T.eXmXmXxXzXjXeXz.s _ ^ Y 3 Y 3 T K E _ _.`._.| : Z E E E ~ ",
"E E U D U E K E D D D U H D E U D D U K S 3 B x.G.R.R.E.Y.l.p.y.a.r.k.E.rXgXjXjXdXeXW.=.^ _.} K K E E U K L _ _._._.} D L U D L ~ ",
"U E E D E U E E E D K E E H D E E E E D D A d :.x.S.J.b.n.p.i.y.u.p.g.D.:XqXrXrX0XE.>.o.[ ] ! E E E D U K U L ! ] ]. .] _ K D K ~ ",
"U E H E H D K E D D E E E L K E E K U E D L , f :.x.x.z.s.u.i.i.i.p.f.>.C.D.R.R.G.>.h Q | H H E E D D U U T S = G ].`._.| K D E ..",
"E W _ ` ` ] E E E D K U E E D D D U U E D K I O h ;.-.f.p.y.i.y.y.i.l.5.>.>.>.j.>.h 4 W ! I D D U D E ] ` ` ! : Z _ | ].`.` _ K ! ",
"D !  ._._. .E E E D D E U D U D E T D D E E K 3 8 B *.V.N.m.m.a.i.m.n.K.C.;.*.*.f 4 Q : : E E K D D ` `. ._.] H D - G [.`.`.| D ~ ",
"` ] {.`.] ` H E D D E E U D E E E D L E K E K I O g e.#X@XoXB.B.N.N.8XwX!.j.*.h . Y _ : A E ! ` ! D ! ] ] `. .` ` : S `._.`.} D ~ ",
"_. .].} > % H K U E U H E U L E K E E U W L K H , p 0.oX@X+XOXOXOX#XuXfXrX:X>.B < I D K D E ` _.] D F * G  .].]._.L ! '.`._.} L ~ ",
"`. .] ! D L _ _ K W ` ! E D D U E D D D ~ ^ o.s u 9.i.oX@X+X+X@XOXB.uXlXgXtXR.B 2 o.R H K D ! ] ` _ L L L _ } ].`.` ] `.`._.]._ X.",
"_.] F A | |  . .E W  . .! E E D E D D L | O.c v q.t.M.+X$X@X@X$X+Xm.uXvXgXdXT.m r c b o.E K A : ! `. . .] > H ].`. .| _._.`.`.| |.",
"_ ! L ! `.[.} } E W _._.] ` W E D W ~ [ o.b v w.w.0.N.+X@X+X@X@XB.p.uXbXjXtXQ.c c v w.n o.! E : ! {.].`.} ! _ `.].`.`._.| ' _ _.|.",
"= G | | ]._.! K D ! }  . ._.! K D ! | [ s x v v w.9.m.OXOXOXOXOXN.p.uXzXjXeXn.j z x v q.b #.{ U _ ].].]. .`._._.`._.`.`.} > G _.|.",
"* >  . .} ] K D U E | _.`._.] _ E W | o.k c c v n v r.M.N.B.B.oXM.V.yXaX,XU.w.j z c c v z O.] H _ ] } ]. .{._.] ] | ] {.| : Z  .[.",
"= F  .| : > D D D E _._.`. .`. .! W ~ s l z z c c p 8.0.y.i.m.V.V.9X~.c.-.M k l z c z c c b o.P A - L ].]._.| H L : H _.| E U L ~ ",
": A _ _ : : U U D D ] ] _.].} ] ! ! 4 p l l c z k 7 8 r.i.0.r.=.6.Z.*.f w j l l k k l l c z s S G L ! _.'. .} D A : H } ] U I H ~ ",
"U S = : D E D D K D = :  . .Z % A H 2 e z l l k q @ O 8.e.l y M *.B u 7 q w e p k k z l c c a 3 P `._. .'._.| D U E E E D D K L ~ ",
"U H : : D D D U E H = F ] ] F - Z ; u l l l l a $ @ @ o X + o # 8 @ + @ @ 7 7 0 e p l z c c k y P _.{._.`.` ` D D E K E H E D E ~ ",
"D E U E K K E D D U H U E T L L > < e l z l k 9 @ + @ + # 2 , 3 3 1 1 2 $ @ @ # @ u k l z z z s | _.`.`.] : Z E U D E E E D E L ~ ",
"U D E K E K E K K E E E D U _ ! W y p l l p e 8 + + o < I D K K K L W Y 4 2 # @ + @ 9 p l l c a #.'.| ] _ : : E U D E D D D E U ~ ",
"D K K E D K D U D E E D E D } _.] 4 e p p i q 7 @ < ; A K U D D K U E K H ; Y 4 # @ @ 9 i k l a ^ `.} = : U K D U K K K D K E E ~ ",
"D D D U E D ! ! E D E K ! !  .].] 2 e p i i 0 8 7 2 I T E K K K K E U H > = W [ 2 X $ @ q e k i Q } _ = : D K D D K E U K U D E ~ ",
"U E K D E U `.} E W D W _._.`.`.`.4 @ 0 q q q q 7 X I E K U U K K E K T T T > &   @ @ 7 7 9 q 2 T = > E D U K E E D D D D K D E ~ ",
"K K U E E D | | ! _ K !  .`._.`. .Q # @ @ 9 0 7 @   1 H E U U K K D D E K E A & X @ @ 8 @ + + 4 _ : G ! ! D K D E D D K D K D U ~ ",
"K K U E E U : : } } ! !  ._.`. .H F 1 $ 7 $ 7 7 @   1 Y K E K K D E K K U E T 2   + @ @ @ + O Q '. . .| } L D U U E D E E E D E ~ ",
"K K E ! ! ! = = _._.` _ _.`.`.} H P R 2 @ @ @ o   X , G K K ! _ E K D E E _ W 1 o o @ @ @ o 1 [ ].`. .] ] E E K D E U E E U U E ~ ",
"U ! '.'._. .: : } _.'. ._.`.`. ._._.].^ 2 @ + o X X 2 T D E ]  .` U U E ] [.| 4 X + @ @ + O Q _.`. .] = - D K K K E E U D D E E ~ ",
"E ! | | ]. .Z G _.`.`.`.`._._.`.`.'.].'.Y 2 y 0 d f *.+.D D ]  .` E E ! ] [.[ h d d u u 2 ; L _.].`.] = : H E D E E D D D D U E ~ ",
" .] : F '.`._. .`._.`. .'.`.`._._.'.`._._.&.j.v.D.Y.T.4.Q D Z = ! _.`.`._.).3.U.S.z.D.v.4.( E L D E D U K I K D E D U E U E E U ~ ",
"`.] = : } `.].].`.`.|  ._._._._.'._._. .3.*XiXiX0X,X*XT.4.+.( Y ` `.'.].|. X2XzXtXdXlXgXfX%X#.U D D D U E K K K D W W D D D D ! ~ ",
" .| = : = * `. .`. .- : | _.G - [  ._.XXdXVXCXHXcX9XT.T.rXVXZX&X)._.[. X3XMXCXkXkXVXHXHXHXHXmX3.D E K K E K K T ! ]. .D U K ! ].|.",
"].} = = = = |  ._. .Z : } } Z - '  .XXMXCXCXCXCXGXVXtX,XjXNXNXeX2.) 3.pXCXFXzXQ.qXxXNXGXZXHXHXMXXX#.S K E ! D H K `.} H D ! ` `.|.",
"_.] > : D D | } : = D D ! ! E Z * 4.gXZXGXmXBXHXVXbXqXD.=XrXeXb.Z C &.-XzXzXrXY.E.rXjXmXHXCXCXCXBXiXJ '. . .] = Z _.| = G } | `.|.",
"} _ G Z ! !  .] : : D D K E E H * v.iXsXzXdXMXVXdX9Xb.Y W +.o.: = - D ,.b.XX$.,.Z.W.!.rXNXmXvXzXtXH.J }  ._.] : G '.} > S `.`._.|.",
"Z L } }  . .! E D E U D K D K D C 4.K.*XqX*XfXjXG.-.+.H K P G A _ ] | | ! C * S ,.L.F.%XdXyX*X3.o.Q S Z L `.'.]  .`.`.} } `._.`.|.",
"= A  .| ]. .! U U K K K K D U K D D Q I +.,.3.b.+.S I L D K H L ] `.{. .! = = = !  .] &.z.+.Y D D D A = Z  .`.`.`.`.'._._.`.'.`.|."
};
