/* XPM */
static char *result[] = {
/* columns rows colors chars-per-pixel */
"65 65 251 2 ",
"   c #2C0C00",
".  c #370401",
"X  c #340C00",
"o  c #2B1700",
"O  c #341301",
"+  c #3B1501",
"@  c #341B02",
"#  c #3C1902",
"$  c #3F190B",
"%  c #082D03",
"&  c #1A2A02",
"*  c #0D3403",
"=  c #083705",
"-  c #0D3904",
";  c #113603",
":  c #123C05",
">  c #1B3B07",
",  c #133D08",
"<  c #2C2302",
"1  c #262904",
"2  c #332404",
"3  c #382805",
"4  c #2A3204",
"5  c #283905",
"6  c #363708",
"7  c #263910",
"8  c #470304",
"9  c #570400",
"0  c #431504",
"q  c #481507",
"w  c #441904",
"e  c #4A1A06",
"r  c #451B09",
"t  c #4C1C09",
"y  c #581B05",
"u  c #531E09",
"i  c #6B1700",
"p  c #731700",
"a  c #4A250A",
"s  c #54220A",
"d  c #5C220A",
"f  c #592708",
"g  c #483408",
"h  c #58360A",
"j  c #4D2A15",
"k  c #582D15",
"l  c #5B351B",
"z  c #692401",
"x  c #63240A",
"c  c #6A270A",
"v  c #6C290A",
"b  c #752804",
"n  c #732B0A",
"m  c #792E0A",
"M  c #6A3409",
"N  c #7C300B",
"B  c #70390B",
"V  c #683615",
"C  c #743814",
"Z  c #4D372C",
"A  c #5B3A22",
"S  c #623B23",
"D  c #723F23",
"F  c #074401",
"G  c #154206",
"H  c #1A4606",
"J  c #164C04",
"K  c #1E4E05",
"L  c #16420A",
"P  c #184709",
"I  c #1C4C09",
"U  c #035100",
"Y  c #1E5005",
"T  c #1A5706",
"R  c #1E5209",
"E  c #1E4310",
"W  c #214D05",
"Q  c #284508",
"!  c #354809",
"~  c #215106",
"^  c #215309",
"/  c #29550A",
"(  c #245B0A",
")  c #2A5B0F",
"_  c #35570B",
"`  c #334815",
"'  c #3C5715",
"]  c #176400",
"[  c #256A05",
"{  c #26620B",
"}  c #29650B",
"|  c #2B6C0C",
" . c #33660C",
".. c #2A7A07",
"X. c #2E720C",
"o. c #31760D",
"O. c #337C0E",
"+. c #3A780D",
"@. c #376812",
"#. c #3A7812",
"$. c #4C4D0F",
"%. c #495618",
"&. c #565B1F",
"*. c #694C10",
"=. c #496C17",
"-. c #64621E",
";. c #5A4726",
":. c #575B28",
">. c #575235",
",. c #6A4628",
"<. c #764A29",
"1. c #7C522D",
"2. c #694B33",
"3. c #6E5132",
"4. c #7B5334",
"5. c #795737",
"6. c #566A23",
"7. c #68652A",
"8. c #73622C",
"9. c #6F752E",
"0. c #776634",
"q. c #745B46",
"w. c #796449",
"e. c #7D6953",
"r. c #8C0500",
"t. c #861705",
"y. c #A71705",
"u. c #8E3413",
"i. c #AB3312",
"p. c #BE3819",
"a. c #863E21",
"s. c #D61B0A",
"d. c #E11F0F",
"f. c #DA250B",
"g. c #D93A0D",
"h. c #CB3214",
"j. c #C53720",
"k. c #87441B",
"l. c #91502E",
"z. c #9A542A",
"x. c #845B37",
"c. c #AC572B",
"v. c #86653B",
"b. c #8C633B",
"n. c #96673B",
"m. c #90743C",
"M. c #A86A3A",
"N. c #D94D11",
"B. c #E4540A",
"V. c #D86A0E",
"C. c #EA6F09",
"Z. c #CD5327",
"A. c #CC6529",
"S. c #886847",
"D. c #8C6B4B",
"F. c #936C43",
"G. c #966D45",
"H. c #957546",
"J. c #9C7245",
"K. c #9C754B",
"L. c #856C54",
"P. c #8B735A",
"I. c #967656",
"U. c #A56E40",
"Y. c #A27546",
"T. c #A57848",
"R. c #AB7C4B",
"E. c #B87A47",
"W. c #A47C53",
"Q. c #AC7F52",
"!. c #806C61",
"~. c #897563",
"^. c #957D66",
"/. c #D77B40",
"(. c #36830E",
"). c #38860F",
"_. c #338C0B",
"`. c #35890D",
"'. c #398A0E",
"]. c #3C8412",
"[. c #3C8B10",
"{. c #4A8519",
"}. c #449116",
"|. c #598222",
" X c #768832",
".X c #8A893C",
"XX c #F28B09",
"oX c #F29209",
"OX c #F8A809",
"+X c #FAB70A",
"@X c #E7A413",
"#X c #FDC60A",
"$X c #979E46",
"%X c #A98648",
"&X c #AD814E",
"*X c #B4834E",
"=X c #BA844C",
"-X c #AD8558",
";X c #B38552",
":X c #B48A53",
">X c #BC8C53",
",X c #BA8A56",
"<X c #AA9750",
"1X c #B89556",
"2X c #BAAF5A",
"3X c #99836B",
"4X c #A38766",
"5X c #AE926B",
"6X c #BEA97C",
"7X c #C9834A",
"8X c #CD8D52",
"9X c #C49256",
"0X c #C4955A",
"qX c #CA945A",
"wX c #C79859",
"eX c #CC9B5D",
"rX c #D59A5C",
"tX c #E69E5B",
"yX c #CAAA5D",
"uX c #E6A35E",
"iX c #D39E61",
"pX c #CEAE6F",
"aX c #DAA564",
"sX c #D8A965",
"dX c #DCB76B",
"fX c #E5A965",
"gX c #E4AA65",
"hX c #F5AD68",
"jX c #E5B46B",
"kX c #ECB46B",
"lX c #E8B96E",
"zX c #F5B46C",
"xX c #F5B86D",
"cX c #E9BD72",
"vX c #F4BC71",
"bX c #FBBD72",
"nX c #EBC375",
"mX c #EBC879",
"MX c #F5C576",
"NX c #FCC275",
"BX c #F6C979",
"VX c #FCCC7B",
"CX c #E7D276",
"ZX c #FCD37D",
"AX c #F9D57E",
"SX c #C6B482",
"DX c #DBC98B",
"FX c #ECDD8C",
"GX c #FDD681",
"HX c #FDDC83",
"JX c #FCE488",
/* pixels */
"[.[.'.[.[.[.[.'.( ^ ^ ^ ^ ^ ^ ^ ^ ^ ^ ^ ^ ^ ^ ^ ^ Q 2 Q R ^ ^ ~ ^ ^ | ].[.).{ , G ^ ^ ^ ^ ^ ^ ^ ^ ^ ^ ^ W ` :.[.}.[.'.'.+.: , - E ",
").(.(.(.'.O.O.O.( ~ ~ K K ^ I W W K K ~ W K K K 5 2 X 5 K Y ~ K K ^ | ].[.O.( = G ~ W ~ ~ W R I W K K ` 0.aXlX<X(.`._._.X.- * * , ",
").).).(.).O.G P K K K K K ^ W K K K K K K K K W g u q 2 H K Y Y K K ^ ^ ^ ^ ^ K K Y W W ^ ^ K K K K ` S.;XQ.aXzXdX2X2X6._.[ ( , E ",
"O.O.O.(.'.o.G * K K K W ~ K ^ W ~ ^ ~ K ^ ^ I 6 d v v s ! Y Y R ^ ~ ~ ( ( ^ ^ W K Y Y K W K W ( K / 8.&X^.I.I.9XwXVXnX2X2XyXo.: E ",
": : : H ( ( K K K K K W K ~ K ^ | o.(.).{ K 5 s c n n v g P P K } (.O.o.O.O.| R K K K K R ^ { o.( 7 5.-XI.P.W.I.:XbXwXeXAXdX9._.).",
"; * * * K K K ~ K W K I ~ K K ^ X.(.).(.[ H g M b i i p b g F U | (.).(.#.O.| R K ~ K ~ R Y { o.^ 1 4.0X;XG.L.x.>XqX&XkXlX:XdX.X).",
"O.} W K K K K ~ o.(.(.O.^ I o.(.'.(.} T _ :XjXnXBXMXnXmXAXAXMXyX7.U X.[.`.#.O.O.} ~ K Y { O.O.[.(.o.9.aXvX;XK.e.P.J.I.sX=XrXnX1X X",
"(.X.( K K K K ~ O.O.).o.~ ^ o.O.'.(.( W ;.J.:X0X0X9X0X0X9X9X1X&X8.U X.[.).(.(.O.} I K ^ | '.(.(.(.#. XfXGXvX,XT.J.H.H.&Xn.yXwXv.8.",
"^ ^ Y ^ (.O.).X.P : o.).o.O.).X.P P | $.2.l j 2.S.^.L.5XI.5.5.l ;.' J G { ).'.O.{ - ~ O.(.).[.[.).+.0.gXAXAXAXwXrX0X&X&Xe.,XW.R.8.",
"K ~ K ( o.(.`.X.: , o.(.(.).[.X.P G H h R.,.Z 1XqXyXdXAXpXpXpXJ.m.8.= , } ).).o.( % ( [.`.(.).`.(.{..XjXAXAXZXxXkXBXBXBX;X&X0XR.' ",
"^ K Y ~ { ( ).).| { K ~ O.).( P { } 6 X >Xn.S.gXVXVXMXnXnXmXCXsX%X-.[ [ O.O.| P * * ( [.'.(.{ P { #.m.kXVXVXNXxXbXVXGXGXkXaXqX:.) ",
"W ~ ~ K ^ ~ o.O.).O.: L O.X.P , ] ] 3 X A *XrX>Xn.1.4.,.3.3.3.v.n.1.] _.].(.} : % - ( O.O.o.{ = > 6 1.eXuXuXhXzXbXVXBXcXaX;X&./ ) ",
"K K ~ K ~ Y G K (.O.G ; P P * % 0.m.C 9 4.v.x.q.P.~.6X6X6XpX3Xe.2.M :XyX X_.O.| R % * L P P L & @ k <.M.8XtXtXhXfXdXyX>XG.%.K K ) ",
"~ Y ~ K K K * , O.o.P * - - * % 9.sX=Xx.4.2.5.!.SXDXFXFXJXFXDXDXI.Z T.<X}._.).O.( * % - ; - * 1 q d M k.M.%X7XtX7X:XI.w.' P I K ) ",
"W K W ~ Y K K K ( ~ ; * * * - F ' ;X;Xx.,.w.5XpXMXmXmXmXnXmXnXnXpX3Xx.,.J J K P ( X.o.{ K * > 2 q x x v C <.k.l.l.,.V @.X.o.| W ) ",
"R K ~ Y K K K R ~ ~ , * * * P Y / 3.x.,.q.^.5X,X,X;X;X,X=X:X:X>X1X,XS.;.7 = = - ( O.).O.{ * o r u d c v v v v v v f 3 | [.O.o.~ ) ",
"~ K ~ K R ~ K K K ~ ( } } } | } T $.5.,.e.L.G.Y.R.R.:X>X>X=X1X:X&XT.n.5.%.F H K } `.`._.o.Q . q s y c v v v v n x u 2  .O.R R R ) ",
"~ ~ K ~ ~ K ~ K Y R X.o.(.`.(...~ ' 3.2.5.D.I.R.;XR.*XT.T.*X*X=X*X*XY.v.;.F H H T [ %.*.*.a   q u x x x c c d x x s 6 | | - , R ) ",
"K ~ K Y K K K ^ K I R T (._._._...' ;.3.x.D.H.K.Y.Y.G.F.G.J.Y.J.T.T.G.x.,.M M M B B M v b d o + t s d x v x x d u t 3 J R L L Y ) ",
"~ K ~ K R K W K J I 5 g $.$.-.*.$.g ;.4.x.e.D.D.D.F.D.S.F.D.F.D.F.F.v.1.B b m u.N n x x N x   O r u u s d y d d u + 4 = - ~ ^ K ) ",
"~ W ~ K K R Y J g g f v n n N C x x f 5.e.P.I.P.~.I.P.S.D.L.L.e.e.e.w.D z n m N n d d v n x + + + 0 t e t e e e w < } } ^ , P | #.",
"~ ~ Y K K K I g f v v v c n b i 9 8 q 3.e.P.~.3X^.I.I.P.P.~.!.!.e.e.S.n.k.i n m n d y v v v u e # + q t e q 0 # <  .).O.X.- , (.}.",
"K ~ K W Y G g d x v i 9 p y.M./.qXsXcXdX,XI.W.4X4X4X3X3X3X^.^.^.^.I.Q.sXjXM.i m v t u d x v x u t q t a t 0 O O 4 '.'.O.O.| | O.}.",
"~ ~ ( K 6 h d y 9 9 1.=XrXjXkXNXZXGXHXVX9XY.K.W.I.3X5X4X4XP.G.4X-X-XiXBXAXjXM.v d q r s d x d u q t r t e # X   > '.).(.'.'.).(.}.",
"} | _ 6 u x x C E.7XaXzXNXGXNXVXZXHXHXGXjXQ.F.D.x.l.l.l.l.n.R.;X:X1XjXHXHXZXgXn.9 @ # r s u e w r t t r 0 X 1 1 K (.(.(.'.'.'.(.}.",
"O.O.6 t s s v b.rXhXxXbXbXbXbXGXGXHXHXBXkXaXW.w.D t.r.r.a.U.E.,X:XwXmXHXAXVXvXM.y   # q t e q 0 # 0 0 + 2 4 P ~ ( `.(.(.(.(.O.(.}.",
"`._ # s s s B *XtXfXzXzXbXbXbXVXGXHXHXvXqXeX0X-XG.a.t.r.k.U.;X;X0XlXAXAXVXbXfXT.y o + + # # # + + + 3 5 Q W ( X.X.(.(.'.O.( ( '.}.",
"@.4 e t t i <.*X8XrXuXfXzXbXNXVXGXvXNXNXaX;X*XE.U.a.t.t.t.l.&X0XjXAXAXZXNXbXfXM.d . . + + + X + 2 5 W K K Y { (.(.(.(.'.O., P '.[.",
"Q + e t t s <.J.;X9X8XaXfXbXMXVXGXNXvXiXiXqX;XP.S.a.t.y.y.p.8XkXNXVXVXNXxXhXrXM.$._ 6 2 2 < 4 5 Q Y K Y ~ ~ { ).(.(.O.( Y L P } #.",
"< O # e u a j 3.G.G.I.-X,XeXaXdXlXMXbXaXQ.9X;XK.D.z.i.s.s.s.A.kXvXbXzXzXzXuX9Xn.$.(.} Q Q Q K Y W W W K Y W ( ].(.(.X.* * K ~ ~ ) ",
"<   + q q r r s <.x.e.P.P.K.W.R.4X,XqXaXrXW.H.Y.G.z.j.d.s.f.g.A.aXfXfXfXgXqXT.<.6 T { X.| | } ~ K W ~ Y K ~ { (.[.(.X.: P K ~ ~ ) ",
"> o X # + + t 0 k ,.2.w.L.L.L.P.I.I.I.W.9XW.G.R.n.k.h.d.d.f.f.Z.7XqXrXrX,XT.5.a 1 = R ).).(.X.~ K W ~ ~ K R } (.(.(.X.~ ~ Y Y Y ) ",
"W 1 O O + + # w 0 q + l >.>.>.q.S.K.I.^.I.F.n.G.b.k.h.d.f.d.f.f.Z.E.;XR.F.4.j o Q T | ).O.X.( ~ ~ ~ Y ~ W K ^ ( | ).o.} } Y K ~ ) ",
"~ H 5 O 8 8 q q X 2 4 > J J 1 @ S x.D.D.S.5.4.v.F.z.p.s.d.f.f.g.V.Z.x.3.,.j o & ^ O.'.).X.R K ~ Y W K K ~ ~ J * P ).).(.O.^ K K ) ",
"~ ^ { _ $.! 6 6 5 Q K R T K K o r A 2.4.4.3.x.T.&XM.j.s.f.g.N.C.OX@Xc.V 3 O o - ( '.(.} R K K K W W ^ | } } ( : : } X.'.).} } K ) ",
"Y ( O.(.(.O.R R ~ W Y Y K K Y Q o $ k 2.3.x.R.0XiX=XZ.N.XXXXXXOX+X+XV.t.q o & = ( (.| = : Y W K K ~ { (.O.(.| R K - P ).).).o.K ) ",
"} } '.(.} { W W K K Y K K W ~ R 5 o $ ,.x.R.eXsXsX=XZ.XX+X+XOX+X#XoXB.p.t.& , G R } { : G R ( } ( K ( } X.(.O.} } : R `.(.`.o.K ) ",
"(.(.).X., * K K K ~ K K ~ W R ~ P < O ,.x.*XaXlXsXE.N.oXOX+X+XOX#XOXXXC.i.> J R I Y Y Y ~ ~ } (.[ K P = P +.).'.(.I { (.).O.o.~ ) ",
"(.(.} { J ~ { { Y Y { { ~ K W Q 6 2 X S x.9XsXlXaXE.j.B.XXOX+X+XOXOXOXV.u.$.! K K K K ~ ~ ~ ( } } } ^ R Y { X.`.).{ } (.).O.(.{ #.",
"O.| H P X.O.O.O.~ R +.O.( W 4 2 q q X A x.qXfXjXiXE.p.s.C.OX+XoXC.C.N.i.c v h g ! Y ~ W ~ K H : ( ).O.o.| L R ).).(.o.).(.).).O.}.",
"{ ( R ( ).(.X.X.^ ( (.(.( 6 # 0 e e 0 l n.qXaXgXqXE.c.p.h.C.C.B.g.f.i.V m m m m h ! W W ( } ^ G ( '.'.).X.( ( '.).).'.).O.| } ).}.",
"* I o.O.[.(.( ^ W ^ O.o.! # t u e w r z n.=X9XeX,XR.K.n.c.Z.Z.j.h.N.u.C n n m N N h Q R } (.X.R } '.`.).(.).).(.(.).).(.X.- P (.}.",
"* , O.O.X.} K K W ^ O.! e y d x x x d n l.n.R.E.T.J.J.J.W.J.F.v.z.z.u.c c n n m N n g ) (.).| Y ( | X.'.'.'.).| | X.X.).X.: G o.].",
"- , O.o., , K K W ^ X.g z v v n N N n v i V <.x.b.F.x.F.b.b.x.4.S h x x v v n n N m x %.[.(.| Y P - Y '.'.O.X.K Y : P ).o.~ K ^ ) ",
": G [ { : ; K ~ K ~ 6 s v v n n n n v x v b z l ,.1.x.x.5.3.A s e y x x v v v v v m b *.(.O.X.P P R ( (.).o.X.K K ; I X.X.^ K ~ ) ",
"W P * * W ~ K K K W @ d c v n v v v x d x x x 0 w l ,.2.S a # + # w u d d x v x v n n M _ (.} - ~ ).(.(.).(.o.K K ~ K ~ ^ K K K ) ",
"W Y : G K ~ K ~ W 6 u x n v v c i d d t e e 0 0 X w a a # . + + + # e r u u x v n n n v h +.o.K ( ).[.(.).| { K K ~ K W W K Y ~ ) ",
"W K ~ W Y K ~ Y 7 r y x v c x x u a + + + @ 2 6 5 ! 4 1 < 3 3 @ + + + + # e y x c n n v x $.`.o.(.).).).| = L W K K ~ ~ ~ W ~ K ) ",
"Y W W Y Y Y W ~ 4 w d v x x d y w + O o o 2 Q | (.X.J = J Y W 5 < # @ O O + w u x x n v x h X.'.`.(.o.} { : : ~ ~ K K W Y K ~ K ) ",
"Y Y Y K Y K W Y 4 + x x x s s t # + + o & , - , L ( R I ~ W K ~ K 5 4 < o O # e u x x c d r K O.).(.| - : ~ ~ K K Y K Y K W ~ ~ ( ",
"Y Y W K K K { ( 4 + d d u t t t e e w & G P P L L ~ R K K Y Y Y W W K 5 X O + @ w r u x d 3 ^ (.(.| ( - : W ~ K W ~ Y ~ W Y K ~ ) ",
"K W Y Y ~ W ).O.5 @ r e q t t y d d q < } O.).O.{ ~ W Y ~ K K W K K K 5 . O + + + w q u q 6 o.(.{ * , ^ ~ K Y Y Y K K K W Y W ~ ) ",
"W W ~ K Y W X.o.( 3 @ + 0 + q u t t t .  .(.(.X.{ ^ W Y Y Y ~ Y Y ~ Q 1   O 0 0 # # + + 2  .'.(.} , P ( ( ~ ~ K ~ K K Y Y Y K W ) ",
"Y Y Y ~ ^ Y : : X.} 2 O # + $ r 0 t r 8  .o.( - L K Y Y ~ K ~ ~ W ^ ' 3   O + + + + + O ! (.+.(.).o.o.o.X.^ Y K K ~ K W ( K K ~ ) ",
"Y Y ~ { { ^ * * (.`./ a + + + O + + q q _ } R P ^ ( ^ K K Y ( ( ^ ~ ! q   X O @ + + O o ~ o.o.(.'.`.o.| } ^ Y Y K ~ K Y ~ K K ~ ) ",
"W ( '.(.O.O.: : (.).(._ 6 # + + O O # j 6 > } O.(.O.} R K ~ | O.} R ` 3 X o + + O + 2 1 = : ( O.O.O.X., : Y K W ~ K ~ W W K W ~ ) ",
"^ ( X.o.'.'.G G o.).).`.O._ 6 j j j l n.m.%.[ `.).o.( W K R | O.{ / $.A k j s a a 6 / , - , ^ O.(.(.} * : W Y Y K ~ Y K Y W W ~ ) ",
"(.| : L (.(.(.(.).(.).O.).#.7.b.J.&XwXlXVX<X{.`.^ = K ~ Y I L : [ 6.S.G.b.F.n.F.m.6.{.O.} ~ Y ^ K Y ^ K W W Y K W K W K K ~ ~ W ) ",
").| * - X.O.'.'.(.).(.O.6.T.qXsXmXJXJXHXZXCX2X.X6.7 K ~ K K Q ` 6.$XcXzXiXaXlXlXdXiX%X X@.K K ~ K W W W W ~ ~ W ~ ( ^ K K K Y ( ) ",
"O.o.: : * * O.).`.o.5 %XjXVXGXHXHXHXAXNXbXNXAXJXHXyX|...Y Q  X2XCXJXNXfXuXVXJXJXJXJXHXZX1XT ( W Y Y K ~ ~ Y Y ^ ( (.O.W K R } O.}.",
"'.X.; * * * o.).).|.1XnXZXAXZXBXZXZXZXxX>XrXjXkXzXsX X..U 3.rXNXVXMXsXR.=XfXxXBXHXHXHXJXAXsX9.Y K K Y Y ^ ( Y P Y [.o.~ K ( { `.}.",
"(.| , : K R o.X.Q <XBXGXBXHXnXVXAXNXNXfXJ.m.m.wX0X.X' = F 7.:XsXgXaX:Xb.Y.rXrXfXGXHXAXHXHXAXdX@.= Y { (.O.o.} - L ).X.- P X.O.).}.",
"X.{ G L ( ( o.| &.1XaXeXdXsXyXnXnX9X:XK.:.J ~ _ =.o.Y - P W %.0.5.%._ :.S.Y.I.:XjXMXaXiXdXaX*X%.= ~ ( O.o.).o.- P `.} - K ).).).}.",
"G ~ X.X.O.X.{ ~ _ 9.F.K.9X*X*XsX0Xv.7.%.~ ^ Y Y Y ~ R R ~ ~ P P [ X.o. .=.-.:.w.1XdX1XT.m.&._ J Y ~ R : R ].O.X.O.).(.X.X.(.(.).}.",
"- L o.o.'.o.( ~ Y K Y K / %.&.m.8.' W Y Y Y ~ K K K K K W K K Y | ).).o.( ; * Q 7.9.=.: , I Y Y Y K L - P X.).).).).).(.).).(.).}."
};
