/* XPM */
static char *result[] = {
/* columns rows colors chars-per-pixel */
"65 65 161 2 ",
"   c #0C0C0B",
".  c #1D030A",
"X  c #120E0B",
"o  c #1A0E0A",
"O  c #0F100D",
"+  c #14110D",
"@  c #1B120D",
"#  c #1B1611",
"$  c #1E1813",
"%  c #3A0D01",
"&  c #25150E",
"*  c #29150E",
"=  c #2E190F",
"-  c #39120C",
";  c #31190F",
":  c #241710",
">  c #2A1510",
",  c #261911",
"<  c #291911",
"1  c #321C11",
"2  c #3B1D11",
"3  c #282018",
"4  c #362115",
"5  c #3F2114",
"6  c #3B251A",
"7  c #480D0C",
"8  c #4C1512",
"9  c #411B14",
"0  c #491A12",
"q  c #541A15",
"w  c #4F290B",
"e  c #442213",
"r  c #4C2415",
"t  c #4F2817",
"y  c #4D2919",
"u  c #512615",
"i  c #562917",
"p  c #5B2A17",
"a  c #522D1A",
"s  c #5E2C19",
"d  c #5A321E",
"f  c #6B2D17",
"g  c #652E19",
"h  c #682F1A",
"j  c #65351D",
"k  c #6C311B",
"l  c #72341C",
"z  c #7C371E",
"x  c #77381E",
"c  c #7E381E",
"v  c #4C3025",
"b  c #5B3424",
"n  c #583925",
"m  c #51372A",
"M  c #663822",
"N  c #673927",
"B  c #6C3922",
"V  c #733720",
"C  c #723B23",
"Z  c #7D3A20",
"A  c #65432C",
"S  c #694029",
"D  c #644232",
"F  c #7F4B31",
"G  c #5E4E45",
"H  c #685347",
"J  c #62554E",
"K  c #6A5D56",
"L  c #776C66",
"P  c #7A6E67",
"I  c #7C7067",
"U  c #7F7269",
"Y  c #81391F",
"T  c #823D21",
"R  c #8B3E21",
"E  c #864324",
"W  c #8D4223",
"Q  c #8C4D2E",
"!  c #934324",
"~  c #994625",
"^  c #9A4826",
"/  c #954D2B",
"(  c #9B4D2B",
")  c #96502D",
"_  c #9A502C",
"`  c #814C32",
"'  c #845135",
"]  c #915131",
"[  c #9E5833",
"{  c #9A5D3B",
"}  c #A14725",
"|  c #A54A26",
" . c #A94B27",
".. c #A54C29",
"X. c #AA4D28",
"o. c #B04F29",
"O. c #A5522D",
"+. c #AE542D",
"@. c #B1532C",
"#. c #B6592F",
"$. c #A65A39",
"%. c #AF5C38",
"&. c #B45B34",
"*. c #BC5C32",
"=. c #B76035",
"-. c #BF6133",
";. c #B2613B",
":. c #BB643C",
">. c #D45D2D",
",. c #C15F33",
"<. c #D35F30",
"1. c #C16134",
"2. c #C96536",
"3. c #C76638",
"4. c #D66334",
"5. c #805E4D",
"6. c #8E6B58",
"7. c #9A6E54",
"8. c #8C7060",
"9. c #8F756C",
"0. c #8C7B6E",
"q. c #957D73",
"w. c #D17845",
"e. c #D9794D",
"r. c #C67750",
"t. c #EB7742",
"y. c #A5836E",
"u. c #BE886D",
"i. c #B68B71",
"p. c #D18157",
"a. c #D8895E",
"s. c #F18246",
"d. c #F9844A",
"f. c #F7884F",
"g. c #E68B5C",
"h. c #F78A51",
"j. c #F98A50",
"k. c #DD9972",
"l. c #F39B67",
"z. c #F1A77B",
"x. c #9B8C85",
"c. c #B7988B",
"v. c #AD9A91",
"b. c #B5A8A1",
"n. c #C19D87",
"m. c #E2B295",
"M. c #CABBB3",
"N. c #EEC9AE",
"B. c #E9CEB9",
"V. c #D7CBC6",
"C. c #D6CEC8",
"Z. c #DAD3CD",
"A. c #DED6D0",
"S. c #DDD9D5",
"D. c #E0D9D6",
"F. c #E4DEDA",
"G. c #EFE8DF",
"H. c #F0ECE5",
"J. c #F1EFED",
"K. c #F3F0EE",
"L. c #F4F3F1",
/* pixels */
"M.r.d.d.h.d.d.d.d.d.d.d.d.d.d.d.d.d.d.d.d.d.d.d.d.d.d.d.d.l.N.G.L.A.n.w.s.j.d.s.t.e.g.j.f.d.d.f.d.d.d.d.d.h.d.d.h.d.d.f.d.d.d.z.F.",
"D E #.*.,.*.*.*.*.,.,.*.*.*.*.,.*.-.*.*.*.*.*.&.&.*.*.*.*.2.p.i.0.5.E ( *.*.*.,.*.&.%.*.*.*.*.=.&.-.#.#.,.*.*.%.*.*.$.,.*.#.,.4.k.",
"e p z Y Y Y Y Y Y Y z Y Y Y z z Y Y c Y z Y Y Y Y Y z z Y ( o.C , , r k Y Y Y Y Y Y c Y Y Y Y Y Y Y z Y Y Y Y Y Z T z Y z T T | t.",
"e p z z z Y z z z Y z Y Y z z z c c T Y z z z Y z Y z z z ^ ..x @ , r k Y Y Y Y T T T z c c c c Y z Y z z z Y Y z x Y T z z T  .4.",
"5 p z z z Y z Y Y z z Y z z Y z T Y c c c c c c c c z z Y ^ X.x @ & r k Y Y Y Y z z z Y T Y E Y E Y Y Y Y Y E z T z Y z T Y z $.4.",
"5 p z z Y z Y z Y Y z z Y z z Y c c c c c c T Y z z Y z Y ^ X.l @ , u k Y Y z E Y F Y T z z z z Y Y Y E Y x z z T Y z T Y z T  .4.",
"5 p z z z z Y z Y Y Y z z z z Y c c z E Y c Y c Y Y z z Y ~ O.S o & t k x Y z x c c c Y E Y Y z Y z Y Y Y z Y E z Y z T T Y z  .<.",
"e g z z Y z z Y Y z Y Y Y Y Y z c z z c c c z Y z c c z Y } X.l o & r l z z Y Y c c c c Y T z c E z Y z Y Y R z T z z Y z z Y  .<.",
"0 p c z c c c c z Y Y z Y z Y z c c c c c z c z z Y z z Y ^ X.x + > 0 k z Y z z Y Y Y T c c c z c T c c c c c T Y T Y T z Y z ..w.",
"2 p c z c z c c z z z z z Y Y z c c c c z Y c c z Y Y z Y ^ ..l @ * u k Y z T Y z z z z c Y E z c c c c c c c c R T z Z T z Y  .4.",
"e p z Y z Y c z Y z z Y c c z Y c c z c c c c z Y Y Y z Y ~  .l @ & r k z Y z T T Y Y z c c Y z c c z c c c c c z R z z z R Y  .4.",
"; g z Y z z c c z Y Y z c c c z z z Y c c c c Y z z z z Y ^ X.x + & r k z z Y z z z Y z z Y c z c Y T E c c c c z Z T z z z Y ..4.",
"e p z z z c c c c c z Y z Y z c z c c c E c c c Y z Y Y Y ~  .l @ : u h T Z Y z Y T z z Y z z Y T c c Y c c c c Y T Y z z Y z  .4.",
"e p z z c c c z c c Y z Y z z c x c c c z c c c z Y c z Y ^  .l @ : t k z z z Y Y z Y z z Y Y z c c c c c Y E Y z Y z z Y z Y  .4.",
"9 s z z z c c c c z z z c c z z c c c c z c c c c c c c Y ^ ..l # & r k z T z z z Y z Y T z Y Y c c c c c c c Y z Y z Y z z Y  .4.",
"e g z z z c z c z c z z c Y z Y c c z c c c c c c c c c Y ^ ..k o > u h z Z z Y Y Y z Y Y z z z c c c c c c c z Y T Y z Y Y z ..<.",
"5 s z c c z Y z Y Y z Y z z Y Y z z z Y Y z Y z z Y z z Y ^ ..V # * u k Y Y z Y Y Y z Y Y z Y z c c E T Y Y z Y Y Y T z z z R | <.",
"% g z z c Y c Y z z Y z z Y z z z Y z z Y Y z Y Y z Y z Y ^ @.Z + & r k z z Y Y z z Y Y z Y z x Y Y Z c z z z Y z z T T z T T ..<.",
"q 0 g g h k h h g h h g h k h g f g k g g f h h h g h k k x R s + , e i g g g h k k h g k g k s g k j j j g h h g h g h g k h Y *.",
"x.v e e e e e e e e e e e e e e e e e e e e e e e e e e e r e 1 $ & ; e e e e e e e e e e e w e e 5 e e r e e e e e e e e r r N c.",
"S.K @ o o o o o o o o o + o & , = , & @ @ o o o o @ o o o o X         X @ o o o + o o o o @ & & , & & @ o @ o o @ o @ o o o @ K D.",
"L.U 4 , = , = , , , < < * # + # @ o $ $ , = < & & , = , , , = , & = , & , = , , = , , , , , @ + @ @ # , & < < < , > > < < < 6 0.L.",
"C.7.) / ) ( / _ ( ( ( ( ( ` 6 , @ @ a E _ / / ) _ / / / / ( ( ^ / ( ( ( / / _ _ _ ) ( _ _ ] A 3 @ & 4 x ( ( ( ( ( ) ] ( _ ) _ a.H.",
"8.] *.&.*.*.*.*.*.*.*.*.*.:.' 6 + * j O.-.#.*.*.-.#.*.*.*.*.*.*.*.*.*.*.*.#.-.*.*.*.*.*.*.=.[ n @ @ e W *.*.*.*.*.*.*.*.*.*.&.r.m.",
"w k ^ ! ^ ^ ^ ^ ^ ~ ! ^ ^ ;.+.r + = g E ^ ^ ^ ^ ^ ^ ^ ^ ^ ^ ^ ^ ! ^ ^ ^ ^ ^ ! ( ^ ^ ^ ~ ^ } @.E $ + w l ! ^ ^ ^ ^ ^ ~ ~ ~ ~ ~ #.e.",
"e i Z Z z z z z z Y x z z O.+.r X ; u l c c c z x z z z c z c c c c z x z z z Y Y z z z z R X.W = + e g c c z c z Z Y Y z z Y  .4.",
"e i x z c c c c z z z z c } +.t + ; u l c c c c z z z x z z z z c c c x z Y z Y Y z z z c R | T , + e g c c z z V Z Y z z z z  .4.",
"5 g z Y c c c z z Y z z Z } @.r X ; u l c c c z z z Y Y Y z z z c c c c z z z z z Y z Y c W  .W , @ e g Y c Y c Y z z z Y z Y  .4.",
"5 s z Y z Y z Y Y z z Y z } o.t X ; u l c c c c Y z c Y z c z z z c z Y Y z z z z z z z z W ..W , + e g c c z z z z z z z z z  .4.",
"e p z z Y z Y z z z z z z } @.r + ; i l c c x c z Y z z c c Y c z c c c z Y Y z z Y Y z z R | ! , + e g z z z Y z z Y Y Y z z ..4.",
"5 p z Y z z Y Y z Y z z z } @.r + = u l c c x c z z Y Y c z c c z c c c Y z z Y z z Y z Y Y | ! , @ e g c Y z z Y z Y z z Y Y | <.",
"5 p z z z Y z z z z Y z c } @.r + ; u l c c c c z z z z c z z c c c z Y z z z z Y z z z Y !  .! & + e g z Y z z z Y z z Y z z  .4.",
"e p c c z c c c z Y c c z } @.y o ; u l c z z Y c c z z c c c c z c z Y Y z Y z c c z Y c R  .! & + e g c c c c x c c c c c c  .4.",
"9 p z c Y c z c c c c z z ..@.u X ; i l z z Y z c c z c z c c c z z z Y Y z z Y c c Y z Y W  .R * + e g c c c c c c c c c c z | 4.",
"2 g z z z Y l c c c Y z c ..@.r X ; i l z c c c c c c c c c z c c c z z z z z z c Y Y z Y !  .! < + e g c c c c c c c z c c c | 4.",
"e p z z c z z c c z z z Y } @.t X ; w x z Y c c z c c c z Y Y z c c z z z Y Y z z c c z z R  .W & o e g c c c c c c c c z z c  .4.",
"e p z z c c c c c z z z z | #.y X ; u x c c c c c c z c Y z c Y z z z Y Y Y Y z c c c Y z R  .W < + e g c c c c z z z Y z z z  .<.",
"2 p z z c z c c z Y c c x | @.r X ; u l z c c c z c z z z z c z Y z z z z Y Y z c c c z z R | R 3 + e g c c c c Y Y Y z z z Y | 4.",
"e p Y z c c c c c c Y z z } @.t o ; u l z z c z c c c z Y Y z z z Y c c Y z z z z c z Y z R ..R < + w g x c c c Y Y z z z z Y X.<.",
"e p Y Y c c c c c z c z x } @.a   ; i l z z c c c c c c c z z z z z c c z Y z z Y c z z z R ..E < + 5 g c c Y c z z z z Y z Y  .<.",
"7 u k l l k k l l l l l k W ( e + = r g k l l l l k l k l l l l l x l f l l l l l l k l l z ! c , + e p l x l l l l l l l l x ! 2.",
"6.y i t u u r u r w r u w g s ; @ & ; r u u u u u w u u u r u e w u u u r u w u r u u u u i p r , @ ; e u u r r u w u u r u u V u.",
"V.G < < = = ; ; = = = = = = & @ @ @ & = = = = = = = = = = = ; = * * = = = = = = = = * ; = = , & @ @ & * = = = = ; = = ; ; = 1 H M.",
"J.L $ O X X X X X X X X X     X + X X X X X X + X X X X X X o @ & @ + +   X + +   X X + +       + + X X X O + + X X X X X X # I J.",
"F.6.M j j j j j j j j j j j j j j j j j j j j j j j j j j d 4 # @ @ 4 a j j j j j j j j j j j j j j k j j j j j j j j j j j B y.J.",
"v.{ -.*.-.-.1.-.-.1.1.1.1.1.1.1.1.1.1.-.*.1.1.1.-.-.-.1.3.;.F 6 X @ a ( -.-.1.1.-.-.1.1.1.-.-.-.-.1.1.-.-.-.-.1.-.1.1.1.-.1.1.a.B.",
"b x +.+.+.+.+.+.+.+.+.#.#.+.+.+.#.+.+.+.@.+.+.+.+.+.+.+.&.:.&.l + & p ! O.+.+.@.+.@.@.+.+.+.+.#.+.+.+.+.#.+.+.+.+.+.+.+.+.@.+.3.g.",
"% p z z z z T Z c c c c x Z x c Y c Z c Z c c Y c c c c c !  .z o & r k Y Y z z z z z Y c Y c z c c Z c c c z c Z Y T z z z Y | >.",
"5 s z z z z z z x z z z z z z x z z z z z l z z z z z z z ! } k o * e f z z z z z z z c z z z z c c x z z z x z z z z z z z z | 4.",
"5 s z z Y Y z z z z Y z z z z z c c z c z c Y c z z z z Y ~ | l @ > u f z Y z z c z c c z z z c c c c z c z z z z z Y Y z c c | 4.",
"e i z z Y z z z z z z Y z z z z c c c c c z c c c c c z z ~  .x X > w f z z z Y c c c z c z z c z z z c z c c c c c c c z c c  .4.",
"e s z z z z Y Y z z z z z Y z Y z c c z c z z z c c c z Y ~ | l @ > w f z Y Y z z c z c c c z c c c c c c c z c c c c z z c c | 4.",
"e i z Y z Y z z z z c c z z z z c c c c z Y Y z c c Y z z !  .x o & 0 k z Y z z z c c c c c c c c c c c c z c z z z Y z z c c  .4.",
"e p z z z z Y z c z z c Y z z z z c c z z z z Y c c c c z }  .l @ > e h z Y z Y c c c c c c z c z c c z c c z c z Y z z z c Y  .<.",
"e p z z z Y z z c c z c z Y Y z c c Y z Y z z z c z l l z } | l o & e k z Y Y z z c c c c c z Y c c z c c z c c z Y z Y Y z c  .4.",
"e i z Y z z Y z c c z z z z Y z c c c z z Y z z c c Y z Y ! | f . < r k z Y z Y z z z z z z z z c c z c c c c z z z z Y z z z | 4.",
"e w z z c c c Y c z c c c c c c z Y z z z z z Y Y z z z z ~ | l # & e k z T z z z z z z z c z Y z Y c c c c z Y z Y z Y c c c | 4.",
"r p c z c c c Y z z z c c c c c z z Y z z Y Y Y Y z z z z ~ | V o & r h z Y z Y Y z z z Y Y z z z z z z c Y z z Y z Y z c c c  .4.",
"0 p c z c c Y Y c c z c z z c z z Y Y z z z z z z Y Y z Y ~ | l @ > e k z z z Y z z Y z Y c z Y Y z c c c c z z z z z z c c c  .4.",
"9 p l z c c z z c c z c z c z Y z Y z Y z Y Y z z z z Y Y R  .l + > r k z Y z z Y z z z c c z z z Y c c c z z Y z z Y z c c Y | <.",
"e p Y Y Y c c z c z c z c c c z Y z z z Y z Y z z Y z z Y ~  .x + > r k z Y z z z z z Y z c c z z z z Y z z Y z z Y Y z z c c | 4.",
"2 p z z z z z Y z Y z Y c z c c z z Y z z z z z Y z z z Y }  .l o * e k Y z z z Y z Y z c Y z c z Y z z z Y z Y z z z Y z z Y | <.",
"2 i z z z z z z c c c z c z c z z z z Y z z Y z Y z Y z z R | V $ : r k z Y z Y z z Y Y z c c c z c c c Y z z Y z z z z z z c | <.",
"m w p p p p p p p p p p p i g i p p p p p p p p p p p p i f Q 6.P J y u p p i p p p p p w p p p p p p p p p p p p p p p p g w z $.",
"b.s e 2 2 ; 2 9 2 2 2 2 2 e 2 - 2 2 2 2 2 2 2 2 2 2 2 2 - 8 9.C.K.Z.q.8 - 9 9 2 2 2 2 1 2 9 2 2 2 2 9 2 - 2 2 2 2 9 2 2 2 9 2 s b."
};
